<?xml version="1.0" encoding="UTF-8"?>
<svg xmlns="http://www.w3.org/2000/svg" xmlns:xlink="http://www.w3.org/1999/xlink" viewBox="0 0 2163.9 712.6">
  <defs>
    <style>
      .cls-1 {
        fill: url(#linear-gradient-2);
      }

      .cls-2 {
        fill: url(#radial-gradient-7);
      }

      .cls-3 {
        fill: url(#radial-gradient-10);
      }

      .cls-4 {
        fill: url(#Degradado_sin_nombre_148);
      }

      .cls-5 {
        fill: url(#Degradado_sin_nombre_302);
      }

      .cls-6 {
        fill: url(#Degradado_sin_nombre_103);
      }

      .cls-7 {
        fill: #fff;
      }

      .cls-8 {
        fill: url(#Degradado_sin_nombre_259);
      }

      .cls-9 {
        fill: url(#Degradado_sin_nombre_257);
      }

      .cls-10 {
        fill: url(#linear-gradient-7);
        mix-blend-mode: exclusion;
      }

      .cls-11 {
        fill: url(#Degradado_sin_nombre_118);
      }

      .cls-12 {
        fill: url(#Degradado_sin_nombre_66-2);
      }

      .cls-13 {
        fill: url(#Degradado_sin_nombre_191);
      }

      .cls-14 {
        fill: url(#Degradado_sin_nombre_155);
      }

      .cls-15 {
        fill: url(#Degradado_sin_nombre_152);
      }

      .cls-16 {
        fill: url(#radial-gradient-8);
      }

      .cls-17 {
        fill: url(#linear-gradient-6);
      }

      .cls-18 {
        fill: url(#radial-gradient-5);
      }

      .cls-19 {
        clip-path: url(#clippath-2);
      }

      .cls-20 {
        fill: url(#radial-gradient-4);
      }

      .cls-21 {
        isolation: isolate;
      }

      .cls-22 {
        fill: url(#Degradado_sin_nombre_77);
      }

      .cls-23 {
        fill: url(#Degradado_sin_nombre_57);
      }

      .cls-24 {
        fill: url(#Degradado_sin_nombre_124);
      }

      .cls-25 {
        fill: url(#Degradado_sin_nombre_170-2);
      }

      .cls-26 {
        fill: url(#radial-gradient-6);
      }

      .cls-27 {
        fill: url(#Degradado_sin_nombre_210);
      }

      .cls-28 {
        fill: url(#Degradado_sin_nombre_54);
      }

      .cls-29 {
        clip-path: url(#clippath-1);
      }

      .cls-30 {
        clip-path: url(#clippath-4);
      }

      .cls-31 {
        mix-blend-mode: hard-light;
      }

      .cls-32 {
        fill: url(#Degradado_sin_nombre_80);
      }

      .cls-33 {
        fill: url(#radial-gradient);
      }

      .cls-34 {
        fill: url(#Degradado_sin_nombre_224);
      }

      .cls-35 {
        fill: url(#Degradado_sin_nombre_170);
      }

      .cls-36 {
        fill: url(#Degradado_sin_nombre_136);
      }

      .cls-37 {
        fill: url(#Degradado_sin_nombre_101);
      }

      .cls-38 {
        fill: url(#Degradado_sin_nombre_69);
      }

      .cls-39 {
        fill: url(#Degradado_sin_nombre_2);
      }

      .cls-40 {
        fill: url(#Degradado_sin_nombre_27);
      }

      .cls-41 {
        fill: url(#Degradado_sin_nombre_72);
      }

      .cls-42 {
        fill: url(#linear-gradient-5);
      }

      .cls-43 {
        fill: url(#Degradado_sin_nombre_145);
      }

      .cls-44 {
        clip-path: url(#clippath);
      }

      .cls-45 {
        fill: url(#radial-gradient-2);
      }

      .cls-46 {
        fill: url(#Degradado_sin_nombre_177);
      }

      .cls-47 {
        fill: url(#Degradado_sin_nombre_110);
      }

      .cls-48 {
        fill: none;
      }

      .cls-49 {
        fill: url(#radial-gradient-3);
      }

      .cls-50 {
        clip-path: url(#clippath-3);
      }

      .cls-51 {
        fill: #d2ecff;
      }

      .cls-52 {
        fill: url(#Degradado_sin_nombre_241);
      }

      .cls-53 {
        fill: url(#Degradado_sin_nombre_27-2);
      }

      .cls-54 {
        fill: url(#linear-gradient-3);
      }

      .cls-55 {
        fill: url(#linear-gradient);
      }

      .cls-56 {
        fill: url(#Degradado_sin_nombre_197);
      }

      .cls-57 {
        fill: url(#Degradado_sin_nombre_66);
      }

      .cls-58 {
        fill: url(#Degradado_sin_nombre_2-2);
      }

      .cls-59 {
        fill: url(#Degradado_sin_nombre_107);
      }

      .cls-60 {
        fill: url(#Degradado_sin_nombre_207);
      }

      .cls-61 {
        fill: url(#linear-gradient-4);
      }

      .cls-62 {
        fill: url(#Degradado_sin_nombre_139);
      }

      .cls-63 {
        fill: url(#radial-gradient-9);
      }

      .cls-64 {
        fill: url(#Degradado_sin_nombre_127);
      }

      .cls-65 {
        fill: url(#Degradado_sin_nombre_204);
      }
    </style>
    <clipPath id="clippath">
      <rect class="cls-48" x="113.2" y="81.6" width="1920" height="468.8"/>
    </clipPath>
    <radialGradient id="radial-gradient" cx="411.2" cy="1773.3" fx="411.2" fy="1773.3" r="376.9" gradientTransform="translate(-2283.4 423.5) rotate(-90) scale(.4 1.9)" gradientUnits="userSpaceOnUse">
      <stop offset="0" stop-color="#fff"/>
      <stop offset="1" stop-color="#272525"/>
    </radialGradient>
    <linearGradient id="linear-gradient" x1="-1565.8" y1="-931.7" x2="-656.4" y2="608.5" gradientTransform="translate(908.9 1331.9) rotate(90) scale(1 1)" gradientUnits="userSpaceOnUse">
      <stop offset=".1" stop-color="#fff"/>
      <stop offset="1" stop-color="#000"/>
    </linearGradient>
    <radialGradient id="radial-gradient-2" cx="536.9" cy="1641.9" fx="536.9" fy="1641.9" r="386.3" gradientTransform="translate(-2283.4 423.5) rotate(-90) scale(.4 1.9)" gradientUnits="userSpaceOnUse">
      <stop offset=".1" stop-color="#fff"/>
      <stop offset=".8" stop-color="#272525"/>
      <stop offset="1" stop-color="#272525"/>
    </radialGradient>
    <radialGradient id="radial-gradient-3" cx="635.2" cy="1565.4" fx="635.2" fy="1565.4" r="286.9" gradientTransform="translate(-2283.4 423.5) rotate(-90) scale(.4 1.9)" gradientUnits="userSpaceOnUse">
      <stop offset="0" stop-color="#fff"/>
      <stop offset="1" stop-color="#272525"/>
    </radialGradient>
    <radialGradient id="radial-gradient-4" cx="706.4" cy="1737.1" fx="706.4" fy="1737.1" r="290.3" gradientTransform="translate(-2283.4 423.5) rotate(-90) scale(.4 1.9)" gradientUnits="userSpaceOnUse">
      <stop offset="0" stop-color="#fff"/>
      <stop offset="1" stop-color="#000"/>
    </radialGradient>
    <linearGradient id="linear-gradient-2" x1="706.4" y1="2535.3" x2="855.9" y2="2535.3" gradientTransform="translate(-1481.6 867.1) rotate(-90) scale(1 1)" gradientUnits="userSpaceOnUse">
      <stop offset=".1" stop-color="#fff"/>
      <stop offset="1" stop-color="#000"/>
    </linearGradient>
    <radialGradient id="radial-gradient-5" cx="858.6" cy="1604.2" fx="858.6" fy="1604.2" r="512.5" gradientTransform="translate(-2283.4 423.5) rotate(-90) scale(.4 1.9)" gradientUnits="userSpaceOnUse">
      <stop offset=".3" stop-color="#fff"/>
      <stop offset="1" stop-color="#272525"/>
    </radialGradient>
    <linearGradient id="linear-gradient-3" x1="-699" y1="111.6" x2="-1667" y2="-435" gradientTransform="translate(908.9 1477) rotate(90) scale(1 1)" gradientUnits="userSpaceOnUse">
      <stop offset="0" stop-color="#fff"/>
      <stop offset="1" stop-color="#272525"/>
    </linearGradient>
    <radialGradient id="radial-gradient-6" cx="-848.6" cy="473.3" fx="-848.6" fy="473.3" r="377" gradientTransform="translate(2336.9 688.6) rotate(90) scale(.4 1.9)" gradientUnits="userSpaceOnUse">
      <stop offset="0" stop-color="#fff"/>
      <stop offset="1" stop-color="#000"/>
    </radialGradient>
    <radialGradient id="radial-gradient-7" cx="-703.9" cy="699.9" fx="-703.9" fy="699.9" r="375.7" gradientTransform="translate(2336.9 688.6) rotate(90) scale(.4 1.9)" gradientUnits="userSpaceOnUse">
      <stop offset="0" stop-color="#fff"/>
      <stop offset="1" stop-color="#000"/>
    </radialGradient>
    <linearGradient id="linear-gradient-4" x1="-1555.2" y1="-931.9" x2="-645.8" y2="608.5" gradientTransform="translate(908.9 1477) rotate(90) scale(1 1)" gradientUnits="userSpaceOnUse">
      <stop offset="0" stop-color="#fff"/>
      <stop offset="1" stop-color="#000"/>
    </linearGradient>
    <linearGradient id="linear-gradient-5" x1="-591.7" y1="609.8" x2="-1502.7" y2="-933.3" gradientTransform="translate(908.9 1477) rotate(90) scale(1 1)" gradientUnits="userSpaceOnUse">
      <stop offset="0" stop-color="#fff"/>
      <stop offset="1" stop-color="#000"/>
    </linearGradient>
    <radialGradient id="radial-gradient-8" cx="-488.3" cy="491.9" fx="-488.3" fy="491.9" r="286.9" gradientTransform="translate(2336.9 688.6) rotate(90) scale(.4 1.9)" gradientUnits="userSpaceOnUse">
      <stop offset="0" stop-color="#fff"/>
      <stop offset="1" stop-color="#000"/>
    </radialGradient>
    <radialGradient id="radial-gradient-9" cx="-417" cy="663.6" fx="-417" fy="663.6" r="290.3" gradientTransform="translate(2336.9 688.6) rotate(90) scale(.4 1.9)" gradientUnits="userSpaceOnUse">
      <stop offset="0" stop-color="#fff"/>
      <stop offset="1" stop-color="#000"/>
    </radialGradient>
    <linearGradient id="linear-gradient-6" x1="-531.8" y1="-884.4" x2="-1385.1" y2="560.9" gradientTransform="translate(908.9 1477) rotate(90) scale(1 1)" gradientUnits="userSpaceOnUse">
      <stop offset="0" stop-color="#fff"/>
      <stop offset="1" stop-color="#000"/>
    </linearGradient>
    <radialGradient id="radial-gradient-10" cx="-264.8" cy="530.7" fx="-264.8" fy="530.7" r="512.5" gradientTransform="translate(2336.9 688.6) rotate(90) scale(.4 1.9)" gradientUnits="userSpaceOnUse">
      <stop offset="0" stop-color="#fff"/>
      <stop offset="1" stop-color="#272525"/>
    </radialGradient>
    <linearGradient id="linear-gradient-7" x1="229.9" y1="-142" x2="1904.5" y2="767.6" gradientUnits="userSpaceOnUse">
      <stop offset="0" stop-color="#000"/>
      <stop offset="1" stop-color="#000"/>
    </linearGradient>
    <clipPath id="clippath-1">
      <rect class="cls-48" x="113.2" y="79.4" width="1917" height="471" transform="translate(2143.3 629.8) rotate(180)"/>
    </clipPath>
    <clipPath id="clippath-2">
      <path class="cls-48" d="m1853.1,423.7c6.3-8.7,72-57.4,143.1-37,72.5,20.8,83.6,87.6,83.6,87.6l43.7,43.7,40.4-183.4-40.1-56.7-232.4-10.5-47.3,84.8,10.1,83.8-1.1-12.3Z"/>
    </clipPath>
    <linearGradient id="Degradado_sin_nombre_136" data-name="Degradado sin nombre 136" x1="1902.5" y1="366.5" x2="1978.6" y2="366.5" gradientUnits="userSpaceOnUse">
      <stop offset="0" stop-color="#b5bfd2" stop-opacity=".4"/>
      <stop offset="1" stop-color="#ccdbea" stop-opacity=".7"/>
    </linearGradient>
    <linearGradient id="Degradado_sin_nombre_139" data-name="Degradado sin nombre 139" x1="2040.7" y1="366.3" x2="2116.6" y2="366.3" gradientUnits="userSpaceOnUse">
      <stop offset="0" stop-color="#d2e2f1" stop-opacity=".8"/>
      <stop offset="1" stop-color="#dff2ff"/>
    </linearGradient>
    <linearGradient id="Degradado_sin_nombre_155" data-name="Degradado sin nombre 155" x1="2013.6" y1="448.7" x2="2094.4" y2="448.7" gradientUnits="userSpaceOnUse">
      <stop offset="0" stop-color="#c9d8e8" stop-opacity=".7"/>
      <stop offset="1" stop-color="#dff2ff"/>
    </linearGradient>
    <linearGradient id="Degradado_sin_nombre_152" data-name="Degradado sin nombre 152" x1="1959" y1="314.8" x2="2059.8" y2="314.8" gradientUnits="userSpaceOnUse">
      <stop offset="0" stop-color="#c9d8e8" stop-opacity=".7"/>
      <stop offset="1" stop-color="#dff2ff"/>
    </linearGradient>
    <linearGradient id="Degradado_sin_nombre_148" data-name="Degradado sin nombre 148" x1="1969.4" y1="394.1" x2="2049.2" y2="394.1" gradientUnits="userSpaceOnUse">
      <stop offset="0" stop-color="#c9d7e7" stop-opacity=".7"/>
      <stop offset="1" stop-color="#dff2ff"/>
    </linearGradient>
    <linearGradient id="Degradado_sin_nombre_302" data-name="Degradado sin nombre 302" x1="2091.6" y1="306.2" x2="2049.5" y2="306.2" gradientUnits="userSpaceOnUse">
      <stop offset="0" stop-color="#d2ecff"/>
      <stop offset="1" stop-color="#173773" stop-opacity="0"/>
    </linearGradient>
    <linearGradient id="Degradado_sin_nombre_145" data-name="Degradado sin nombre 145" x1="1927.2" y1="305.7" x2="1968.8" y2="305.7" gradientUnits="userSpaceOnUse">
      <stop offset="0" stop-color="#b5bfd2" stop-opacity=".4"/>
      <stop offset=".6" stop-color="#c2cfe0" stop-opacity=".6"/>
      <stop offset="1" stop-color="#c2cfe0" stop-opacity=".6"/>
    </linearGradient>
    <clipPath id="clippath-3">
      <path class="cls-48" d="m1877,644.8c-9.6-3-65-40.1-67.9-109.7-3-71.1,45.7-108,45.7-108l26.1-52.1-176,18.4-38.7,52.7,59.8,211,89.9,17,71.9-34-10.7,4.6Z"/>
    </clipPath>
    <linearGradient id="Degradado_sin_nombre_66" data-name="Degradado sin nombre 66" x1="1753.1" y1="585.1" x2="1847.9" y2="585.1" gradientUnits="userSpaceOnUse">
      <stop offset="0" stop-color="#b5bfd2" stop-opacity=".4"/>
      <stop offset="1" stop-color="#c0ccdd" stop-opacity=".6"/>
    </linearGradient>
    <linearGradient id="Degradado_sin_nombre_103" data-name="Degradado sin nombre 103" x1="1719.7" y1="460.1" x2="1796.9" y2="460.1" gradientUnits="userSpaceOnUse">
      <stop offset="0" stop-color="#b5bfd2" stop-opacity=".2"/>
      <stop offset="1" stop-color="#bcc7d9" stop-opacity=".5"/>
    </linearGradient>
    <linearGradient id="Degradado_sin_nombre_110" data-name="Degradado sin nombre 110" x1="1802.8" y1="459.1" x2="1879.8" y2="459.1" gradientUnits="userSpaceOnUse">
      <stop offset="0" stop-color="#bbc6d8" stop-opacity=".5"/>
      <stop offset="1" stop-color="#c0ccdd" stop-opacity=".6"/>
    </linearGradient>
    <linearGradient id="Degradado_sin_nombre_101" data-name="Degradado sin nombre 101" x1="1699" y1="537.5" x2="1770.6" y2="537.5" gradientUnits="userSpaceOnUse">
      <stop offset="0" stop-color="#b5bfd2" stop-opacity=".2"/>
      <stop offset="1" stop-color="#bbc6d8" stop-opacity=".5"/>
    </linearGradient>
    <linearGradient id="Degradado_sin_nombre_127" data-name="Degradado sin nombre 127" x1="1762.9" y1="511.5" x2="1837.7" y2="511.5" gradientUnits="userSpaceOnUse">
      <stop offset="0" stop-color="#b5bfd2" stop-opacity=".4"/>
      <stop offset="1" stop-color="#c2cfe1" stop-opacity=".6"/>
    </linearGradient>
    <linearGradient id="Degradado_sin_nombre_118" data-name="Degradado sin nombre 118" x1="1703" y1="484.2" x2="1712.1" y2="486.6" gradientUnits="userSpaceOnUse">
      <stop offset="0" stop-color="#b5bfd2" stop-opacity=".2"/>
      <stop offset="1" stop-color="#b7c1d4" stop-opacity=".3"/>
    </linearGradient>
    <linearGradient id="Degradado_sin_nombre_107" data-name="Degradado sin nombre 107" x1="1723.7" y1="595" x2="1762.9" y2="595" gradientUnits="userSpaceOnUse">
      <stop offset="0" stop-color="#b5bfd2" stop-opacity=".2"/>
      <stop offset="1" stop-color="#c0ccdd" stop-opacity=".3"/>
    </linearGradient>
    <linearGradient id="Degradado_sin_nombre_124" data-name="Degradado sin nombre 124" x1="1775.9" y1="418.4" x2="1824.5" y2="418.4" gradientUnits="userSpaceOnUse">
      <stop offset="0" stop-color="#b5bfd2" stop-opacity=".4"/>
      <stop offset="1" stop-color="#c3d0e1" stop-opacity=".6"/>
    </linearGradient>
    <linearGradient id="Degradado_sin_nombre_259" data-name="Degradado sin nombre 259" x1="149.9" y1="240.3" x2="236.4" y2="240.3" gradientUnits="userSpaceOnUse">
      <stop offset="0" stop-color="#c4d2e2" stop-opacity=".6"/>
      <stop offset="1" stop-color="#d4e5f3" stop-opacity=".8"/>
    </linearGradient>
    <linearGradient id="Degradado_sin_nombre_257" data-name="Degradado sin nombre 257" x1="113" y1="182.7" x2="174" y2="182.7" gradientUnits="userSpaceOnUse">
      <stop offset="0" stop-color="#b5bfd2" stop-opacity=".4"/>
      <stop offset="1" stop-color="#c4d2e2" stop-opacity=".6"/>
    </linearGradient>
    <linearGradient id="Degradado_sin_nombre_210" data-name="Degradado sin nombre 210" x1="227.9" y1="212.3" x2="299.2" y2="212.3" gradientUnits="userSpaceOnUse">
      <stop offset="0" stop-color="#d2e2f1" stop-opacity=".8"/>
      <stop offset="1" stop-color="#dff2ff"/>
    </linearGradient>
    <linearGradient id="Degradado_sin_nombre_2" data-name="Degradado sin nombre 2" x1="245.3" y1="176.5" x2="177" y2="176.5" gradientUnits="userSpaceOnUse">
      <stop offset="0" stop-color="#d2ecff"/>
      <stop offset="1" stop-color="#8ca8ca" stop-opacity=".6"/>
    </linearGradient>
    <linearGradient id="Degradado_sin_nombre_224" data-name="Degradado sin nombre 224" x1="221.7" y1="262.3" x2="264.9" y2="262.3" gradientUnits="userSpaceOnUse">
      <stop offset="0" stop-color="#cedcec" stop-opacity=".8"/>
      <stop offset="1" stop-color="#d7e8f6" stop-opacity=".9"/>
    </linearGradient>
    <linearGradient id="Degradado_sin_nombre_241" data-name="Degradado sin nombre 241" x1="124.2" y1="236" x2="153.4" y2="236" gradientUnits="userSpaceOnUse">
      <stop offset="0" stop-color="#b6c0d3" stop-opacity=".4"/>
      <stop offset="0" stop-color="#b5bfd2" stop-opacity=".4"/>
      <stop offset="1" stop-color="#c6d4e4" stop-opacity=".6"/>
    </linearGradient>
    <clipPath id="clippath-4">
      <path class="cls-48" d="m19,289.7c8.5-4.2,27.9,53.4,75.3,98.5,48.3,46,11.1,82.4,11.1,82.4l86.9,3.7,106.8-127.2-8.2-60.9-178-103.4-71.8,47.2-26.4,69.8,4.2-10.1Z"/>
    </clipPath>
    <linearGradient id="Degradado_sin_nombre_191" data-name="Degradado sin nombre 191" x1="74.9" y1="281.3" x2="146.3" y2="281.3" gradientUnits="userSpaceOnUse">
      <stop offset="0" stop-color="#bbc6d8" stop-opacity=".5"/>
      <stop offset=".4" stop-color="#bbc6d8" stop-opacity=".5"/>
      <stop offset="1" stop-color="#c2cfe0" stop-opacity=".6"/>
    </linearGradient>
    <linearGradient id="Degradado_sin_nombre_170" data-name="Degradado sin nombre 170" x1="187.5" y1="338.1" x2="251.2" y2="338.1" gradientUnits="userSpaceOnUse">
      <stop offset="0" stop-color="#cad8e8" stop-opacity=".7"/>
      <stop offset="1" stop-color="#dff2ff"/>
    </linearGradient>
    <linearGradient id="Degradado_sin_nombre_177" data-name="Degradado sin nombre 177" x1="121.7" y1="391.4" x2="208.9" y2="391.4" gradientUnits="userSpaceOnUse">
      <stop offset="0" stop-color="#b5bfd2" stop-opacity=".4"/>
      <stop offset="1" stop-color="#cddceb" stop-opacity=".7"/>
    </linearGradient>
    <linearGradient id="Degradado_sin_nombre_197" data-name="Degradado sin nombre 197" x1="144.8" y1="265.6" x2="227.2" y2="274.3" gradientUnits="userSpaceOnUse">
      <stop offset=".3" stop-color="#ccdbea" stop-opacity=".7"/>
      <stop offset="1" stop-color="#ccdbea" stop-opacity=".7"/>
    </linearGradient>
    <linearGradient id="Degradado_sin_nombre_207" data-name="Degradado sin nombre 207" x1="118.8" y1="325.4" x2="188.5" y2="325.4" gradientUnits="userSpaceOnUse">
      <stop offset="0" stop-color="#b5bfd2" stop-opacity=".4"/>
      <stop offset="1" stop-color="#d3e4f2" stop-opacity=".8"/>
    </linearGradient>
    <linearGradient id="Degradado_sin_nombre_204" data-name="Degradado sin nombre 204" x1="227.5" y1="286.6" x2="247.7" y2="286.6" gradientUnits="userSpaceOnUse">
      <stop offset="0" stop-color="#cedcec" stop-opacity=".8"/>
      <stop offset="1" stop-color="#dff2ff"/>
    </linearGradient>
    <linearGradient id="Degradado_sin_nombre_2-2" data-name="Degradado sin nombre 2" x1="160" y1="225.7" x2="123.5" y2="246.8" xlink:href="#Degradado_sin_nombre_2"/>
    <linearGradient id="Degradado_sin_nombre_170-2" data-name="Degradado sin nombre 170" x1="202.2" y1="392.7" x2="235.2" y2="392.7" xlink:href="#Degradado_sin_nombre_170"/>
    <linearGradient id="Degradado_sin_nombre_66-2" data-name="Degradado sin nombre 66" x1="1816.5" y1="490.7" x2="1913.3" y2="490.7" xlink:href="#Degradado_sin_nombre_66"/>
    <linearGradient id="Degradado_sin_nombre_54" data-name="Degradado sin nombre 54" x1="1992.2" y1="490.5" x2="2088.7" y2="490.5" gradientUnits="userSpaceOnUse">
      <stop offset="0" stop-color="#d8eaf8" stop-opacity=".9"/>
      <stop offset="1" stop-color="#dff2ff"/>
    </linearGradient>
    <linearGradient id="Degradado_sin_nombre_77" data-name="Degradado sin nombre 77" x1="1957.8" y1="595.2" x2="2060.4" y2="595.2" gradientUnits="userSpaceOnUse">
      <stop offset="0" stop-color="#d1e1f1" stop-opacity=".8"/>
      <stop offset="1" stop-color="#dff2ff"/>
    </linearGradient>
    <linearGradient id="Degradado_sin_nombre_57" data-name="Degradado sin nombre 57" x1="1844.6" y1="595.2" x2="1948.1" y2="595.2" gradientUnits="userSpaceOnUse">
      <stop offset="0" stop-color="#b5bfd2" stop-opacity=".4"/>
      <stop offset="1" stop-color="#cbdae9" stop-opacity=".7"/>
    </linearGradient>
    <linearGradient id="Degradado_sin_nombre_27" data-name="Degradado sin nombre 27" x1="1888.3" y1="425.1" x2="2016.5" y2="425.1" gradientUnits="userSpaceOnUse">
      <stop offset="0" stop-color="#b5bfd2" stop-opacity=".4"/>
      <stop offset="1" stop-color="#dff2ff"/>
    </linearGradient>
    <linearGradient id="Degradado_sin_nombre_27-2" data-name="Degradado sin nombre 27" x1="1902.1" y1="523.5" x2="2003.3" y2="527" xlink:href="#Degradado_sin_nombre_27"/>
    <linearGradient id="Degradado_sin_nombre_80" data-name="Degradado sin nombre 80" x1="2019.3" y1="420.6" x2="2041.2" y2="407.5" gradientUnits="userSpaceOnUse">
      <stop offset="0" stop-color="#d1e1f0" stop-opacity=".8"/>
      <stop offset="1" stop-color="#dff2ff"/>
    </linearGradient>
    <linearGradient id="Degradado_sin_nombre_69" data-name="Degradado sin nombre 69" x1="1848" y1="413.5" x2="1900.8" y2="413.5" gradientUnits="userSpaceOnUse">
      <stop offset="0" stop-color="#b5bfd2" stop-opacity=".4"/>
      <stop offset="1" stop-color="#c2cedf" stop-opacity=".6"/>
    </linearGradient>
    <linearGradient id="Degradado_sin_nombre_72" data-name="Degradado sin nombre 72" x1="1822" y1="563.3" x2="1833.8" y2="559" gradientUnits="userSpaceOnUse">
      <stop offset="0" stop-color="#b5bfd2" stop-opacity=".4"/>
      <stop offset="1" stop-color="#bfcbdc" stop-opacity=".5"/>
    </linearGradient>
  </defs>
  <g class="cls-21">
    <g id="BACKGROUND">
      <g class="cls-44">
        <g>
          <polyline class="cls-33" points="2071.3 210.6 71.9 314.4 71.9 339.8 2071.3 236"/>
          <polyline class="cls-55" points="2071.3 161.1 71.9 264.9 71.9 314.4 2071.3 210.6"/>
          <polyline class="cls-45" points="2071.3 105.5 71.9 209.4 71.9 264.9 2071.3 161.1"/>
          <polyline class="cls-49" points="2071.3 74.4 71.9 178.2 71.9 209.4 2071.3 105.5"/>
          <polyline class="cls-20" points="2069.2 67.8 71.9 171.5 71.9 178.2 2071.3 74.4"/>
          <polyline class="cls-1" points="2071.3 24.3 1587 49.5 1234.2 67.8 71.9 128.1 71.9 171.5 2069.2 67.8"/>
          <polyline class="cls-18" points="2071.3 0 71.9 0 71.9 49.5 71.9 67.8 71.9 128.1 1234.2 67.8 1587 49.5 2071.3 24.3"/>
          <polyline class="cls-54" points="2071.3 235.5 72.3 339.3 72.3 388.8 2071.3 285"/>
          <polyline class="cls-26" points="2071.3 285 72.3 388.8 72.3 407.7 2071.3 303.9"/>
          <polyline class="cls-2" points="2071.3 303.9 72.3 407.7 72.3 420.5 2071.3 316.7"/>
          <polyline class="cls-61" points="2071.3 316.7 72.3 420.5 72.3 470 2071.3 366.2"/>
          <polyline class="cls-42" points="2071.3 366.2 72.3 470 72.3 525.6 2071.3 421.8"/>
          <polyline class="cls-16" points="2071.3 421.8 72.3 525.6 72.3 556.7 2071.3 452.9"/>
          <polyline class="cls-63" points="2071.3 452.9 72.3 556.7 72.3 563.3 74.3 563.3 2071.3 459.6"/>
          <polyline class="cls-17" points="2071.3 459.6 74.3 563.3 72.3 563.5 72.3 581.7 72.3 606.8 556.5 581.7 909.2 563.3 2071.3 503"/>
          <polyline class="cls-3" points="2071.3 503 909.2 563.3 556.5 581.7 72.3 606.8 72.3 631.1 2071.3 631.1"/>
          <rect class="cls-31" x="113.2" y="81.6" width="2007.8" height="631"/>
        </g>
      </g>
      <rect class="cls-10" x="116.2" y="81.6" width="1914" height="468.8"/>
    </g>
    <g id="OBJECTS">
      <g class="cls-29">
        <g class="cls-19">
          <g>
            <path class="cls-36" d="m1952.4,322.2l15.6,21.5,7.3,10c-2.9,7.5-5.1,15-7.3,22.4-2.4,8.1-4.7,15.7-7.7,23l-26.5,8.5-9.9,3.2c-5-6.8-9.2-14.1-13.3-21.2-1.4-2.5-2.9-5-4.3-7.5-.8-1.3-.7-3.1-.6-5.1,0-.3,0-.5,0-.8.5-13.1,5.3-24.7,12.3-38.1.7-1.4,1.9-2.4,3.4-3.1,8.1-3.3,16.2-6.7,24.4-10.1l6.7-2.8m1-3.7c-11.3,4.7-22.3,9.3-33.2,13.8-2.2.9-3.9,2.4-5,4.5-6.5,12.4-12.1,25.1-12.6,39.4-.1,2.6-.4,5.2,1,7.5,6.1,10.2,11.5,20.8,19.1,30.7,13.2-4.2,26.1-8.4,39.8-12.8,6.4-15.3,9.7-32,16.2-48.3-8.3-11.4-16.6-22.9-25.2-34.8h0Z"/>
            <path class="cls-62" d="m2066.6,322.2c2.4,1,4.8,2,7.2,3,8.1,3.4,15.7,6.5,23.4,9.7,2.3.9,3.6,2.7,4.9,5.1,4.8,8.8,8.3,18.4,10.7,29.5,1.7,7.9.8,13.6-3.2,18.4-2,2.4-3.4,5.1-4.8,7.7-.8,1.5-1.5,2.9-2.4,4.3-.8,1.3-1.5,2.5-2.2,3.8-1.4,2.6-2.8,5-4.6,7.2l-36.7-11.3c-.6-1.7-1.2-3.4-1.7-5-4.6-13.3-9.3-27-13.2-41.1l22.6-31.1m-1-3.7c-8.4,11.6-16.7,23-24.8,34.2,4.6,16.9,10.3,32.8,15.9,49.1,13.3,4.1,26.5,8.2,40,12.3,3.7-3.8,5.8-8.5,8.4-12.8,2.4-3.9,4.1-8.2,6.9-11.7,5.2-6.4,5.4-13.6,3.8-20.9-2.3-10.5-5.8-20.7-11-30.2-1.5-2.8-3.3-5.2-6.4-6.4-10.7-4.4-21.4-8.8-32.8-13.6h0Z"/>
            <path class="cls-14" d="m2055.2,411.2l18.6,6.2,17.4,5.8s0,0,0,0c.1,1,.2,1.7.2,2.3-.6,9.5-1.3,18.6-2.1,29.6-.2,2.7-1.5,5-4.1,7.6-10.5,10.3-21.6,17.9-33.9,23.3-11-2.3-22.7-4.9-34.6-8.3v-39c12.9-10,26.1-19.2,38.6-27.8m-.5-3.3c-14,9.6-27.6,19.2-41.1,29.6v42.8c12.6,3.7,25.2,6.5,37.9,9.1,13.6-5.8,25.3-14.1,35.7-24.3,2.7-2.7,4.7-5.7,5-9.6.7-9.9,1.5-19.8,2.1-29.6,0-1.4-.2-2.8-.4-4.8-13-4.4-26.1-8.7-39.2-13.1h0Z"/>
            <path class="cls-51" d="m1964.6,409l30.8,22.2,8.7,6.3c1.4,13.4,1,36.1-.8,42.7l-20.9,4.8-14.5,3.4c-12.9-5.5-25.7-14.1-35.2-23.7-3.6-3.6-5.3-7.5-5.3-12.2,0-5.3-.5-10.9-1.4-17.1-.7-4.7-.8-9-.2-13.3,7.5-3.5,15.3-5.9,22.9-8.1,5.2-1.5,10.7-3.1,15.8-5.1m.1-1c-12.8,5-26.6,7.3-39.7,13.6-.8,5.1-.6,9.7,0,14.1.9,5.6,1.4,11.3,1.4,16.9,0,5.1,1.9,9.2,5.6,12.8,9.3,9.3,22.1,18.2,35.8,24,11.7-2.7,24.1-5.6,36.2-8.4,2-6.1,2.5-30.2,1-44-13.1-9.4-26.6-19.2-40.3-29.1h0Z"/>
            <path class="cls-15" d="m2009.7,284.5c7.7,0,15.5,1,23.1,3.1l.7.8c8,8.9,15.6,17.4,22.6,26.4l-22,30.3h-49.2l-10.6-14.6-11.5-15.9,23.4-27c7.9-2,15.8-3,23.5-3m0-3c-8.3,0-16.6,1.1-25.2,3.4-8.3,9.5-16.8,19.3-25.6,29.5,8.3,11.5,16.2,22.4,24.4,33.7h52.3c7.8-10.8,15.8-21.8,24.2-33.4-7.9-10.3-16.6-19.9-25.4-29.8-8.2-2.3-16.4-3.4-24.7-3.4h0Z"/>
            <path class="cls-4" d="m2049.2,402.6c-4.8-15.6-8.8-31.2-15-46.2h-49.6c-5,15.2-10,30.4-15.2,46.3,13.5,9.8,26.6,19.4,39.9,29.1,13.9-9.4,26.8-19,39.8-29.2Z"/>
            <path class="cls-5" d="m2049.5,290.5c5.6,10.2,16.8,20.9,26.1,24.8,5.1,2.2,10.3,4.3,16,6.7-4.3-11-29.3-29.3-42.1-31.5Z"/>
            <path class="cls-51" d="m2009.2,488.9c8,0,15.9,1.7,24.3,5.1-8.2,2.1-16.1,3.2-24,3.2s-15.7-1-23.9-3.1c7.8-3.4,15.6-5.1,23.6-5.1m0-.9c-8.9,0-17.6,2.1-26.3,6.3,9.1,2.5,17.8,3.8,26.6,3.8s17.6-1.3,26.9-3.9c-9.3-4.1-18.3-6.2-27.2-6.2h0Z"/>
            <path class="cls-43" d="m1968.8,290.7c-12.8,2.8-33.9,18.1-41.5,30,16.9-2.5,35.3-15.8,41.5-30Z"/>
            <path class="cls-51" d="m1903.3,399.9c11.6,14,16.2,28.4,14.4,45-8.1-13-12.7-27.5-14.4-45m-1.2-2.8c1.3,17.7,5.6,34.5,16.2,50.5,2.9-20.4-3.7-36.4-16.2-50.5h0Z"/>
            <path class="cls-51" d="m2114.5,401c-.1,16.1-6.6,35.9-14.1,43.4.8-4.1.9-8.1,1-11.9,0-3.1.2-6,.6-8.9.3-1.8.6-3.8,1.5-5.3,3-4.9,6.1-9.8,9.2-14.5.6-.9,1.2-1.8,1.8-2.8m.9-3.1c-4.2,6.6-8.6,13.2-12.6,19.9-1,1.6-1.4,3.7-1.6,5.7-1.1,7.5,0,15.1-2.2,23.4,9-6,17.4-30.3,16.5-48.9h0Z"/>
          </g>
        </g>
        <g class="cls-50">
          <g>
            <path class="cls-57" d="m1813.3,556.2c3.6,0,6.8,0,9.7.3l16.1,22,5.1,6.9c-4.6,6.5-9.8,12.4-14.9,18.1-1.8,2-3.6,4.1-5.4,6.1-.9,1.1-2.5,1.5-4.3,2-.2,0-.5.1-.7.2-5.3,1.5-11,2.3-17.3,2.3s-14.4-1-20.4-1.9c-1.5-.2-2.7-.9-3.7-2.1-5.4-6.2-10.8-12.4-16.3-18.8l-4.4-5,11.7-16.3,9.5-13.3c2.6.1,5.4.2,8.4.2,4.6,0,9.2-.1,13.7-.3,4.3-.1,8.8-.3,13.1-.3m0-3c-8.8,0-17.7.5-26.8.5s-6.6,0-9.9-.3c-7.7,10.8-15.5,21.6-23.6,32.9,7.6,8.7,14.9,17.2,22.2,25.6,1.5,1.7,3.3,2.7,5.5,3.1,6.9,1.1,13.9,2,20.8,2s12.1-.7,18.1-2.4c2.3-.7,4.7-1.2,6.4-3.1,7.3-8.5,15.2-16.5,21.7-26.2-7.7-10.5-15.3-20.8-23.3-31.8-3.7-.3-7.5-.4-11.3-.4h0Z"/>
            <path class="cls-6" d="m1762.6,425.1c2,0,3.9.4,5.8,1.1,2.7,1,5.6,1.5,8.3,2,1.6.3,3.1.5,4.5.9,1.4.3,2.7.6,4.1.8,2.7.5,5.2,1,7.6,1.9l.5,23.4.3,12.5c-1.3,1-2.6,2-3.9,3-10.5,8-21.3,16.3-32.7,24l-34.3-10.9c.2-2.4.4-4.8.5-7.2.6-8.2,1.2-15.9,1.7-23.8.1-2,1-3.6,3-5.8,6.4-6.9,14-12.8,23.1-18.3,4.2-2.5,7.9-3.7,11.4-3.7m0-3c-4.6,0-8.8,1.7-12.9,4.1-8.7,5.2-16.8,11.4-23.8,18.8-2.1,2.2-3.6,4.5-3.8,7.7-.7,10.9-1.5,21.8-2.4,33.3,12.9,4.1,25.5,8.1,38,12,13.7-9.2,26.3-19,39.2-28.8-.3-13.1-.6-26.2-.9-39.4-4.5-2.2-9.3-2.6-13.9-3.7-4.2-1-8.6-1.2-12.5-2.7-2.4-.9-4.7-1.3-6.9-1.3h0Z"/>
            <path class="cls-47" d="m1837.1,424.1c1.8,0,3.6.5,5.8,1.7,12.3,6.3,22.4,13.9,30.9,23.3,1.2,10.5,2.4,21.7,2.9,33.2l-34.7,11.5c-12.7-8.6-24.8-17.6-36.1-26.1v-9.4s0-26.2,0-26.2c.8-.4,1.4-.7,2-.8,8.7-2.3,17.1-4.4,27.1-6.9.7-.2,1.4-.3,2.1-.3m0-3c-.9,0-1.9.1-2.9.4-9.1,2.3-18.1,4.6-27.1,6.9-1.3.3-2.4,1-4.2,1.8,0,13,0,25.9,0,39,12.8,9.7,25.4,19,38.7,27.9,13-4.3,25.4-8.5,38.2-12.7-.5-12.4-1.7-24.5-3.1-36.6-9.2-10.5-20.1-18.5-32.4-24.7-2.3-1.2-4.7-2-7.2-2h0Z"/>
            <path class="cls-51" d="m1882.8,493.5l3.3,5.4,14.6,23.9c-1.1,13.2-5,27.2-10.7,38.5-2.2,4.3-5.1,7-9.3,8.4-4.7,1.6-9.6,3.6-14.8,6.3-4,2-7.8,3.4-11.9,4.1-5.4-5.6-9.8-11.9-14-18-2.9-4.2-6-8.6-9.3-12.6l6.4-20.6,7.3-23.3c11.5-5.3,32.1-11.6,38.5-12m.5-.9c-6,0-27.7,6.8-39.6,12.3-4.5,14.5-9.2,29.5-14,44.7,8.2,9.9,14.4,21.6,24,31.4,4.8-.8,8.8-2.4,12.6-4.3,4.8-2.4,9.6-4.6,14.7-6.3,4.6-1.5,7.6-4.5,9.8-8.8,5.6-11.1,9.7-25.1,10.8-39.1-5.9-9.7-12.1-19.9-18.3-29.9h0Z"/>
            <path class="cls-37" d="m1719.3,495.9l12.2,3.8,21.3,6.7,3.8,11.3,10.8,32.6-8.9,12.3-11.8,16.3-10.8-4.5-20.1-8.3c-8.4-13.1-12.9-26.7-13.8-41.5l.4-.8c5.6-9.8,10.8-19,16.8-28m-1.2-3.5c-6.9,10.2-12.9,20.8-19.1,31.6.8,16,5.7,30.7,14.8,44.6,11,4.5,22.3,9.2,34,14.1,7.8-10.8,15.2-21.2,22.9-31.8-5.1-15.4-10.3-30.8-15.6-46.8-12-3.8-24.2-7.6-37-11.7h0Z"/>
            <path class="cls-64" d="m1799.8,475.7c-12.5,9-25.2,17.1-36.9,27.1,4.9,14.8,9.7,29.2,14.8,44.4,15.1,0,30.2-.1,45.9-.2,4.8-15,9.4-29.6,14.2-44.4-12.6-9.6-25-18.3-37.9-26.9Z"/>
            <path class="cls-11" d="m1699.4,508.8c7.5-8,13.7-21.2,14.4-30.7.4-5.2.8-10.5,1.2-16.3-8.5,7.1-17.5,34.9-15.6,47Z"/>
            <path class="cls-51" d="m1886.1,462.4c8.6,13.3,13.2,27.1,14.3,43-10.7-11.9-15.4-26-14.3-43m-.7-2.5c-1.8,19.2,3.4,34.8,16,47.8-.9-17.8-5.8-32.9-16-47.8h0Z"/>
            <path class="cls-59" d="m1731.2,585.6c8.9,3.1,18,9.6,24.2,17.4-8.5-4.1-18-10.9-24.2-17.4m-7.5-4.7c6.3,10.6,26.2,24.9,39.2,28.2-7.3-14.4-24.6-26.9-39.2-28.2h0Z"/>
            <path class="cls-51" d="m1876.7,580.7c-9.2,11.2-20.8,19.6-36.1,26.4,9.1-14.5,20.6-23,36.1-26.4m2.1-1.3c-19.1,3.5-31.4,14.2-40.3,29.5,15.5-6.5,29.2-15.3,40.3-29.5h0Z"/>
            <path class="cls-24" d="m1775.9,417.9c7.2,1.8,14.3,3.7,21.5,5.4,1.8.4,3.7.1,5.6-.2,7-1.3,13.5-4.4,21.6-5-8.1-6.2-32.2-6.5-48.6-.2Z"/>
          </g>
        </g>
        <g>
          <path class="cls-51" d="m243.5,100.9c3.8,0,7.5.1,11.2.2,2.5,0,5.1.2,7.6.2,1.9,0,3.5,1.1,5.1,2.2l.6.4c10.5,7,17.5,17.4,23.6,27.5,1,1.6,1.3,3.4,1,5.3-1.2,7.6-2.4,15.3-3.7,23l-1.2,7.8-22.1,1.7-14.7,1.1c-4.4-5.9-9.3-11.3-14-16.6-5.2-5.8-10.1-11.3-14.4-17.3l6.3-25.7,2.3-9.3c3.8-.4,7.8-.5,12.5-.5m0-.8c-4.3,0-8.7.1-13.1.6-2.9,11.9-5.8,23.5-8.8,35.9,8.6,11.9,19.6,22.2,28.9,34.6,12.5-1,24.9-1.9,37.9-2.9,1.7-10.7,3.3-21.1,5-31.5.3-2.1,0-4-1.1-5.8-6.3-10.6-13.3-20.7-23.8-27.8-1.9-1.3-3.7-2.7-6.1-2.7-6.2,0-12.5-.4-18.8-.4h0Z"/>
          <path class="cls-8" d="m178.5,210.7c1.5.3,2.9.7,4.4,1,12.6,2.8,24.6,5.5,36.9,9l12.8,31.1c-1.8,1.3-3.6,2.6-5.4,3.9-6.3,4.5-12.2,8.8-18.1,13.2-1.3.9-2.7,1.3-4.7,1.3s-.7,0-1.1,0c-7.4-.4-17.4-2.8-29.7-7-4.8-1.7-5.7-3.1-9.1-8.6l-.8-1.3c-2-3.2-8.3-15-10.4-20.4l13.1-11.5,12.1-10.7m-.8-3.3c-9.3,8.1-18.5,16.2-27.8,24.5,1.2,4.6,9.3,19.5,11.3,22.9,4,6.5,5.1,8.9,11.4,11.1,9,3.1,20.9,6.7,30.5,7.2.4,0,.9,0,1.3,0,2.3,0,4.5-.4,6.5-1.9,8.3-6.1,16.6-12,25.4-18.4-4.8-11.7-9.6-23.2-14.3-34.6-14.9-4.3-29.5-7.4-44.4-10.8h0Z"/>
          <path class="cls-9" d="m138.9,142.5l29,17.9c1.5,14.2,2.4,28.4,3,41.6l-13.1,11-12.4,10.4c-.7-.3-1.3-.6-1.6-.9-6.9-4.9-13.4-9.6-21.3-15.3-1.9-1.3-3-3.3-3.7-6.4-2.9-12.6-3.5-24.4-1.9-36.2,6.8-7.1,14.1-14.7,22-21.9m-.4-3.7c-8.6,7.8-16.6,16-24.4,24.3-1.9,13-1.1,25.6,1.8,38.2.8,3.3,2.1,6.2,4.9,8.2,7.1,5.1,14.2,10.3,21.4,15.3,1,.7,2.2,1.1,3.8,1.9,9.3-7.8,18.7-15.6,28.1-23.5-.8-15-1.7-29.7-3.3-44.7-11-6.8-21.4-13.2-32.2-19.8h0Z"/>
          <path class="cls-51" d="m191.8,84.4c2.7,0,5.1.7,7.5,2.2,4,2.4,8.4,4.7,13.5,6.8,3.9,1.7,7.1,3.6,10.1,6.1-.8,7.3-2.7,14.3-4.5,21-1.3,4.7-2.6,9.5-3.5,14.3l-1.2.5-38.7,16.1c-10.7-5.1-27.7-16-31.9-20.4l10.3-30.5c10.1-7.2,22.6-12.9,34.1-15.6,1.5-.3,2.8-.5,4.1-.5m0-.8c-1.4,0-2.8.2-4.3.5-11.3,2.7-23.9,8.2-34.6,15.9-3.4,10.1-7,20.7-10.5,31.2,3.6,4.3,21.6,15.9,32.7,21.1,13.2-5.5,26.8-11.2,40.6-16.9,2.2-11.9,6.8-23.4,8.1-36.2-3.5-2.9-7-4.9-10.7-6.5-4.6-2-9.1-4.2-13.4-6.8-2.6-1.6-5.2-2.3-7.9-2.3h0Z"/>
          <path class="cls-27" d="m286.7,177.5l6.9,21.7,2.5,8c-4.3,13.8-11.3,25.2-21.4,34.8h-.8c-10.3,2-20.1,3.8-30.1,4.9l-8.9-21.4-3.6-8.8,10.3-16.8,12.3-20,19.7-1.5,13.1-1m2.1-3.2c-12.5.9-24.4,1.8-36.7,2.7-8,13-16,26-24.2,39.4,4.5,10.9,9.1,22,13.9,33.7,11.5-1.2,22.7-3.3,34.2-5.4,11-10.2,18.6-22.6,23.1-37.6-3.4-10.6-6.8-21.6-10.4-32.9h0Z"/>
          <path class="cls-39" d="m180.6,201.5c14,3.6,27.6,7.8,41.8,10.1,7.7-12.5,15.1-24.6,23-37.4-9.2-10.8-18.3-21.6-27.9-32.9-13.6,5.6-27,11.1-40.4,16.6.7,14.8,1.9,29,3.5,43.5Z"/>
          <path class="cls-34" d="m264.9,253.7c-10.3-.5-23.5,3-30.8,8.2-4,2.9-8,5.8-12.4,9,10.3,1.8,35.6-8.5,43.2-17.1Z"/>
          <path class="cls-51" d="m141.1,111.2c-2.1,14.9-9.4,26.8-22.2,36.3,4.4-14.2,11.5-25.9,22.2-36.3m1-2.1c-12.2,11.4-20.1,24-24.7,40.4,14.9-10.3,23-23.5,24.7-40.4h0Z"/>
          <path class="cls-51" d="m298.8,149.5c4.5,11,6,30.7,3.1,41.3-6.7-10.8-8-28.3-3.1-41.3m0-2c-6,13.9-4.5,33.9,3.4,45.2,3.8-10.9,2.1-33.9-3.4-45.2h0Z"/>
          <path class="cls-51" d="m210.1,82.8c13.4,0,26.3,3.2,40.1,10-3.3.5-6.4.7-9.4.7-11.7,0-22-3.5-31.3-10.7.2,0,.4,0,.6,0m0-.8c-.9,0-1.9,0-2.8,0,10.5,8.8,21.7,12.3,33.5,12.3s7.9-.4,12-1.1c-13.2-6.8-27-11.2-42.7-11.2h0Z"/>
          <path class="cls-52" d="m153.4,253.6c-3-6.3-5.9-12.5-9.1-18.7-.8-1.5-2.2-2.8-3.5-3.9-5.2-4.3-11.4-7-16.6-12.5.4,9.6,14.8,27.1,29.2,35.1Z"/>
        </g>
        <g class="cls-30">
          <g>
            <path class="cls-13" d="m108.1,248.5c.2,0,.4,0,.6,0,7.7.7,15.5,1.4,23.3,2.1l6,.5,5,33.6c-5.3,4.7-10.1,9.6-14.8,14.4-5.2,5.3-10,10.3-15.3,14.8l-33-5.7c-1.1-7.3-1.4-14.7-1.7-21.8-.1-2.5-.2-5.1-.3-7.7,0-1.3.7-2.5,1.5-4,.1-.2.2-.4.4-.6,5.7-10,14.2-17.1,25.1-24.7.9-.7,2-1,3.1-1m0-3c-1.8,0-3.4.5-4.9,1.5-10.1,7.1-19.7,14.7-26,25.7-1.1,2-2.4,3.9-2.3,6.3.6,10.5.5,21,2.4,31.9,12.1,2.1,23.9,4.1,36.4,6.3,11.2-9.4,20.7-21.1,32.5-31.2-1.8-12.4-3.7-24.7-5.6-37.6-10.8-1-21.3-1.9-31.7-2.8-.3,0-.6,0-.9,0h0Z"/>
            <path class="cls-35" d="m227.9,298c1.4,1.7,2.8,3.4,4.2,5.1,4.9,5.9,9.6,11.5,14.4,17.2,1.2,1.4,1.6,3,1.7,5.8.1,8.8-1.1,17.8-3.7,27.4-1.5,5.5-3.9,7.9-10.6,13.3-2.6,2.2-14.2,9.3-19.4,11.7l-8.8-8.7-15-14.9c.2-1.5.5-3,.7-4.5,1.9-12.8,3.8-24.9,6.4-37.5l24.9-12.4,5.1-2.6m.8-3.7c-11.4,5.6-22.5,11.2-33.5,16.6-3.3,15.1-5.4,30-7.7,45,8.8,8.7,17.5,17.3,26.3,26,4.4-1.5,19-10.4,22-12.9,6.8-5.6,9.8-8.4,11.5-14.9,2.5-9.2,3.9-18.6,3.8-28.2,0-2.8-.5-5.4-2.4-7.7-6.6-7.8-13.2-15.7-20.1-24.1h0Z"/>
            <path class="cls-46" d="m182.4,363.1l11.9,12.4,11.1,11.6c-.3.7-.5,1.3-.7,1.7-4.4,7.2-8.7,14.1-13.8,22.4-1.2,1.9-3.1,3.2-6.2,4.2-10.2,3.1-19.8,4.6-29.6,4.6s-4.2,0-6.4-.2c-7.6-6.3-15.6-13-23.4-20.4l12.7-24.4,3-5.8c14.1-2.5,28.1-4.3,41.2-5.9m1.1-3.2c-14.9,1.8-29.5,3.7-44.3,6.4-6,11.4-11.6,22.3-17.5,33.5,8.4,8.1,17.1,15.4,25.9,22.7,2.5.2,5,.3,7.5.3,10.4,0,20.5-1.7,30.5-4.7,3.2-1,6-2.5,7.8-5.5,4.6-7.4,9.2-14.9,13.8-22.4.6-1,1-2.3,1.7-4-8.4-8.8-16.9-17.5-25.4-26.4h0Z"/>
            <path class="cls-51" d="m76.7,318.3c7.3.3,14.4,1.7,21.3,3,4.8.9,9.7,1.9,14.5,2.5l11.6,23.2,7.7,15.4c-4.4,11.1-14.1,28.8-18.2,33.2l-31.1-8.1c-7.9-9.6-14.4-21.6-17.9-33-1.3-4.3-1.1-8.1.8-11.7,2.2-4.2,4.1-8.7,5.9-13.9,1.4-4,3.1-7.4,5.3-10.5m-.4-.8c-2.7,3.7-4.4,7.4-5.7,11.1-1.6,4.8-3.5,9.4-5.8,13.8-2.1,4-2.2,8-.9,12.3,3.4,11.1,9.9,23.3,18.2,33.5,10.3,2.7,21.1,5.5,31.8,8.3,4-3.9,14.3-22.7,18.8-34.1-6.4-12.8-13-25.9-19.7-39.3-12-1.3-23.8-5.1-36.7-5.6h0Z"/>
            <path class="cls-56" d="m179.1,237.8c14.1,3.4,26,9.6,36.2,18.9l.2.8c2.6,10.2,5,19.8,6.9,29.7l-16.7,8.3-12.6,6.3-38.3-20-4.7-32.6,24.9-9.8,4.1-1.6m-.2-3.1c-10.4,4.1-21.1,8.3-32.1,12.7,1.8,12.4,3.5,24.2,5.3,36.4,13.5,7.1,27,14.1,41,21.4,10.6-5.3,21.3-10.6,32.6-16.3-2-11.4-4.8-22.4-7.7-33.8-11-10.3-23.8-17-39.1-20.5h0Z"/>
            <path class="cls-60" d="m181.3,353.5c2.6-14.2,5.9-28,7.2-42.4-13-6.8-25.6-13.4-38.9-20.3-10.1,9.9-20.3,19.8-30.8,30.1,6.5,13.2,12.9,26.1,19.4,39.2,14.7-1.7,28.8-3.9,43.2-6.6Z"/>
            <path class="cls-65" d="m227.5,265.7c.2,10.3,4.6,23.3,10.3,30.1,3.2,3.8,6.3,7.6,9.8,11.8,1.1-10.4-11-35-20.1-41.9Z"/>
            <path class="cls-51" d="m94,399.1c15,1,27.4,7.5,37.8,19.7-14.5-3.4-26.6-9.7-37.8-19.7m-2.2-.9c12.2,11.4,25.4,18.4,42,21.8-11.3-14.2-25-21.3-42-21.8h0Z"/>
            <path class="cls-58" d="m164.1,232.8c-11.2-3-34,.3-44.9,6.5,14.3,5,34.2,2.1,44.9-6.5Z"/>
            <path class="cls-51" d="m68.1,291.5c3.4,15.8,1.1,29-7.2,41.4-1.1-13.6,1.2-26.9,7.2-41.4m.2-2.6c-6.2,14.5-9.7,29.4-8,46.2,10.7-14.8,12-30.1,8-46.2h0Z"/>
            <path class="cls-25" d="m235.2,376.9c-6,3.4-12.1,6.8-18,10.4-1.4.9-2.6,2.4-3.6,3.8-3.9,5.4-6.2,11.8-11.3,17.4,9.5-1,26-16.6,33-31.6Z"/>
          </g>
        </g>
        <g>
          <path class="cls-12" d="m1880.2,433.4l15,20.7,14.7,20.3c-3.7,9.6-6.6,19.4-9.5,28.8-3.1,10.4-6.1,20.2-9.9,29.7l-47.2,15.2c-6.6-8.9-12-18.3-17.3-27.5-1.8-3.1-3.6-6.4-5.5-9.5-1.1-1.9-1-4.2-.9-6.9,0-.3,0-.7,0-1,.7-16.8,6.8-31.6,15.7-48.8,1-2,2.6-3.4,4.8-4.3,10.3-4.3,20.5-8.5,31-12.9l9.1-3.8m1-3.7c-14.4,6-28.3,11.8-42.3,17.6-2.8,1.2-4.9,3-6.3,5.7-8.2,15.8-15.3,31.9-16.1,50-.1,3.2-.5,6.6,1.3,9.5,7.7,13,14.7,26.5,24.3,39,16.7-5.4,33.1-10.7,50.6-16.3,8.1-19.4,12.4-40.7,20.6-61.4-10.6-14.5-21.1-29.1-32.1-44.2h0Z"/>
          <path class="cls-28" d="m2024.9,433.4c3.3,1.4,6.5,2.7,9.7,4.1,10.2,4.3,19.9,8.3,29.7,12.3,3.1,1.3,4.9,3.7,6.7,6.8,6.1,11.2,10.6,23.5,13.7,37.7,2.3,10.3,1,17.7-4.2,24.1-2.4,3-4.2,6.4-6,9.7-1,1.9-2,3.7-3.1,5.5-1,1.6-1.9,3.2-2.8,4.8-1.9,3.5-3.8,6.7-6.3,9.6l-20.1-6.2-27.4-8.4c-.8-2.3-1.6-4.5-2.3-6.8-5.9-17-11.9-34.6-16.9-52.7l8-10.9,21.4-29.5m-1-3.7c-10.7,14.7-21.2,29.2-31.6,43.5,5.9,21.5,13.1,41.7,20.2,62.4,16.9,5.2,33.7,10.4,50.8,15.6,4.7-4.8,7.3-10.8,10.7-16.3,3-4.9,5.2-10.4,8.8-14.8,6.6-8.2,6.9-17.3,4.8-26.6-2.9-13.4-7.4-26.3-14-38.4-1.9-3.6-4.2-6.6-8.2-8.2-13.6-5.5-27.2-11.2-41.6-17.2h0Z"/>
          <path class="cls-22" d="m2010.5,546.7l30.3,10.2,16.3,5.4c0,.2,0,.4,0,.6.2,1.3.3,2.3.2,3.1-.8,12.1-1.7,23.7-2.7,37.7-.3,3.6-2,6.8-5.5,10.2-13.4,13.2-27.7,23-43.6,29.9-14.3-3-29.5-6.4-44.8-10.8v-50.6c16.7-12.9,33.7-24.8,49.7-35.8m-.5-3.3c-17.8,12.2-35.1,24.4-52.2,37.6v54.3c16.1,4.7,32.1,8.3,48.1,11.6,17.3-7.4,32.2-17.9,45.4-30.9,3.5-3.4,6-7.2,6.4-12.2.9-12.6,1.9-25.1,2.7-37.7.1-1.7-.3-3.5-.5-6.2-16.6-5.5-33.2-11.1-49.9-16.7h0Z"/>
          <path class="cls-23" d="m1895.2,546.8l27.5,19.8,21.3,15.4c1.7,17,1,43.1-.8,51.8l-22.9,5.3-20.5,4.7c-16-6.9-31.9-17.6-43.6-29.4-4.3-4.3-6.2-8.7-6.2-14.2,0-6.8-.6-14-1.8-22-.8-5.5-.9-10.4-.3-15.5,9.1-4.2,18.7-7,27.9-9.7,6.4-1.9,13-3.8,19.4-6.2m.4-3.4c-16.2,6.3-33.8,9.3-50.4,17.3-1,6.5-.7,12.3.1,17.9,1.1,7.2,1.8,14.3,1.8,21.5,0,6.5,2.5,11.7,7.1,16.3,11.8,11.9,28.1,23.1,45.5,30.5,14.9-3.4,30.6-7.1,46.1-10.6,2.5-7.7,3.2-38.4,1.2-56-16.6-12-33.8-24.4-51.2-37h0Z"/>
          <path class="cls-40" d="m1952.8,385.7c9.9,0,19.9,1.4,29.8,4l1,1.1c10.3,11.5,20.1,22.4,29.2,34.1l-20.6,28.4-7.9,11h-63.4l-16.2-22.4-12.5-17.3,21.6-25,8.7-10c10.3-2.6,20.4-4,30.3-4m0-3c-10.5,0-21.1,1.4-32,4.3-10.5,12.1-21.3,24.6-32.5,37.5,10.5,14.6,20.6,28.5,31,42.9h66.5c10-13.7,20.1-27.7,30.8-42.4-10.1-13.1-21.1-25.3-32.3-37.9-10.4-2.9-20.9-4.4-31.4-4.4h0Z"/>
          <path class="cls-53" d="m2003,536.7c-6.1-19.8-11.2-39.6-19-58.8h-63.1c-6.3,19.3-12.7,38.7-19.3,58.9,17.1,12.5,33.8,24.7,50.7,37,17.6-12,34-24.2,50.6-37.1Z"/>
          <path class="cls-32" d="m2003.4,394.1c7.1,13,21.4,26.5,33.2,31.5,6.5,2.8,13.1,5.5,20.3,8.5-5.5-13.9-37.2-37.3-53.5-40Z"/>
          <path class="cls-51" d="m1952.2,648.2c8.1,0,16.2,1.4,24.7,4.2-8.2,1.7-16.2,2.6-24.3,2.6s-16-.9-24.3-2.6c7.9-2.8,15.8-4.2,23.9-4.2m0-3c-11.3,0-22.4,2.7-33.4,8,11.5,3.2,22.7,4.8,33.8,4.8s22.4-1.6,34.1-5c-11.9-5.2-23.3-7.9-34.5-7.9h0Z"/>
          <path class="cls-38" d="m1900.8,394.4c-16.2,3.6-43.1,23-52.8,38.2,21.5-3.2,44.9-20.1,52.8-38.2Z"/>
          <path class="cls-41" d="m1816.1,529.6c1.7,22.5,7.1,43.9,20.6,64.1,3.7-25.9-4.8-46.3-20.6-64.1Z"/>
          <path class="cls-51" d="m2083.9,541.2c-1.3,16.2-6.9,32.7-13.2,42.2.3-3,.4-5.9.4-8.8.1-3.9.2-7.5.8-11.1.3-2.1.7-4.5,1.7-6.1,3.3-5.5,6.8-11,10.3-16.3m3.2-10.5c-5.4,8.4-10.9,16.7-16.1,25.2-1.3,2.1-1.7,4.8-2.1,7.2-1.3,9.5,0,19.2-2.8,29.7,11.4-7.7,22.1-38.5,21-62.2h0Z"/>
        </g>
        <g>
          <path class="cls-7" d="m1101.8,376.7c92-15.4,195.3-32.1,287.5-46.3-92,15.4-195.3,32.1-287.5,46.3h0Z"/>
          <path class="cls-7" d="m1239.6,150.5c36.9-6.5,78.1-13.1,115.2-18.3-37,6.5-78.1,13.1-115.2,18.3h0Z"/>
          <path class="cls-7" d="m530.7,316.4c134.7-24.4,286-50.3,421.1-72.2-134.7,24.4-286,50.3-421.1,72.2h0Z"/>
        </g>
        <g>
          <path class="cls-7" d="m341.4,526.5c-109.4,16.5-231.7,33.5-341.4,47.4,109.3-16.5,231.7-33.5,341.4-47.4h0Z"/>
          <path class="cls-7" d="m1581.6,541.7c-38.2,7.5-76.6,13.6-115.2,18.3,38.2-7.5,76.6-13.6,115.2-18.3h0Z"/>
          <path class="cls-7" d="m1839.8,146c-38.2,7.5-76.6,13.6-115.2,18.3,38.2-7.5,76.6-13.6,115.2-18.3h0Z"/>
        </g>
      </g>
    </g>
  </g>
</svg>