<?xml version="1.0" encoding="UTF-8"?>
<svg id="Layer_1" data-name="Layer 1" xmlns="http://www.w3.org/2000/svg" viewBox="0 0 277.5 476.5">
  <defs>
    <style>
      .cls-1 {
        fill: #fff;
      }

      .cls-2 {
        fill: none;
        stroke: #fff;
        stroke-miterlimit: 10;
        stroke-width: 2px;
      }
    </style>
  </defs>
  <g>
    <path class="cls-2" d="m1,97.2V1h29.1l17.5,65.6L64.8,1h29.1v96.2h-18V21.5l-19.1,75.7h-18.7L19,21.5v75.7H1Z"/>
    <path class="cls-2" d="m137.7,97.2L103.4,1h21.1l24.3,71.2L172.3,1h20.6l-34.4,96.2h-20.7Z"/>
    <path class="cls-2" d="m202.8,97.2V1h31.2c11.8,0,19.5.5,23.1,1.4,5.5,1.4,10.1,4.6,13.8,9.4,3.7,4.8,5.6,11.1,5.6,18.7s-1.1,10.9-3.2,14.9c-2.1,4-4.9,7.2-8.2,9.5-3.3,2.3-6.7,3.8-10.1,4.6-4.6.9-11.4,1.4-20.1,1.4h-12.7v36.3h-19.4Zm19.4-79.9v27.3h10.6c7.7,0,12.8-.5,15.4-1.5,2.6-1,4.6-2.6,6.1-4.7,1.5-2.1,2.2-4.6,2.2-7.5s-1-6.4-3.1-8.7c-2.1-2.3-4.7-3.7-7.8-4.3-2.3-.4-7-.7-14-.7h-9.4Z"/>
  </g>
  <g>
    <path class="cls-1" d="m1,356.1v-96.2h29.1l17.5,65.6,17.3-65.6h29.1v96.2h-18v-75.7l-19.1,75.7h-18.7l-19-75.7v75.7H1Z"/>
    <path class="cls-1" d="m137.7,356.1l-34.4-96.2h21.1l24.3,71.2,23.6-71.2h20.6l-34.4,96.2h-20.7Z"/>
    <path class="cls-1" d="m202.8,356.1v-96.2h31.2c11.8,0,19.5.5,23.1,1.4,5.5,1.4,10.1,4.6,13.8,9.4s5.6,11.1,5.6,18.7-1.1,10.9-3.2,14.9c-2.1,4-4.9,7.2-8.2,9.5-3.3,2.3-6.7,3.8-10.1,4.6-4.6.9-11.4,1.4-20.1,1.4h-12.7v36.3h-19.4Zm19.4-79.9v27.3h10.6c7.7,0,12.8-.5,15.4-1.5,2.6-1,4.6-2.6,6.1-4.7,1.5-2.1,2.2-4.6,2.2-7.5s-1-6.4-3.1-8.7c-2.1-2.3-4.7-3.7-7.8-4.3-2.3-.4-7-.7-14-.7h-9.4Z"/>
  </g>
  <g>
    <path class="cls-2" d="m1,226.6v-96.2h29.1l17.5,65.6,17.3-65.6h29.1v96.2h-18v-75.7l-19.1,75.7h-18.7l-19-75.7v75.7H1Z"/>
    <path class="cls-2" d="m137.7,226.6l-34.4-96.2h21.1l24.3,71.2,23.6-71.2h20.6l-34.4,96.2h-20.7Z"/>
    <path class="cls-2" d="m202.8,226.6v-96.2h31.2c11.8,0,19.5.5,23.1,1.4,5.5,1.4,10.1,4.6,13.8,9.4,3.7,4.8,5.6,11.1,5.6,18.7s-1.1,10.9-3.2,14.9c-2.1,4-4.9,7.2-8.2,9.5-3.3,2.3-6.7,3.8-10.1,4.6-4.6.9-11.4,1.4-20.1,1.4h-12.7v36.3h-19.4Zm19.4-79.9v27.3h10.6c7.7,0,12.8-.5,15.4-1.5,2.6-1,4.6-2.6,6.1-4.7,1.5-2.1,2.2-4.6,2.2-7.5s-1-6.4-3.1-8.7c-2.1-2.3-4.7-3.7-7.8-4.3-2.3-.4-7-.7-14-.7h-9.4Z"/>
  </g>
  <g>
    <path class="cls-2" d="m1,475.5v-96.2h29.1l17.5,65.6,17.3-65.6h29.1v96.2h-18v-75.7l-19.1,75.7h-18.7l-19-75.7v75.7H1Z"/>
    <path class="cls-2" d="m137.7,475.5l-34.4-96.2h21.1l24.3,71.2,23.6-71.2h20.6l-34.4,96.2h-20.7Z"/>
    <path class="cls-2" d="m202.8,475.5v-96.2h31.2c11.8,0,19.5.5,23.1,1.4,5.5,1.4,10.1,4.6,13.8,9.4s5.6,11.1,5.6,18.7-1.1,10.9-3.2,14.9c-2.1,4-4.9,7.2-8.2,9.5-3.3,2.3-6.7,3.8-10.1,4.6-4.6.9-11.4,1.4-20.1,1.4h-12.7v36.3h-19.4Zm19.4-79.9v27.3h10.6c7.7,0,12.8-.5,15.4-1.5,2.6-1,4.6-2.6,6.1-4.7,1.5-2.1,2.2-4.6,2.2-7.5s-1-6.4-3.1-8.7c-2.1-2.3-4.7-3.7-7.8-4.3-2.3-.4-7-.7-14-.7h-9.4Z"/>
  </g>
</svg>