<?xml version="1.0" encoding="UTF-8"?>
<svg id="Layer_1" data-name="Layer 1" xmlns="http://www.w3.org/2000/svg" viewBox="0 0 1090.9 259">
  <defs>
    <style>
      .cls-1 {
        fill: #fff;
      }
    </style>
  </defs>
  <path class="cls-1" d="m0,259V0h52.7l31.6,176.7L115.6,0h52.8v259h-32.7V55.1l-34.6,203.9h-33.9L32.7,55.1v203.9H0Z"/>
  <path class="cls-1" d="m247.9,259L185.6,0h38.2l44.1,191.7L310.6,0h37.4l-62.5,259h-37.6Z"/>
  <path class="cls-1" d="m366,259V0h56.5c21.4,0,35.4,1.3,41.9,3.9,10,3.9,18.4,12.3,25.1,25.4s10.1,29.8,10.1,50.4-1.9,29.3-5.8,40.1-8.8,19.3-14.8,25.5c-6,6.2-12.1,10.3-18.3,12.3-8.4,2.5-20.6,3.7-36.5,3.7h-23v97.7h-35.2Zm35.2-215.2v73.5h19.3c13.9,0,23.2-1.4,27.8-4.1s8.3-6.9,11-12.7c2.7-5.8,4-12.5,4-20.1s-1.9-17.2-5.6-23.3-8.4-10-14.2-11.5c-4.2-1.2-12.7-1.8-25.3-1.8h-17Z"/>
  <path class="cls-1" d="m591.3,259V0h52.7l31.6,176.7L706.9,0h52.8v259h-32.7V55.1l-34.6,203.9h-33.9l-34.5-203.9v203.9h-32.7Z"/>
  <path class="cls-1" d="m839.2,259L776.9,0h38.2l44.1,191.7L901.9,0h37.4l-62.5,259h-37.6Z"/>
  <path class="cls-1" d="m957.3,259V0h56.5c21.4,0,35.4,1.3,41.9,3.9,10,3.9,18.4,12.3,25.1,25.4,6.7,13,10.1,29.8,10.1,50.4s-1.9,29.3-5.8,40.1-8.8,19.3-14.8,25.5c-6,6.2-12.1,10.3-18.3,12.3-8.4,2.5-20.6,3.7-36.5,3.7h-23v97.7h-35.2Zm35.2-215.2v73.5h19.3c13.9,0,23.2-1.4,27.8-4.1,4.7-2.7,8.3-6.9,11-12.7,2.7-5.8,4-12.5,4-20.1s-1.9-17.2-5.6-23.3c-3.7-6.1-8.4-10-14.2-11.5-4.2-1.2-12.7-1.8-25.3-1.8h-17Z"/>
</svg>