<?xml version="1.0" encoding="UTF-8"?>
<svg id="Layer_2" data-name="Layer 2" xmlns="http://www.w3.org/2000/svg" viewBox="0 0 728 728">
  <defs>
    <style>
      .cls-1 {
        fill: #fff;
      }

      .cls-2 {
        fill: none;
        stroke: #fff;
        stroke-miterlimit: 10;
        stroke-width: 28px;
      }
    </style>
  </defs>
  <g id="Layer_1-2" data-name="Layer 1">
    <circle class="cls-2" cx="364" cy="364" r="350"/>
    <g>
      <path class="cls-1" d="m155.2,201c-1.4.6-3.6,2-4.8,3.2-5.5,5.1-5.2-4-5.2,153.9s.1,146.5,1.8,149.7c.9,1.9,3,4.4,4.5,5.5,2.8,2.1,3.8,2.1,96,2.6l93.2.5.3,22.7.2,22.8h-63.9l-2,2.6c-1.8,2.3-2.1,4.1-2.1,12.4s.3,10.2,1.9,12.1l1.9,2.4,78.2.3,78.1.2,3.1-3c3-3,3-3.1,2.6-12.9-.5-15.2,2.4-14.1-36-14.1h-31.8v-46h92.6c92.3,0,92.7,0,96.1-2.1,6.3-3.9,6.8-5.9,6.8-29.3v-21l-8.5-1.2c-42.9-6.3-78.2-40-86.9-83.1-8.9-43.4,9.8-86.5,47.8-110.4,12.6-7.9,26.4-12.7,44.4-15.4l3.7-.6v-19.7c0-22.2-.9-25.8-7.1-30.3l-3.4-2.4-199.5-.2c-131.4-.1-200.4.2-202,.8Z"/>
      <path class="cls-1" d="m554.2,278c-18.8,4.9-35.8,16.4-46.6,31.6-17.8,24.8-20.8,56.9-7.8,84.3,24.7,52.3,95.6,63.2,135,20.7,30.9-33.4,29.5-84.3-3.2-115.8-11.5-11-24-17.8-39.2-21.3-10.1-2.3-28.5-2.1-38.2.5Zm32.5,37.4c2.4,2.3,2.5,3,2.5,14.9v12.4l12.9.4c17.2.4,17.1.3,17.1,14.8s.4,14.4-16.2,15l-13.3.5-.5,13.3c-.4,11.7-.7,13.5-2.4,14.8-2.8,2-7.6,2.7-15.7,2.2-6.3-.3-7.4-.7-9.5-3.1-2.3-2.6-2.4-3.6-2.4-15.3v-12.4h-12.9c-12.8,0-13,0-15-2.6-1.8-2.3-2.1-4.1-2.1-12s.3-10,.6-10.9c1.3-3.3,5.9-4.5,17.9-4.5h11.5v-12.1c0-6.6.5-12.9,1.1-14,1.6-3,4.5-3.8,14.7-3.8,8.6-.1,9.5.1,11.7,2.4Z"/>
    </g>
  </g>
</svg>