<?xml version="1.0" encoding="UTF-8"?>
<svg id="Layer_2" data-name="Layer 2" xmlns="http://www.w3.org/2000/svg" viewBox="0 0 497.6 498.2">
  <defs>
    <style>
      .cls-1 {
        stroke: #fff;
        stroke-linecap: round;
        stroke-linejoin: round;
        stroke-width: 0px;
      }

      .cls-1, .cls-2 {
        fill: none;
      }

      .cls-3 {
        fill: #fff;
      }
    </style>
  </defs>
  <g id="Layer_1-2" data-name="Layer 1">
    <g>
      <path class="cls-2" d="m116.2,173.8s0,0,0,0c0,0,0,0,0-.1h0Z"/>
      <path class="cls-2" d="m116.4,174s0,0-.1-.1h0c0,0,0,.1,0,.1Z"/>
      <path class="cls-2" d="m66.9,346.6c0,0,.1,0,.2-.1,0,0,0,0,0,0,0,0,0,0-.1.1Z"/>
      <path class="cls-2" d="m244.3,473.3c9.7,4.1,19.6,7.5,29.7,10.3,0-.2,0-.5.2-.7.2-.3.5-.6.9-.7,2.2-.3,4.5-.7,6.7-1.1,0,0,.2-.1.3-.1.2-.2.4-.3.7-.3,17.2-3.3,34.2-8.3,50.4-15.1,0,0,0,0,0,0,0,0,0,0,0,0,.1,0,.3-.1.4-.2-.1,0-.2,0-.3.1,3.6-1.5,7.1-3.1,10.7-4.8,11.5-5.6,22.6-12,33.2-19.3,0-.3.2-.5.3-.8.9-2.8,1.7-5.6,2.6-8.3.7-2.5,1.5-5,2.2-7.5.4-1.5.8-2.9,1.2-4.4.4-1.4.7-2.9,1.1-4.4.6-2.5,1.1-5,1.6-7.5.6-2.9,1.1-5.7,1.8-8.5.3-1.5.7-3,1-4.4.3-1.3.5-2.6.7-3.9.1-.9.2-1.7.3-2.6.1-.9.2-1.9.3-2.8.2-1.9.3-3.7.5-5.6.1-1.4.3-2.8.4-4.3,0-.7,0-1.3.1-2,0-.3,0-.5,0-.8,0,0,0,0-.1,0-.8-.4-1.6-.9-2.4-1.3-.8-.5-1.5-1-2.3-1.5-1.6-1.1-3.1-2.3-4.6-3.6-1.5-1.2-2.9-2.5-4.4-3.7-.7-.6-1.4-1.2-2.1-1.8-.7-.6-1.4-1.1-2.1-1.7-1.4-1-2.8-2.1-4.2-3.1-.6-.4-1.2-.8-1.8-1.3-.8-.5-1.5-1-2.3-1.5-3.4-2.1-6.8-4.2-10.3-6.2-1.7-1-3.5-2-5.2-3.1-.6-.4-1.3-.7-1.9-1-.9-.4-1.7-.9-2.6-1.3-2.8-1.3-5.7-2.7-8.5-4,0,0,0,0,0,0-.6-.3-1.3-.6-1.9-.9-1.9-.9-3.8-1.7-5.7-2.6-1.6-.7-3.2-1.4-4.8-2.1-1-.4-2-.8-3-1.1,0,0-.2,0-.2,0,0,.5,0,1,.1,1.4,0,.5-.5,1-1,1s-.5-.1-.7-.3c-.2-.2-.3-.4-.3-.7,0-.4,0-.8-.1-1.3-9.7,6.7-19.8,12.8-30.3,18.2-8.2,4.2-16.6,7.9-25.2,11.1-8.5,3.2-17.2,5.9-26,8.1-7.7,1.9-15.5,3.5-23.3,4.7.7.4,1.5.9,2.2,1.3,0,0,0,0,0,0,.1,0,.2,0,.3,0,.1,0,.2.2.3.3,0,0,0,0,0,0,.6.4,1.2.7,1.8,1.1.9.6,1.8,1.1,2.6,1.9.8.8.8,2.1,0,2.9-.4.4-.9.6-1.4.6s-.7,0-1-.3c-.2-.1-.4-.3-.6-.4-.1.8-.2,1.6-.4,2.3-.3,1.8-.6,3.7-1.1,5.4-.5,1.8-.9,3.5-1.5,5.2-1.1,3.5-2.4,7-3.5,10.5-1.1,3.5-2.2,7.1-3.1,10.7-1,3.6-1.7,7.3-2.4,11-.7,3.5-1.3,7.1-2,10.6-.4,1.7-.8,3.5-1.1,5.2-.3,1.7-.6,3.4-.9,5.2,0,.5-.1,1-.2,1.5.3,0,.5,0,.8,0,.5,0,1,0,1.6.1.5,0,1,.3,1.4.6.6.3.9.8,1.2,1.3.3.4.4,1,.4,1.5.2.2.3.4.4.6,0,.2,0,.4,0,.6,11.7,7.5,24,14.1,36.8,19.6Z"/>
      <path class="cls-2" d="m278.3,484.8c.2,0,.4,0,.6.1,0,0,.1-.2.2-.3-.2,0-.5,0-.7.1Z"/>
      <path class="cls-2" d="m63,349.7s0,0,.1.1c0,0,0,0-.1-.1h0Z"/>
      <path class="cls-2" d="m148.1,53.9h0c-.3.2-.5.4-.8.6.3-.2.5-.4.8-.6Z"/>
      <path class="cls-2" d="m233.9,64c-.4,0-.7-.2-1.1-.3.4.1.7.2,1.1.3,0,0,0,0,0,0Z"/>
      <path class="cls-2" d="m141.9,187.3s0,.1-.1.2h0c0,0,0-.1.1-.2Z"/>
      <path class="cls-2" d="m94.4,145.2c-.3-.4-.6-.8-.9-1.2h0c0,0,0,.1,0,.1,0,0,0,0,0,0,.3.4.6.8.9,1.2Z"/>
      <path class="cls-2" d="m439.9,99.8c-1.5-1.9-3.1-3.8-4.6-5.7,1.6,1.9,3.1,3.8,4.6,5.7h0Z"/>
      <path class="cls-2" d="m420.1,104.2c.7-.4,1.4-.8,2.1-1.1-1-1.2-2.1-2.4-3.2-3.6.3,1.2.6,2.5.9,3.7,0,.4.2.7.2,1.1Z"/>
      <path class="cls-2" d="m342.2,41.6c0,0-.2-.1-.2-.2,0,0,0,0,0,0,0,0,0,.1,0,.2,0,0,.1,0,.2,0Z"/>
      <path class="cls-2" d="m416.9,90.9c-.2-.2-.4-.4-.5-.6,0,0,0,0,0,0,.2.2.4.4.5.6Z"/>
      <path class="cls-2" d="m86.3,134.6s0,0,0,0c.1.2.3.4.4.6l-.4-.6Z"/>
      <path class="cls-2" d="m303.3,46.7c-6.1.8-12.2,1.9-18.2,3.1-7.7,1.6-15.3,3.6-22.8,6-3.8,1.2-7.5,2.5-11.2,3.8-1.5.5-2.9,1.1-4.4,1.7.6.3.9,1,.7,1.7-.4,1.4-.8,2.9-1.1,4.4-.3,1.2-.6,2.4-.9,3.6-.1.5-.2.9-.3,1.4-.2,1.4-.3,2.8-.4,4.2-.2,3-.4,5.9-.8,8.9,0,.4,0,.7-.1,1.1,0,1.2-.1,2.4-.2,3.6-.3,3.9-.6,7.8-.9,11.7-.3,3.7-.7,7.4-1,11.1-.2,2.3-.3,4.6-.4,7,0,.9.1,1.9.3,2.8.1.9.2,1.7.3,2.6.3,1.7.5,3.4.8,5,.3,1.7.5,3.4.7,5.1.5,3.6.7,7.3.9,11,0,1.7.1,3.5,0,5.2,0,.8,0,1.6,0,2.4,0,.4,0,.9,0,1.3,0,.7-.1,1.6-.5,2.2,0,0,0,0,0,0,2.9,1.3,5.9,2.7,8.8,4.1,7.2,3.5,14.2,7.5,20.9,11.7,7,4.3,13.7,9,20.2,14.1,1.2.9,2.4,1.9,3.6,2.8,4.6,3.7,9.1,7.6,13.5,11.6,4,3.7,7.8,7.5,11.5,11.4,2.4,2.5,4.7,5,6.9,7.6,0,0,0,0,0,0,0-.2,0-.5,0-.7,0-.8,0-1.7.2-2.5,0-.3.1-.7.2-1,0-.2,0-.3.1-.5.1-.4.3-.9.5-1.3.2-.4.7-.7,1.2-.7s.5,0,.7.2c.5.3.8,1,.6,1.6,0,.2-.1.4-.1.7,0,.2,0,.4,0,.6,1-.3,2-.7,3-1,3.6-1.2,7.2-2.5,10.9-3.6,1.8-.6,3.6-1.2,5.4-1.7l6.5-1.9c1.8-.5,3.5-1,5.3-1.6,1.8-.5,3.6-1.1,5.4-1.7,1.6-.5,3.3-1.1,4.9-1.7,1.6-.6,3.3-1.2,4.9-1.8,1.8-.7,3.6-1.4,5.4-2,.9-.3,1.7-.7,2.6-1,1.1-.4,2.1-.7,3.2-1.1,3.5-1.2,7.1-2.2,10.6-3.1,1.7-.5,3.5-1,5.2-1.5,1.7-.5,3.4-1,5-1.6,1.7-.5,3.5-1,5.2-1.4.8-.2,1.7-.4,2.5-.6.9-.2,1.8-.5,2.7-.8.8-6.5,1.4-13,1.7-19.5.7-14.8,0-29.6-1.9-44.2,0,0,0-.1,0-.2,0,0,0,0,0,0,0,0,0,0,0,0,0,0,0,0,0-.1-.8-5.7-1.8-11.4-2.9-17.1-.6-2.9-1.3-5.8-2-8.7-.3-1.4-.7-2.8-1-4.2,0,0,0-.2,0-.3-.5-.5-.9-1.1-1.4-1.6-1.3-1.4-2.7-2.8-4.1-4.1-2.6-2.5-5.3-4.9-8.1-7.1-1-.8-2-1.5-3-2.3-2.9-2.2-5.9-4.2-8.9-6.3-1.4-1-2.9-2.1-4.3-3.2-1.7-1.2-3.4-2.4-5.1-3.6-1.4-1-2.9-2-4.3-3-1.5-1-2.9-2-4.4-3.1-.8-.5-1.5-1.1-2.3-1.6-.8-.5-1.7-1.1-2.5-1.6-1.7-1-3.3-2-5-2.9-1.5-.8-2.9-1.6-4.4-2.5-.8-.5-1.7-1-2.5-1.5-.9-.6-1.9-1.2-2.8-1.8-.7-.4-1.3-.9-1.9-1.3-.7-.5-1.4-1-2.1-1.5-.4-.3-.9-.7-1.3-1-.2,0-.4,0-.6,0-.4,0-.9,0-1.3,0-.5,0-.9,0-1.4,0-1.9,0-3.8,0-5.7-.1-3.8,0-7.6,0-11.4.2-7.6.3-15.1,1-22.6,2Z"/>
      <path class="cls-2" d="m341.3,40.5c0,0,0-.1,0-.2,0,0,0,.1,0,.2,0,0,0,0,0,0Z"/>
      <path class="cls-2" d="m458.7,282.4c0,0,0-.2,0-.3v.3h0Z"/>
      <path class="cls-2" d="m421.9,200s0,0,0,0c0,.3,0,.6-.2.8,0-.3.1-.5.2-.8Z"/>
      <path class="cls-2" d="m398.6,371.7c0,0-.1.2-.2.3h0c0,0,.1-.2.2-.3Z"/>
      <path class="cls-2" d="m319.7,475.1c-.9.3-1.8.6-2.6.9.2,0,.4,0,.5.1.6,0,1.2,0,1.8,0,.3,0,.6,0,.9,0,0-.4,0-.8,0-1.2-.2,0-.4.1-.6.2Z"/>
      <path class="cls-2" d="m46.8,333.3s0,0,0,0c0,0,0,0,0,0,0,0,0,0,0,0Z"/>
      <path class="cls-2" d="m104.1,435.2c-.3-.4-.7-.9-1-1.3-.3-.4-.6-.9-.9-1.3-.6-.8-1.2-1.7-1.8-2.5-1.3-1.8-2.5-3.6-3.8-5.4-1.5-2.2-3-4.5-4.4-6.9-1.5-2.5-2.9-4.9-4.4-7.4-2.8-4.7-5.6-9.3-8.4-14-.6-1-1.2-2-1.8-3-.6-1-1.2-2-1.7-3-.8-1.5-1.7-3.1-2.5-4.6-.5-.9-.9-1.8-1.3-2.6-.8-1.6-1.5-3.1-2.3-4.7-.4-.9-.8-1.7-1.2-2.6-.7-1.6-1.5-3.3-2.2-4.9-.4-.9-.8-1.9-1.2-2.8-1.2-2.8-2.3-5.6-3.5-8.3-.4-1.1-.9-2.2-1.3-3.3-.3-.8-.6-1.6-.9-2.4-.2-.5-.4-1-.5-1.5-.1-.4-.3-.9-.4-1.3,0-.4-.2-.9-.2-1.3,0,0,0-.1,0-.2-.5-.5-1.1-1.1-1.6-1.6-.7-.7-1.4-1.5-2.1-2.2-.2-.2-.3-.4-.4-.7-2-2.1-4-4.3-5.9-6.4-2.3-2.6-4.6-5.3-6.8-8-.2-.2-.3-.4-.5-.6-.3-.3-.5-.6-.8-1-1.8-2.3-3.7-4.6-5.4-6.9-9.9-13.1-18.4-27.1-25.5-41.9-.2-.3-.2-.6-.1-1,0,0,0,0,0,0-.3-.6-.5-1.1-.8-1.7.1,1.2.3,2.3.4,3.5,1.5,10.6,3.6,21.1,6.4,31.4,2.8,10.2,6.3,20.2,10.4,30,4.1,9.7,8.8,19.1,14.2,28.2,5.2,8.9,11,17.4,17.3,25.6,6.5,8.3,13.4,16.2,20.9,23.7,7,7,14.5,13.6,22.3,19.7.5-.7,1.1-1.3,1.6-2,.7-.8,1.4-1.6,2.1-2.3,0,0,.1-.1.2-.2Z"/>
      <path class="cls-2" d="m19.7,179.9c2.4-2.6,4.8-5.2,7.3-7.7,5.1-5.1,10.3-9.9,15.8-14.6,5.5-4.7,11.3-9.1,17.2-13.3,2.9-2.1,5.9-4.1,8.9-6,1.5-1,3-1.9,4.4-2.8.8-.5,1.6-1,2.4-1.4.7-.4,1.5-.8,2.2-1.2.2-.1.5-.2.7-.2s.6.1.9.3c.2-.1.5-.2.7-.4.4-.2.9-.4,1.3-.7-.4-.6-.9-1.2-1.3-1.8-.3-.5,0-1.3.4-1.5.2-.1.4-.2.6-.2.3,0,.6.1.8.3.6.6,1,1.3,1.5,1.9,0,0,0,.1.1.2,0,0,0,0,0,0,0,0,.1,0,.2-.1.3-.2.6-.4.9-.5-.3-.4-.3-1,0-1.5,1.1-2,2.2-4,3.4-5.9.9-1.6,1.9-3.3,2.8-4.9.1-.2.3-.5.5-.7.5-.7,1-1.5,1.5-2.2.6-.9,1.2-1.8,1.8-2.7.3-.4.5-.8.8-1.2,1.1-1.5,2.1-3,3.2-4.4.9-1.2,1.8-2.4,2.7-3.6,2-2.6,4-5.2,6-7.8,1.9-2.5,3.7-4.9,5.6-7.4,2-2.6,4-5.1,6-7.7,4-5.1,8.1-10.2,12.4-15.1,2.1-2.4,4.3-4.7,6.7-6.9,1.2-1.1,2.4-2.1,3.6-3.1.6-.5,1.2-1,1.8-1.5.4-.3.8-.6,1.2-.9.3-.2.6-.4,1-.5,0,0,.2-.2.3-.2.1-.1.3-.2.4-.3,0-.1,0-.3,0-.4,0-.7.6-1.5,1.4-1.5-.1-1.1-.3-2.2-.4-3.3-.3-2.4-.5-4.9-.8-7.4-.3-3.1-.5-6.2-.6-9.3-6.4,3-12.7,6.3-18.8,9.9-9.1,5.3-17.9,11.3-26.3,17.7-8.3,6.5-16.3,13.5-23.7,21-7.2,7.2-13.9,14.9-20.1,22.9-6.4,8.3-12.3,17-17.5,26.1-5.1,8.9-9.7,18.1-13.8,27.5-4.1,9.9-7.7,20.1-10.5,30.5.4-.5.8-1,1.2-1.4,1.1-1.3,2.3-2.6,3.5-3.9Z"/>
      <path class="cls-2" d="m226.1,468.9c-7.8-4-15.4-8.5-22.7-13.3-.5,0-1.1.1-1.6.2-.2.3-.5.6-.8.7-.3,0-.7,0-1-.1-.2-.1-.3-.3-.4-.4-.3,0-.6,0-.9,0-.2.8-.9,1.4-1.7,1.3-2.3,0-4.6-.2-6.9-.3-3.5-.1-7-.2-10.5-.2-3.4,0-6.9-.3-10.3-.8-1.7-.2-3.5-.5-5.2-.8-.9-.2-1.8-.3-2.8-.5-.4,0-.8-.2-1.2-.3-.4,0-.8-.2-1.2-.2-3.3-.8-6.7-1.7-10-2.5-1.7-.4-3.4-.8-5.1-1.2-.9-.2-1.8-.4-2.7-.6-.6-.1-1.3-.3-1.9-.5-1.7-.5-3.3-.9-4.9-1.4-1.1-.4-2.2-.8-3.3-1.2-.6-.2-1.1-.4-1.7-.7-1-.4-2.1-.8-3.1-1.3-.7-.3-1.3-.6-2-.9-1-.5-2-.9-3-1.4-.5-.3-1.1-.6-1.6-.9-1.4-.8-2.9-1.5-4.2-2.3-1.3-.5-2.6-1.1-3.8-1.8-1.1-.5-2.1-1.2-3-1.9-.4.3-.8.5-1.2.8-.8.6-1.5,1.4-2.2,2.1-.4.4-.8.8-1.1,1.3-.5.6-.9,1.1-1.4,1.7,7.6,5.8,15.6,11.1,23.8,15.9,9.2,5.4,18.7,10.2,28.5,14.3,9.9,4.1,20.1,7.7,30.4,10.5,10.3,2.8,20.7,4.9,31.2,6.3,10.5,1.4,21.2,2.1,31.8,2.1h.4c10,0,20.1-.6,30-1.8-4.5-1.1-9-2.4-13.5-3.8-13.5-4.3-26.7-9.7-39.3-16.2Z"/>
      <path class="cls-2" d="m8.7,274.1c.7,1.5,1.4,3,2.1,4.4.3,0,.6.3.7.6.4.8.8,1.6,1.1,2.4,7.2,14.6,16,28.5,25.9,41.4h0s0,0,0,0t0,0h0s0,0,0,0h0s0,0,0,0c0,0,0,0,0,0h0s0,0,0,0c0,0,0,0,0,0,0,0,0,0,0,0,0,0,0,0,0,0,0,0,0,0,0,0,1.3,1.6,2.6,3.3,3.9,4.9,4.3,5.3,8.9,10.3,13.7,15.2.2,0,.4.2.6.4.5.5,1,.9,1.4,1.4,0,0,.1,0,.2-.1.3-.2.6-.2.9-.2s.3,0,.5,0c.4.1.9.4,1.1.8.3.7.6,1.3.9,2,0,0,.1-.1.2-.2.1,0,.2-.2.4-.3,0-.3.2-.6.5-.7.5-.3,1-.6,1.5-.8.2-.2.4-.4.6-.5.4-.3.7-.6,1-1,.8-.8,1.6-1.6,2.4-2.4.2-.2.5-.4.9-.4s.7.1.9.4c.2.2.3.3.3.5.9-.5,1.8-1,2.7-1.5,1.4-.8,2.8-1.6,4.3-2.3,1.4-.8,2.8-1.5,4.1-2.3,1.4-.8,2.7-1.6,4-2.5.5-.3.9-.6,1.4-.9.8-.5,1.5-1.1,2.3-1.6.6-.4,1.2-.9,1.8-1.3.5-.4,1-.8,1.6-1.1,1.3-.9,2.5-1.9,3.8-2.8,1.4-1,2.8-2,4.3-2.9,1.2-.8,2.4-1.5,3.6-2.3.7-.5,1.4-.9,2.1-1.4.7-.5,1.4-1,2.1-1.4,1.1-.8,2.2-1.6,3.2-2.4h0c1.4-1.1,2.9-2.3,4.3-3.3,1.3-1,2.8-1.9,4.1-2.8.2-.1.4-.2.6-.2,1-.7,1.9-1.4,2.9-2.1,0-.8-.2-1.7-.2-2.5,0-.7-.1-1.4-.2-2.1,0-.2,0-.5-.1-.7-.1-.7-.1-1.4-.2-2.1,0-1.4-.1-2.7-.2-4.1-.1-2.4-.2-4.9-.2-7.3-.3-16.6,1-33.1,4-49.4,1.5-8.4,3.5-16.7,5.9-24.9,1.2-4.1,2.5-8.1,3.9-12.2.1-.3.2-.6.3-1-.9-.6-1.7-1.2-2.5-1.9-2.9-2.2-5.5-4.8-7.9-7.5-2.5-2.8-5-5.6-7.4-8.5-.5-.6-1-1.2-1.5-1.8-.6-.7-1.1-1.4-1.7-2.1-1.2-1.5-2.3-3.1-3.5-4.6-2.3-3.1-4.4-6.2-6.6-9.3-1-1.5-2.1-3-3.2-4.4-1-1.4-2.1-2.8-3.1-4.2-2-2.7-4.1-5.4-6.1-8.1-1.2-1.6-2.4-3.2-3.5-4.8-.9-1.3-1.8-2.6-2.8-3.9-1.1-1.6-2.3-3.2-3.4-4.8,0-.1-.2-.2-.2-.3-.1,0-.3.2-.4.3-.9.6-1.8,1.2-2.7,1.9-.9.6-1.8,1.2-2.7,1.9-.5.3-1,.6-1.5,1-.2.1-.4.3-.6.4-.3.2-.7.4-1,.6-.3.2-.7.3-1.1.5-.1,0-.3,0-.4,0,0,0-.2-.1-.2-.2-.1-.2,0-.4,0-.6,0-.1.1-.3.3-.4-2,1.3-4,2.6-6,3.9-4.1,2.8-8.2,5.7-12.1,8.8-6,4.7-11.9,9.6-17.4,14.8-2.6,2.4-5.1,4.9-7.6,7.4-2.5,2.5-4.9,5.1-7.3,7.7-1.2,1.3-2.3,2.6-3.5,3.9-1.2,1.3-2.3,2.6-3.5,4-.7.8-1.4,1.7-2.1,2.5-1.9,7.9-3.4,15.8-4.5,23.9-1.4,10.8-2.1,21.6-2.1,32.5,0,5.6.2,11.2.6,16.7.2,2.7.4,5.3.7,8h0c.3,0,.6.1.8.4Z"/>
      <path class="cls-2" d="m38.5,323s0,0,0,0c0,0,0,0,0,0,0,0,0,0,0,0Z"/>
      <path class="cls-2" d="m482.7,184.8c-2.8-10.2-6.3-20.1-10.3-29.9-4-9.5-8.6-18.7-13.8-27.6-4.7-8.1-9.8-15.8-15.4-23.3-1.1.1-2.3.2-3.4.3-2.4.2-4.7.3-7.1.6-2.9.4-5.8.8-8.5,1.9-.9.4-1.8.9-2.6,1.5-.2.1-.3.2-.5.2.5,2.6,1,5.2,1.4,7.8,2.4,14.8,3.5,29.7,3.3,44.7-.1,7.4-.6,14.8-1.4,22.1-.2,2-.5,4.1-.7,6.1,0,0,0,0,.1,0,.3.2.4.4.6.7.2.4.3.9.5,1.3.6,1.4,1.2,2.8,1.8,4.2.1.3.3.6.4,1,.5.6.9,1.2,1.4,1.8.9,1.2,1.8,2.4,2.6,3.7.8,1.2,1.6,2.4,2.4,3.6.8,1.2,1.5,2.4,2.2,3.6.3.5.6,1.1.9,1.6.3.6.7,1.1,1,1.7.7,1.3,1.4,2.5,2,3.8,0,.2.2.3.3.5.7,1.1,1.3,2.3,1.9,3.4.7,1.3,1.4,2.7,2.1,4,.3.5.5,1,.8,1.6.4.9.8,1.7,1.3,2.6.7,1.4,1.3,2.8,1.9,4.2,1.2,2.7,2.4,5.4,3.6,8.1.6,1.5,1.3,3,1.8,4.5.6,1.5,1.2,3,1.7,4.5.5,1.4,1,2.9,1.5,4.3.4,1.3.8,2.7,1.1,4,.2.8.4,1.5.6,2.3.2.8.4,1.7.6,2.5.2.8.3,1.6.5,2.4.1.7.3,1.5.4,2.3.5,2.9,1,5.8,1.6,8.7.2.8.4,1.6.6,2.4,0,.2.1.4.2.6,0,.1,0,.3,0,.4,0,.3.1.5.2.8.2.7.4,1.5.5,2.2.3,0,.6,0,.9,0,0,0,0,0,0,0,0,0,.2,0,.2,0,.2,0,.3,0,.5,0,.6,0,1.2,0,1.8,0,1.7,0,3.5.2,5.2.2,3.1,0,6.2.1,9.4.1.2,0,.4,0,.7,0h0c.6,0,1.2,0,1.8,0,1.1,0,2.2,0,3.3,0,.4,0,.7.2.9.4.4,0,.8,0,1.2,0,.1-.8.2-1.5.3-2.3.7-5.5,1.3-11.1,1.7-16.7.2-2.9.3-5.7.4-8.6,0-2.7.2-5.3.2-8,0-10.8-.8-21.5-2.2-32.2-1.5-10.5-3.6-20.8-6.4-31Z"/>
      <path class="cls-2" d="m486.5,285.6c-1.2,0-2.3,0-3.5,0-.5,0-1,0-1.5,0,0,0,0,0,0,0h-.6c-3.2,0-6.4,0-9.6-.2-1.7,0-3.4-.2-5.1-.3,0,.3-.1.5-.3.8-1.5,2.1-3,4.2-4.5,6.4-1.8,2.5-3.6,5.1-5.5,7.6-1.8,2.4-3.6,4.7-5.4,7.1-1.7,2.3-3.5,4.5-5.2,6.8-1.9,2.6-3.8,5.1-5.8,7.7-3.7,4.9-7.5,9.8-11.3,14.6,0,0,0,0,.1-.1,0,0,0,0,0,0,0,0,0,0,0,0,0,0,0,0,0,0-1,1.3-2,2.6-3.1,4,0,0,.1-.1.2-.2,0,0,0,0,0,0,0,0,0,0,0,0,0,0,0,0,0,0h0s0,0,0,0c0,0,0,0,0,0,0,0,0,0,0,0,0,0,0,0,0,0-1,1.3-2,2.6-3,3.8,0,0,0,0,0,.1,0,0,0,0,0,0,0,0,0,0,0,.1,0,0,0,0,0,0,0,0,0,0,0,0,0,0,0,0,0,0-1,1.3-2,2.6-3,3.8h0s0,0,0,0c0,0,0,0,0,0h0s0,0,0,0c0,0,0,0,0,0,0,0,0,0,0,0,0,0,0,0,0,0h0s0,0,0,0c0,0,0,0,0,0t0,0s0,0,0,0t0,0s0,0,0,0c0,0,0,0,0,0h0s0,0,0,0c0,0,0,0,0,0h0s0,0,0,0h0s0,0,0,0h0s0,0,0,0t0,0s0,0,0,0h0s0,0,0,0h0s0,0,0,0h0s0,0,0,0c0,0,0,0,0,0h0s0,0,0,0h0s0,0,0,0c0,0,0,0,0,0,0,0,0,0,0,0-1,1.3-2.1,2.7-3.1,4t0,0s0,0,0,0h0s0,0,0,0c0,0,0,0,0,0,0,0,0,0,0,.1,0,0,0,0,0,0,0,0,0,0,0,0,0,0,0,0,0,0,0,0,0,0,0,0,0,0,0,0,0,0-1.6,2.1-3.3,4.3-4.9,6.5-2,2.7-4,5.3-6,8-.9,1.2-2,2.4-2.9,3.6,0,0-.1.1-.2.2.1.2.1.5,0,.7-.5.5-1,.9-1.5,1.4-.2.2-.4.4-.7.6-.1.1-.3.3-.4.4-.2.2-.3.3-.5.4,0,0-.2,0-.3.1-.9,7.8-2.3,15.6-3.9,23.3-.4,1.8-.8,3.6-1.2,5.4-.7,3.2-1.5,6.4-2.4,9.5-1.1,4.1-2.4,8.2-3.8,12.2-1.1,3.4-2.4,6.7-3.7,10.1-.2.6-.3,1.3-.5,1.9,0,.3-.2.7-.3,1,.2,0,.4,0,.7,0s.5,0,.6,0c.6.2,1.1.5,1.4,1.1.3.5.4,1.2.2,1.8,0,.1,0,.2-.1.3,1.1.3,2.2.6,3.4.9.9.2,1.7.4,2.6.6.8.2,1.6.3,2.3.6,1-.8,2.1-1.6,3.1-2.3,8.3-6.4,16.1-13.3,23.5-20.7,7.2-7.3,14-14.9,20.3-23,6.5-8.5,12.5-17.3,17.9-26.5,5.3-9,9.9-18.4,14-28,4.1-9.8,7.6-19.9,10.4-30.2,2.4-8.9,4.3-17.9,5.7-27-.3,0-.6,0-.9,0-.2.3-.6.5-1,.5Z"/>
      <polygon class="cls-2" points="419 348 419 348 419 348 419 348 419 348"/>
      <path class="cls-2" d="m197.8,447.1h0s0,0,0,0Z"/>
      <path class="cls-2" d="m200.8,371.4h.1c0,0,0,0,0,0,0,0,0,0-.1,0Z"/>
      <path class="cls-2" d="m127,312.8c0,.1,0,.3,0,.4,0-.1,0-.3,0-.4,0,0,0,0,0,0Z"/>
      <path class="cls-2" d="m127.4,249.6c-.8,6-1.4,12-1.7,18.1-.4,6.9-.5,13.8-.4,20.7,0,.6,0,1.3,0,1.9,0,2.2.2,4.3.3,6.5,0,1.1.2,2.2.2,3.3,0,.2,0,.5,0,.7,0,.3,0,.5,0,.7s0,.4,0,.5c.1,1.3.2,2.6.3,4,0,.2,0,.3,0,.5.1.1.2.2.3.4.2.4.3.9.2,1.4,0,.2-.1.4-.3.5,0,.3,0,.6,0,.8,0,0,0,0,0,0,.3.3.6.5.8.8.5.4.9.9,1.3,1.3,1.3,1.3,2.6,2.6,3.8,3.9,1.1,1.1,2.2,2.2,3.3,3.3,1.2,1.1,2.3,2.2,3.5,3.3,1.3,1.2,2.6,2.3,4,3.5,4.8,4.2,9.7,8.2,14.7,12.1,4.3,3.3,8.6,6.5,12.9,9.8,1.3,1,2.6,1.9,3.9,2.9,1.2.9,2.4,1.7,3.7,2.5,2.9,1.8,5.8,3.5,8.7,5.3,2.6,1.6,5.2,3.3,7.8,4.9,2.8,1.7,5.6,3.3,8.5,4.8,1.5.8,3,1.6,4.4,2.4.2,0,.3.2.5.3.5,0,1-.1,1.5-.2,0,0-.2,0-.3,0,.1,0,.3,0,.4,0h0s0,0,0,0c0,0,0,0,0,0h0s0,0,0,0c0,0,0,0,0,0,3.4-.5,6.8-1,10.2-1.6,17.9-3.2,35.3-8.5,52.1-15.6.5-.2.9-.4,1.4-.6,8.4-3.6,16.6-7.7,24.5-12.3.5-.3,1-.6,1.4-.8,3.1-1.8,6.1-3.7,9.1-5.6,1.5-1,3-1.9,4.4-2.9,0,0,0,0,0-.1,0-.3.2-.6.4-.9.3-.5,1-1,1.6-1.1.4,0,.8,0,1.2,0,.5-.4,1.1-.8,1.6-1.1,0-.1,0-.2,0-.3,0-.7,0-1.4,0-2,0-.5.1-1.1.2-1.6,0-.8.2-1.6.2-2.3.1-1.1.2-2.3.4-3.4.3-2.9.7-5.8,1-8.7.3-2.8.7-5.6,1-8.4.3-2.6.6-5.3.8-7.9.3-2.6.5-5.3.8-7.9.2-1.6.4-3.2.6-4.8.2-1.5.4-3,.7-4.6.2-1.4.5-2.8.7-4.2.2-1.4.5-2.8.8-4.2.5-2.8,1.1-5.5,1.6-8.3.3-1.4.5-2.7.7-4.1.2-1.1.3-2.3.5-3.5,0-.7.2-1.5.2-2.2.3-2.7.4-5.3.5-8,0-2.7.1-5.5.1-8.2,0-2.2,0-4.5,0-6.7-.8-1-1.7-2-2.6-3-3.3-3.8-6.7-7.5-10.2-11.1,0,0-.1-.1-.2-.2,0,0-.2-.2-.3-.3-.1-.1-.2-.2-.3-.3,0,0,0,0-.1-.1-2.2-2.2-4.5-4.4-6.8-6.6-4.7-4.4-9.5-8.6-14.5-12.6-1-.8-1.9-1.5-2.9-2.3-4.1-3.2-8.4-6.3-12.7-9.2-13.2-9-27.3-16.6-42-22.9-.5-.2-1-.4-1.5-.6-2,.3-3.9.8-5.9,1.2-2.5.6-4.9,1.2-7.3,1.9-2.3.7-4.7,1.4-7,2.2-1.2.4-2.3.8-3.5,1.2,0,0-.1,0-.2,0-2,.9-4.1,1.8-6.2,2.6-.9.4-1.8.9-2.6,1.3-1.9.9-3.7,1.8-5.6,2.7-3.9,1.8-7.9,3.5-11.9,5.1-5.3,2.3-10.5,4.9-15.8,7.3-1.2.5-2.3,1.1-3.5,1.6-.1,0-.3.1-.4.2,0,0,0,0-.1,0-3,1.9-5.9,3.9-8.8,5.9-2.7,1.8-5.4,3.6-8.1,5.3-.6.4-1.3.8-1.9,1.3-.8.5-1.6,1-2.3,1.6-.3.2-.6.4-.8.6-.1.2-.3.4-.5.5.3.3.5.9.5,1.4s-.2,1.1-.6,1.4c-.4.4-.9.6-1.4.6s-.7,0-1-.3c-.4-.2-.7-.4-1-.6-2.6,7.4-4.8,15-6.7,22.7-2,8.2-3.5,16.5-4.7,24.8Z"/>
      <path class="cls-2" d="m320.6,325.9l-.4.3h0c.1,0,.2-.2.4-.3Z"/>
      <path class="cls-2" d="m321.7,329.8c-.2,0-.3-.1-.5-.2,0,0,0,0,0,0,.2,0,.3.1.5.2Z"/>
      <path class="cls-2" d="m332.1,230.7c0-.3,0-.6,0-.9,0,0,0,0,0,0,0,.3,0,.6,0,.9Z"/>
      <path class="cls-2" d="m149,46.5c.1,1.1.3,2.2.4,3.4,0,0,0,0,0,0,0,0,.2,0,.2,0,3,.2,5.9.4,8.9.7,1.4.1,2.8.3,4.3.4.4,0,.8,0,1.3-.1.5,0,1.1-.1,1.7-.1,1.2,0,2.4-.1,3.6-.1h.3c1.4,0,2.8,0,4.2,0,3.8.1,7.6.2,11.3.4,3.9.2,7.8.5,11.7.9,1.9.2,3.9.3,5.8.5,2.2.2,4.5.5,6.7.9,1.8.3,3.7.7,5.5,1.1,1.9.4,3.9.9,5.8,1.4,1.8.5,3.7,1,5.5,1.5,1.3.4,2.6.8,3.9,1.2.4,0,.7.2,1.1.2,1.9.4,3.8.9,5.8,1.3,1.3.3,2.5.5,3.8.8,0,0,0-.2.1-.2.1-.2.3-.4.4-.5.3-.3.7-.4,1.1-.4.3,0,.6,0,.9.3,4-1.7,8.1-3.2,12.2-4.7,14.8-5.2,30.2-9,45.8-11.2,7.9-1.1,15.9-1.9,23.9-2.3,4-.2,7.9-.3,11.9-.3h.4c-.8-.9-1.6-1.9-2.3-2.9-.4-.6-.8-1.3-1.1-2-.4-.7-.7-1.5-1-2.3-.6-1.5-1.1-3.1-1.7-4.7-.1-.4-.2-.8-.3-1.2-.1-.4-.3-.8-.4-1.3-.3-1.2-.5-2.3-.6-3.5,0-.6,0-1.1,0-1.7,0-.3,0-.5.2-.8,0-.1.1-.3.2-.4-5.5-2-11.1-3.7-16.8-5.3-10.4-2.8-21-5-31.7-6.5-10.9-1.4-21.9-2.2-32.9-2.1-10.8,0-21.7.7-32.4,2.1-10.6,1.5-21,3.5-31.3,6.3-10.4,2.8-20.6,6.4-30.6,10.5-2.3,1-4.6,2-6.8,3,.1,3.4.3,6.9.6,10.3.2,2.5.4,4.9.7,7.4Z"/>
      <path class="cls-2" d="m393.7,374.6c0,.5,0,1.1-.1,1.6,0,1-.2,2-.3,3,0-.3.2-.5.2-.8.4-1.3.8-2.5,1.2-3.8-.3,0-.7,0-1,0Z"/>
      <path class="cls-2" d="m335.6,234.3h0s0,0,0,0c0,0,0,0,0,0,0,0,0,0,0,0-.2-.3-.5-.6-.7-.9.2.3.5.6.7.9Z"/>
      <path class="cls-1" d="m420.9,125.1s0,0,0,0"/>
      <polyline class="cls-1" points="419 348 419 348 419 348"/>
      <line class="cls-1" x1="415.8" y1="352.2" x2="415.8" y2="352.2"/>
      <path class="cls-3" d="m497.4,239.5c-.1-4.1-.4-8.1-.8-12.2-.4-4.5-.9-8.9-1.6-13.4-.9-6-1.9-12.1-3.2-18-1.6-7.6-3.7-15.2-6-22.6-2.4-7.5-5.2-14.9-8.3-22.1-6-14.1-13.4-27.5-21.8-40.3-2.2-3.3-4.5-6.6-6.9-9.8,0-.6-.3-1.1-.7-1.5s-.5-.4-.8-.6c-6.4-8.4-13.2-16.4-20.6-24-10.7-11-22.5-20.9-35-29.8-24.9-17.6-53.2-30.5-82.8-37.9-15.1-3.8-30.6-6-46.1-7-4.7-.3-9.4-.4-14.1-.4-11,0-21.9.7-32.8,2.2-7.7,1-15.3,2.4-22.8,4.1-7.5,1.7-14.9,3.8-22.3,6.2-14.6,4.8-28.8,11.1-42.3,18.6-13.8,7.6-26.8,16.6-38.9,26.7-12.1,10-23.2,21.3-33.1,33.4-9.8,12-18.5,24.8-26,38.4-7.4,13.5-13.5,27.8-18.4,42.4-2.5,7.5-4.5,15.2-6.2,22.9-.2.9-.4,1.8-.6,2.7-.1.1-.2.3-.3.4-.3,2-.8,3.9-1.3,5.8-.1.4-.2.9-.3,1.3.2-.3.4-.5.6-.8-.8,4.6-1.5,9.1-2.1,13.7-1,7.8-1.6,15.6-1.8,23.4-.3,7.8-.1,15.5.3,23.3.9,15.5,3.4,31,7.2,46.1,3.8,15,9.1,29.6,15.6,43.6,13,28.2,31.7,53.8,54.1,75.2,5.8,5.6,11.9,10.8,18.3,15.8,0,.1-.2.2-.2.3-.2.3-.3.6-.4.9-.2.8.2,1.8,1.1,1.9.2,0,.4,0,.6,0,.7,0,1.3-.4,1.5-1.1,0,0,0,0,0,0,4.9,3.7,9.9,7.3,15.1,10.6,6.6,4.3,13.3,8.2,20.3,11.9,6.9,3.6,14.1,6.9,21.3,9.9,28.6,11.8,59.4,17.8,90.3,18.3,15.8.2,31.5-1.1,47-3.8,15.3-2.7,30.4-6.8,45-12.4,14.4-5.4,28.2-12.3,41.4-20.3,13.1-8,25.4-17.2,36.8-27.4,22.6-20.2,41.3-44.7,55.2-71.7,7-13.6,12.7-27.9,17-42.5,4.5-15.1,7.4-30.6,9-46.2.8-7.7,1.2-15.5,1.1-23.3,0-3.7,0-7.5-.2-11.2Zm-57.5-139.7h0c-1.5-1.9-3.1-3.8-4.6-5.7,1.6,1.9,3.1,3.8,4.6,5.7Zm-17.8,3.2c-.7.3-1.4.7-2.1,1.1,0-.4-.2-.7-.2-1.1-.3-1.2-.6-2.5-.9-3.7,1.1,1.2,2.1,2.4,3.2,3.6Zm-5.2-12.1c-.2-.2-.3-.4-.5-.6,0,0,0,0,0,0,.2.2.4.4.5.6Zm-75-49.5c0,0,.2.1.2.2,0,0-.1,0-.2,0,0,0,0-.1,0-.2,0,0,0,0,0,0Zm-.6-.9s0,0,0,0c0,0,0-.1,0-.2,0,0,0,.1,0,.2Zm1.8,4.2c.5,0,.9,0,1.4,0,.4,0,.9,0,1.3,0,.2,0,.4,0,.6,0,.4.3.9.7,1.3,1,.7.5,1.4,1,2.1,1.5.6.4,1.3.9,1.9,1.3.9.6,1.9,1.2,2.8,1.8.8.5,1.6,1,2.5,1.5,1.4.9,2.9,1.7,4.4,2.5,1.7,1,3.4,1.9,5,2.9.9.5,1.7,1.1,2.5,1.6.8.5,1.5,1,2.3,1.6,1.5,1,2.9,2,4.4,3.1,1.4,1,2.9,2,4.3,3,1.7,1.2,3.4,2.4,5.1,3.6,1.4,1,2.9,2.1,4.3,3.2,2.9,2.1,6,4.2,8.9,6.3,1,.8,2,1.5,3,2.3,2.8,2.3,5.5,4.6,8.1,7.1,1.4,1.4,2.7,2.7,4.1,4.1.5.5.9,1,1.4,1.6,0,0,0,.2,0,.3.4,1.4.7,2.8,1,4.2.7,2.9,1.4,5.8,2,8.7,1.2,5.7,2.1,11.4,2.9,17.1,0,0,0,0,0,.1,0,0,0,.1,0,.2,1.9,14.6,2.6,29.5,1.9,44.2-.3,6.5-.9,13-1.7,19.5-.9.3-1.8.6-2.7.8-.8.2-1.7.4-2.5.6-1.8.4-3.5.9-5.2,1.4-1.7.5-3.3,1.1-5,1.6-1.7.5-3.5,1-5.2,1.5-3.6,1-7.1,1.9-10.6,3.1-1.1.4-2.1.7-3.2,1.1-.9.3-1.7.6-2.6,1-1.8.7-3.6,1.4-5.4,2-1.6.6-3.3,1.2-4.9,1.8-1.6.6-3.2,1.2-4.9,1.7-1.8.6-3.6,1.2-5.4,1.7-1.8.5-3.5,1-5.3,1.6l-6.5,1.9c-1.8.5-3.6,1.1-5.4,1.7-3.6,1.1-7.3,2.4-10.9,3.6-1,.3-2,.7-3,1,0-.2,0-.4,0-.6,0-.2,0-.4.1-.7.2-.6,0-1.2-.6-1.6-.2-.1-.5-.2-.7-.2-.5,0-1,.2-1.2.7-.2.4-.4.8-.5,1.3,0,.2,0,.3-.1.5,0,.3-.1.7-.2,1-.1.8-.2,1.7-.2,2.5,0,.2,0,.5,0,.7,0,0,0,0,0,0-2.3-2.6-4.6-5.1-6.9-7.6-3.7-3.9-7.6-7.7-11.5-11.4-4.3-4-8.8-7.9-13.5-11.6-1.2-1-2.4-1.9-3.6-2.8-6.5-5-13.2-9.7-20.2-14.1-6.8-4.2-13.8-8.1-20.9-11.7-2.9-1.4-5.8-2.8-8.8-4.1,0,0,0,0,0,0,.4-.7.4-1.5.5-2.2,0-.4,0-.9,0-1.3,0-.8,0-1.6,0-2.4,0-1.7,0-3.5,0-5.2-.2-3.7-.4-7.3-.9-11-.2-1.7-.5-3.4-.7-5.1-.3-1.7-.6-3.4-.8-5-.1-.9-.2-1.7-.3-2.6-.1-.9-.2-1.9-.3-2.8.1-2.3.3-4.6.4-7,.3-3.7.6-7.4,1-11.1.3-3.9.6-7.8.9-11.7,0-1.2.1-2.4.2-3.6,0-.4,0-.7.1-1.1.4-3,.6-5.9.8-8.9.1-1.4.2-2.8.4-4.2.1-.5.2-.9.3-1.4.3-1.2.6-2.4.9-3.6.3-1.5.7-2.9,1.1-4.4.2-.7-.1-1.4-.7-1.7,1.4-.6,2.9-1.1,4.4-1.7,3.7-1.4,7.4-2.6,11.2-3.8,7.5-2.4,15.1-4.4,22.8-6,6-1.3,12.1-2.3,18.2-3.1,7.5-1,15.1-1.7,22.6-2,3.8-.2,7.6-.2,11.4-.2,1.9,0,3.8,0,5.7.1Zm115.6,237.7h0v-.3c0,0,0,.2,0,.3Zm-36.8-82.4c0,.3-.1.5-.2.8,0-.3.1-.6.2-.8,0,0,0,0,0,0Zm-23.2,171.7c0,0-.1.2-.2.3h0c0-.1.1-.2.2-.3Zm-120.4,113c.2,0,.5,0,.7-.1,0,0-.1.2-.2.3-.2,0-.4,0-.6-.1Zm-70.8-31.7c0-.2-.2-.5-.4-.6,0-.5-.1-1-.4-1.5-.3-.5-.7-1-1.2-1.3-.5-.3-.9-.5-1.4-.6-.5,0-1-.1-1.6-.1-.3,0-.5,0-.8,0,0-.5.1-1,.2-1.5.2-1.7.5-3.5.9-5.2.3-1.7.7-3.5,1.1-5.2.7-3.5,1.3-7.1,2-10.6.7-3.7,1.4-7.4,2.4-11,.9-3.6,2-7.2,3.1-10.7,1.1-3.5,2.4-7,3.5-10.5.5-1.7,1-3.5,1.5-5.2.5-1.8.8-3.6,1.1-5.4.1-.8.3-1.6.4-2.3.2.1.4.3.6.4.3.2.7.3,1,.3.5,0,1.1-.2,1.4-.6.8-.8.8-2.1,0-2.9-.8-.7-1.7-1.3-2.6-1.9-.6-.4-1.2-.7-1.8-1.1,0,0,0,0,0,0,0-.1-.2-.2-.3-.3-.1,0-.2,0-.3,0s0,0,0,0c-.7-.4-1.5-.9-2.2-1.3,7.8-1.2,15.6-2.8,23.3-4.7,8.8-2.2,17.5-4.9,26-8.1,8.6-3.2,17-6.9,25.2-11.1,10.5-5.3,20.6-11.4,30.3-18.2,0,.4,0,.8.1,1.3,0,.3,0,.5.3.7.2.2.4.3.7.3.5,0,1-.5,1-1,0-.5,0-1-.1-1.4,0,0,.2,0,.2,0,1,.3,2,.7,3,1.1,1.6.7,3.2,1.4,4.8,2.1,1.9.9,3.8,1.7,5.7,2.6.6.3,1.3.6,1.9.9,0,0,0,0,0,0,2.8,1.3,5.7,2.6,8.5,4,.9.4,1.7.9,2.6,1.3.7.3,1.3.7,1.9,1,1.7,1,3.5,2,5.2,3.1,3.4,2.1,6.9,4.1,10.3,6.2.8.5,1.5,1,2.3,1.5.6.4,1.2.8,1.8,1.3,1.4,1,2.8,2,4.2,3.1.7.6,1.4,1.1,2.1,1.7.7.6,1.4,1.2,2.1,1.8,1.5,1.2,2.9,2.5,4.4,3.7,1.5,1.2,3,2.4,4.6,3.6.7.5,1.5,1.1,2.3,1.5.8.5,1.5,1,2.4,1.3,0,0,0,0,.1,0,0,.3,0,.5,0,.8,0,.7,0,1.3-.1,2-.1,1.4-.3,2.9-.4,4.3-.2,1.9-.3,3.7-.5,5.6,0,.9-.1,1.9-.3,2.8-.1.9-.2,1.7-.3,2.6-.2,1.3-.4,2.6-.7,3.9-.3,1.5-.6,3-1,4.4-.6,2.8-1.2,5.7-1.8,8.5-.5,2.5-1,5-1.6,7.5-.4,1.5-.7,2.9-1.1,4.4-.4,1.5-.8,2.9-1.2,4.4-.7,2.5-1.4,5-2.2,7.5-.8,2.8-1.6,5.6-2.6,8.3,0,.3-.2.5-.3.8-10.6,7.2-21.6,13.7-33.2,19.3-3.5,1.7-7.1,3.3-10.7,4.8.1,0,.2,0,.3-.1-.1,0-.3.1-.4.2,0,0,0,0,0,0,0,0,0,0,0,0-16.2,6.8-33.1,11.8-50.4,15.1-.2,0-.5.2-.7.3-.1,0-.2,0-.3.1-2.2.4-4.5.8-6.7,1.1-.4,0-.7.4-.9.7-.1.2-.2.5-.2.7-10.1-2.8-20-6.3-29.7-10.3-12.8-5.4-25.1-12-36.8-19.6,0-.2,0-.4,0-.6Zm-144.4-103.3h0s0,0,.1.1c0,0,0,0-.1-.1Zm3.8-3.1s0,0,.1-.1c0,0,0,0,0,0,0,0-.1,0-.2.1Zm49.5-172.6s0,0,0-.1h0s0,0,.1.1Zm-.2-.2h0s0,0,0,0c0,0,0,0,0,0Zm-22.8-29.7h0c.3.4.6.8.9,1.2-.3-.4-.6-.8-.9-1.2,0,0,0,0,0,0,0,0,0,0,0,0Zm48.5,43.2s0,.1-.1.2h0c0,0,0-.1.1-.2Zm90.9-123.6c.4.1.7.2,1.1.3,0,0,0,0,0,0-.4-.1-.7-.2-1.1-.3Zm-84.7-9.9c-.3.2-.5.4-.8.6.3-.2.5-.4.8-.6h0Zm-43.4,49.7s0,0,0,0c0,0,0,0,0,0Zm-18.4,31l.4.6c-.1-.2-.3-.4-.4-.6,0,0,0,0,0,0Zm52.5,67.5c.3.2.7.4,1,.6.3.2.7.3,1,.3.5,0,1-.2,1.4-.6.4-.4.6-.9.6-1.4s-.2-1-.5-1.4c.2-.1.4-.3.5-.5.3-.2.6-.4.8-.6.8-.5,1.6-1,2.3-1.6.6-.4,1.3-.8,1.9-1.3,2.7-1.8,5.4-3.5,8.1-5.3,2.9-2,5.9-4,8.8-5.9,0,0,0,0,.1,0,.1,0,.3-.1.4-.2,1.2-.5,2.3-1.1,3.5-1.6,5.3-2.4,10.5-4.9,15.8-7.3,4-1.7,8-3.3,11.9-5.1,1.9-.9,3.7-1.8,5.6-2.7.9-.4,1.8-.9,2.6-1.3,2.1-.9,4.1-1.7,6.2-2.6,0,0,.1,0,.2,0,1.2-.4,2.3-.8,3.5-1.2,2.3-.8,4.6-1.5,7-2.2,2.4-.7,4.9-1.3,7.3-1.9,2-.5,3.9-.9,5.9-1.2.5.2,1,.4,1.5.6,14.7,6.2,28.8,13.9,42,22.9,4.3,2.9,8.6,6,12.7,9.2,1,.7,1.9,1.5,2.9,2.3,5,4,9.8,8.2,14.5,12.6,2.3,2.2,4.6,4.4,6.8,6.6,0,0,0,0,.1.1.1.1.2.2.3.3,0,0,.2.2.3.3,0,0,.1.1.2.2,3.5,3.6,6.9,7.3,10.2,11.1.9,1,1.7,2,2.6,3,0,2.2,0,4.5,0,6.7,0,2.7,0,5.5-.1,8.2,0,2.7-.2,5.4-.5,8,0,.7-.2,1.5-.2,2.2-.2,1.2-.3,2.3-.5,3.5-.2,1.4-.4,2.8-.7,4.1-.5,2.8-1.1,5.5-1.6,8.3-.3,1.4-.5,2.8-.8,4.2-.2,1.4-.5,2.8-.7,4.2-.2,1.5-.4,3-.7,4.6-.2,1.6-.4,3.2-.6,4.8-.3,2.6-.6,5.3-.8,7.9-.3,2.6-.5,5.3-.8,7.9-.3,2.8-.7,5.6-1,8.4-.3,2.9-.7,5.8-1,8.7-.1,1.1-.3,2.3-.4,3.4,0,.8-.2,1.6-.2,2.3,0,.5-.1,1.1-.2,1.6,0,.7,0,1.4,0,2,0,.1,0,.2,0,.3-.5.4-1.1.8-1.6,1.1-.4,0-.8,0-1.2,0-.6,0-1.2.5-1.6,1.1-.2.3-.3.5-.4.9,0,0,0,0,0,.1-1.5,1-2.9,2-4.4,2.9-3,1.9-6,3.8-9.1,5.6-.5.3-1,.6-1.4.8-7.9,4.6-16.1,8.7-24.5,12.3-.5.2-.9.4-1.4.6-16.7,7.1-34.2,12.4-52.1,15.6-3.4.6-6.8,1.1-10.2,1.6,0,0,0,0,0,0,0,0,0,0,0,0h0s0,0,0,0c0,0,0,0,0,0h0c-.2,0-.3,0-.4,0,0,0,.2,0,.3,0-.5,0-1,.1-1.5.2-.2,0-.3-.2-.5-.3-1.5-.8-2.9-1.6-4.4-2.4-2.9-1.5-5.7-3.2-8.5-4.8-2.6-1.6-5.2-3.3-7.8-4.9-2.9-1.8-5.8-3.5-8.7-5.3-1.3-.8-2.5-1.6-3.7-2.5-1.3-.9-2.6-1.9-3.9-2.9-4.3-3.3-8.6-6.5-12.9-9.8-5-3.9-9.9-8-14.7-12.1-1.3-1.2-2.6-2.3-4-3.5-1.2-1.1-2.3-2.2-3.5-3.3-1.1-1.1-2.2-2.2-3.3-3.3-1.3-1.3-2.6-2.6-3.8-3.9-.4-.4-.9-.9-1.3-1.3-.3-.3-.6-.5-.8-.8,0,0,0,0,0,0,0-.3,0-.6,0-.8.1-.2.2-.3.3-.5.1-.5,0-.9-.2-1.4,0-.1-.2-.3-.3-.4,0-.2,0-.3,0-.5-.1-1.3-.2-2.6-.3-4,0-.2,0-.4,0-.5s0-.5,0-.7c0-.2,0-.5,0-.7,0-1.1-.2-2.2-.2-3.3-.1-2.2-.2-4.3-.3-6.5,0-.6,0-1.3,0-1.9-.2-6.9,0-13.8.4-20.7.4-6,.9-12.1,1.7-18.1,1.1-8.4,2.7-16.6,4.7-24.8,1.9-7.7,4.1-15.2,6.7-22.7Zm182.9,127.7c-.2,0-.3-.1-.5-.2,0,0,0,0,0,0,.2,0,.3.1.5.2Zm-1.1-3.9c-.1,0-.2.2-.4.3h0s.4-.3.4-.3Zm-193.5-13.1s0,0,0,0c0,.1,0,.3,0,.4,0-.1,0-.3,0-.4Zm70.8,134.3h0s0,0,0,0h0Zm3-75.7s0,0,.1,0h-.1Zm131.3-140.7c0-.3,0-.6,0-.9,0,0,0,0,0,0,0,.3,0,.6,0,.9Zm3.5,3.5s0,0,0,0c0,0,0,0,0,0h0s0,0,0,0c-.2-.3-.5-.6-.7-.9.2.3.5.6.7.9Zm-15.2,241.8c-.3,0-.6,0-.9,0-.6,0-1.2,0-1.8,0-.2,0-.4-.1-.5-.1.9-.3,1.8-.6,2.6-.9.2,0,.4-.1.6-.2,0,.4,0,.8,0,1.2Zm73.2-97.7c0,.3-.2.5-.2.8,0-1,.2-2,.3-3,0-.5,0-1.1.1-1.6.4,0,.7,0,1,0-.4,1.3-.8,2.5-1.2,3.8ZM154.5,25.8c10-4.2,20.2-7.7,30.6-10.5,10.3-2.8,20.8-4.9,31.3-6.3,10.8-1.4,21.6-2.1,32.4-2.1,11,0,22,.7,32.9,2.1,10.7,1.5,21.3,3.6,31.7,6.5,5.7,1.5,11.3,3.3,16.8,5.3,0,.1-.1.3-.2.4,0,.3-.1.5-.2.8,0,.6,0,1.1,0,1.7,0,1.2.3,2.4.6,3.5,0,.4.2.8.4,1.3.1.4.2.8.3,1.2.5,1.6,1.1,3.1,1.7,4.7.3.8.6,1.6,1,2.3.3.7.7,1.4,1.1,2,.7,1,1.5,2,2.3,2.9h-.4c-4,0-7.9,0-11.9.3-8,.4-16,1.1-23.9,2.3-15.6,2.2-30.9,6-45.8,11.2-4.1,1.4-8.2,3-12.2,4.7-.2-.2-.5-.3-.9-.3-.4,0-.8.2-1.1.4-.2.2-.3.4-.4.5,0,0,0,.2-.1.2-1.3-.3-2.5-.5-3.8-.8-1.9-.4-3.8-.9-5.8-1.3-.4,0-.7-.2-1.1-.2-1.3-.4-2.6-.8-3.9-1.2-1.8-.5-3.6-1-5.5-1.5-1.9-.5-3.8-1-5.8-1.4-1.8-.4-3.7-.7-5.5-1.1-2.2-.4-4.4-.7-6.7-.9-1.9-.2-3.9-.3-5.8-.5-3.9-.3-7.8-.7-11.7-.9-3.8-.2-7.6-.3-11.3-.4-1.4,0-2.8,0-4.2,0h-.3c-1.2,0-2.4,0-3.6.1-.6,0-1.1,0-1.7.1-.4,0-.8,0-1.3.1-1.4-.1-2.8-.3-4.3-.4-3-.3-5.9-.5-8.9-.7,0,0-.2,0-.2,0,0,0,0,0,0,0-.1-1.1-.3-2.2-.4-3.4-.3-2.4-.5-4.9-.7-7.4-.3-3.4-.5-6.8-.6-10.3,2.3-1,4.5-2,6.8-3ZM25.5,154.8c4-9.4,8.6-18.6,13.8-27.5,5.3-9.1,11.1-17.8,17.5-26.1,6.2-8,12.9-15.7,20.1-22.9,7.4-7.5,15.4-14.5,23.7-21,8.4-6.4,17.2-12.4,26.3-17.7,6.1-3.6,12.4-6.9,18.8-9.9.2,3.1.4,6.2.6,9.3.2,2.5.5,4.9.8,7.4.1,1.1.3,2.2.4,3.3-.8,0-1.4.8-1.4,1.5s0,.3,0,.4c-.1.1-.3.2-.4.3,0,0-.2.2-.3.2-.3.2-.7.3-1,.5-.4.3-.8.6-1.2.9-.6.5-1.2,1-1.8,1.5-1.2,1-2.4,2.1-3.6,3.1-2.3,2.2-4.5,4.5-6.7,6.9-4.3,4.9-8.4,10-12.4,15.1-2,2.5-4,5.1-6,7.7-1.9,2.4-3.7,4.9-5.6,7.4-2,2.6-4,5.2-6,7.8-.9,1.2-1.8,2.4-2.7,3.6-1.1,1.5-2.1,2.9-3.2,4.4-.3.4-.5.8-.8,1.2-.6.9-1.2,1.8-1.8,2.7-.5.7-1,1.5-1.5,2.2-.2.2-.3.5-.5.7-.9,1.6-1.9,3.3-2.8,4.9-1.1,2-2.2,4-3.4,5.9-.3.5-.2,1.1,0,1.5-.3.2-.6.4-.9.5,0,0-.1,0-.2.1,0,0,0,0,0,0,0,0,0-.1-.1-.2-.5-.7-1-1.3-1.5-1.9-.2-.2-.5-.3-.8-.3s-.4,0-.6.2c-.5.3-.8,1-.4,1.5.4.6.9,1.2,1.3,1.8-.4.2-.9.4-1.3.7-.2.1-.5.2-.7.4-.2-.2-.5-.3-.9-.3s-.5,0-.7.2c-.7.4-1.5.8-2.2,1.2-.8.5-1.6,1-2.4,1.4-1.5.9-3,1.9-4.4,2.8-3,1.9-5.9,3.9-8.9,6-5.9,4.2-11.7,8.6-17.2,13.3-5.5,4.6-10.8,9.5-15.8,14.6-2.5,2.5-4.9,5.1-7.3,7.7-1.2,1.3-2.3,2.6-3.5,3.9-.4.5-.8.9-1.2,1.4,2.8-10.4,6.4-20.5,10.5-30.5Zm-17.6,118.9c-.3-2.7-.5-5.3-.7-8-.4-5.6-.6-11.1-.6-16.7,0-10.9.7-21.7,2.1-32.5,1.1-8,2.6-16,4.5-23.9.7-.8,1.4-1.7,2.1-2.5,1.1-1.3,2.3-2.7,3.5-4,1.2-1.3,2.3-2.6,3.5-3.9,2.4-2.6,4.8-5.2,7.3-7.7,2.5-2.5,5-5,7.6-7.4,5.6-5.2,11.4-10.2,17.4-14.8,3.9-3,8-6,12.1-8.8,2-1.3,4-2.7,6-3.9-.1.1-.2.3-.3.4,0,.2-.1.4,0,.6,0,0,.1.2.2.2.1,0,.3.1.4,0,.4-.1.7-.3,1.1-.5.4-.2.7-.4,1-.6.2-.1.4-.3.6-.4.5-.3,1-.6,1.5-1,.9-.6,1.8-1.2,2.7-1.9.9-.6,1.8-1.2,2.7-1.9.1,0,.3-.2.4-.3,0,.1.2.2.2.3,1.1,1.6,2.3,3.2,3.4,4.8.9,1.3,1.9,2.6,2.8,3.9,1.2,1.6,2.3,3.2,3.5,4.8,2,2.7,4.1,5.4,6.1,8.1,1,1.4,2.1,2.8,3.1,4.2,1.1,1.5,2.1,3,3.2,4.4,2.2,3.1,4.4,6.2,6.6,9.3,1.1,1.6,2.3,3.1,3.5,4.6.5.7,1.1,1.4,1.7,2.1.5.6,1,1.2,1.5,1.8,2.4,2.9,4.9,5.7,7.4,8.5,2.4,2.7,5,5.3,7.9,7.5.8.6,1.7,1.3,2.5,1.9-.1.3-.2.6-.3,1-1.4,4-2.7,8.1-3.9,12.2-2.4,8.2-4.4,16.5-5.9,24.9-3,16.3-4.3,32.9-4,49.4,0,2.4.1,4.9.2,7.3,0,1.4.1,2.7.2,4.1,0,.7,0,1.4.2,2.1,0,.2,0,.5.1.7,0,.7.1,1.4.2,2.1,0,.8.2,1.7.2,2.5-1,.7-1.9,1.4-2.9,2.1-.2,0-.4.1-.6.2-1.4.9-2.8,1.8-4.1,2.8-1.5,1.1-2.9,2.2-4.3,3.3h0c-1.1.8-2.1,1.7-3.2,2.4-.7.5-1.4,1-2.1,1.4-.7.5-1.4.9-2.1,1.4-1.2.8-2.4,1.5-3.6,2.3-1.4.9-2.8,1.9-4.3,2.9-1.3.9-2.5,1.8-3.8,2.8-.5.4-1,.8-1.6,1.1-.6.4-1.2.9-1.8,1.3-.8.5-1.5,1.1-2.3,1.6-.5.3-.9.6-1.4.9-1.3.8-2.7,1.7-4,2.5-1.4.8-2.7,1.6-4.1,2.3-1.4.8-2.8,1.5-4.3,2.3-.9.5-1.8,1-2.7,1.5,0-.2-.2-.4-.3-.5-.2-.2-.6-.4-.9-.4s-.6.1-.9.4c-.8.8-1.6,1.7-2.4,2.4-.3.3-.7.7-1,1-.2.2-.4.4-.6.5-.5.3-1,.5-1.5.8-.3.1-.4.4-.5.7-.1,0-.2.2-.4.3,0,0-.1.1-.2.2-.3-.7-.6-1.3-.9-2-.2-.4-.7-.7-1.1-.8-.2,0-.3,0-.5,0-.3,0-.6,0-.9.2,0,0-.1,0-.2.1-.5-.5-.9-.9-1.4-1.4-.2-.2-.4-.3-.6-.4-4.8-4.9-9.3-9.9-13.7-15.2-1.3-1.6-2.6-3.2-3.9-4.9,0,0,0,0,0,0,0,0,0,0,0,0,0,0,0,0,0,0,0,0,0,0,0,0,0,0,0,0,0,0,0,0,0,0,0,0,0,0,0,0,0,0,0,0,0,0,0,0h0s0,0,0,0c0,0,0,0,0,0h0s0,0,0,0h0s0,0,0,0h0c-10-12.9-18.7-26.8-25.9-41.4-.4-.8-.8-1.6-1.1-2.4-.1-.3-.4-.5-.7-.6-.7-1.5-1.4-3-2.1-4.4-.1-.3-.5-.4-.8-.4h0Zm38.9,59.6s0,0,0,0c0,0,0,0,0,0,0,0,0,0,0,0Zm53.4,106.4c-7.8-6.1-15.3-12.7-22.3-19.7-7.5-7.4-14.4-15.3-20.9-23.7-6.3-8.2-12-16.7-17.3-25.6-5.3-9.1-10-18.5-14.2-28.2-4.1-9.8-7.5-19.8-10.4-30-2.8-10.3-5-20.8-6.4-31.4-.2-1.2-.3-2.3-.4-3.5.3.6.5,1.1.8,1.7,0,0,0,0,0,0,0,.4,0,.7.1,1,7.1,14.7,15.6,28.8,25.5,41.9,1.8,2.3,3.6,4.6,5.4,6.9.3.3.5.6.8,1,.2.2.3.4.5.6,2.2,2.7,4.5,5.4,6.8,8,1.9,2.2,3.9,4.3,5.9,6.4,0,.3.2.5.4.7.7.8,1.4,1.5,2.1,2.2.5.5,1.1,1.1,1.6,1.6,0,0,0,.1,0,.2,0,.4.1.9.2,1.3,0,.5.3.9.4,1.3.2.5.3,1,.5,1.5.3.8.6,1.6.9,2.4.4,1.1.9,2.2,1.3,3.3,1.1,2.8,2.3,5.6,3.5,8.3.4.9.8,1.9,1.2,2.8.7,1.6,1.5,3.3,2.2,4.9.4.9.8,1.7,1.2,2.6.8,1.6,1.5,3.1,2.3,4.7.4.9.9,1.8,1.3,2.6.8,1.5,1.7,3.1,2.5,4.6.5,1,1.2,2,1.7,3,.6,1,1.2,2,1.8,3,2.9,4.6,5.7,9.3,8.4,14,1.5,2.5,2.9,5,4.4,7.4,1.4,2.3,2.9,4.6,4.4,6.9,1.2,1.8,2.5,3.6,3.8,5.4.6.8,1.2,1.7,1.8,2.5.3.5.6.9.9,1.3.3.4.6.9,1,1.3,0,0-.1.1-.2.2-.7.7-1.4,1.5-2.1,2.3-.5.7-1.1,1.3-1.6,2Zm148.7,51.1h-.4c-10.6,0-21.3-.8-31.8-2.1-10.5-1.5-21-3.6-31.2-6.3-10.4-2.8-20.5-6.3-30.4-10.5-9.8-4.2-19.3-9-28.5-14.3-8.3-4.8-16.2-10.2-23.8-15.9.5-.6.9-1.1,1.4-1.7.4-.4.7-.9,1.1-1.3.7-.8,1.4-1.5,2.2-2.1.4-.3.8-.5,1.2-.8,1,.7,2,1.4,3,1.9,1.2.6,2.5,1.2,3.8,1.8,1.4.8,2.8,1.6,4.2,2.3.5.3,1.1.6,1.6.9,1,.5,2,.9,3,1.4.7.3,1.3.6,2,.9,1,.4,2.1.8,3.1,1.3.6.2,1.1.5,1.7.7,1.1.4,2.2.8,3.3,1.2,1.6.6,3.3,1,4.9,1.4.6.2,1.3.3,1.9.5.9.2,1.8.4,2.7.6,1.7.4,3.4.8,5.1,1.2,3.3.8,6.7,1.7,10,2.5.4,0,.8.2,1.2.2.4,0,.8.2,1.2.3.9.2,1.8.3,2.8.5,1.7.3,3.5.5,5.2.8,3.4.5,6.8.8,10.3.8,3.5,0,7,0,10.5.2,2.3,0,4.6.2,6.9.3.8,0,1.5-.6,1.7-1.3.3,0,.6,0,.9,0,.1.2.2.3.4.4.3.2.6.2,1,.1.3,0,.6-.4.8-.7.5,0,1.1,0,1.6-.2,7.3,4.8,14.9,9.3,22.7,13.3,12.6,6.5,25.8,12,39.3,16.2,4.5,1.4,9,2.7,13.5,3.8-10,1.2-20,1.8-30,1.8Zm112.6-26.8c0,0,.1,0,.2,0,0,0-.1,0-.2,0Zm121.2-151.9c-2.8,10.3-6.3,20.4-10.4,30.2-4.1,9.6-8.8,19-14,28-5.4,9.2-11.4,18.1-17.9,26.5-6.3,8.1-13.1,15.8-20.3,23-7.4,7.4-15.3,14.3-23.5,20.7-1,.8-2.1,1.6-3.1,2.3-.7-.3-1.5-.4-2.3-.6-.9-.2-1.7-.4-2.6-.6-1.1-.3-2.3-.6-3.4-.9,0,0,0-.2.1-.3.2-.6,0-1.2-.2-1.8-.3-.5-.8-.9-1.4-1.1-.2,0-.4,0-.6,0s-.5,0-.7,0c0-.3.2-.7.3-1,.2-.6.3-1.3.5-1.9,1.3-3.3,2.5-6.7,3.7-10.1,1.4-4,2.6-8.1,3.8-12.2.9-3.2,1.7-6.3,2.4-9.5.4-1.8.8-3.6,1.2-5.4,1.7-7.7,3-15.5,3.9-23.3.1,0,.2,0,.3-.1.2-.1.4-.3.5-.4.1-.1.3-.3.4-.4.2-.2.4-.4.7-.6.5-.5,1-.9,1.5-1.4.2-.2.2-.5,0-.7,0,0,.1-.1.2-.2,1-1.2,2-2.4,2.9-3.6,2-2.6,4-5.3,6-8,1.6-2.2,3.2-4.3,4.9-6.5,0,0,0,0,0,0,0,0,0,0,0,0,0,0,0,0,0,0,0,0,0,0,0,0,0,0,0,0,0,0,0,0,0,0,0-.1,0,0,0,0,0,0,0,0,0,0,0,0t0,0c1-1.3,2.1-2.7,3.1-4,0,0,0,0,0,0,0,0,0,0,0,0,0,0,0,0,0,0h0s0,0,0,0h0s0,0,0,0c0,0,0,0,0,0h0s0,0,0,0c0,0,0,0,0,0s0,0,0,0c0,0,0,0,0,0h0s0,0,0,0h0s0,0,0,0c0,0,0,0,0,0h0s0,0,0,0c0,0,0,0,0,0,0,0,0,0,0,0,0,0,0,0,0,0t0,0s0,0,0,0t0,0s0,0,0,0c0,0,0,0,0,0h0s0,0,0,0c0,0,0,0,0,0,0,0,0,0,0,0t0,0h0s0,0,0,0c0,0,0,0,0,0h0c1-1.3,2-2.5,3-3.8,0,0,0,0,0,0,0,0,0,0,0,0,0,0,0,0,0,0,0,0,0,0,0-.1,0,0,0,0,0,0,0,0,0,0,0-.1,1-1.3,2-2.5,3-3.8,0,0,0,0,0,0,0,0,0,0,0,0,0,0,0,0,0,0,0,0,0,0,0,0h0s0,0,0,0c0,0,0,0,0,0,0,0,0,0,0,0,0,0-.1.1-.2.2,1-1.3,2-2.6,3.1-4,0,0,0,0,0,0,0,0,0,0,0,0,0,0,0,0,0,0,0,0,0,0-.1.1,3.8-4.9,7.6-9.7,11.3-14.6,1.9-2.6,3.8-5.1,5.8-7.7,1.7-2.3,3.5-4.5,5.2-6.8,1.8-2.4,3.6-4.7,5.4-7.1,1.9-2.5,3.7-5,5.5-7.6,1.5-2.1,3-4.3,4.5-6.4.1-.2.2-.5.3-.8,1.7.1,3.4.2,5.1.3,3.2.1,6.4.2,9.6.2h.6s0,0,0,0c.5,0,1,0,1.5,0,1.2,0,2.3,0,3.5,0,.4,0,.7-.2,1-.5.3,0,.6,0,.9,0-1.4,9.1-3.3,18.1-5.7,27Zm8.4-56.1c0,2.9-.2,5.7-.4,8.6-.4,5.6-.9,11.1-1.7,16.7-.1.8-.2,1.5-.3,2.3-.4,0-.8,0-1.2,0-.2-.3-.6-.4-.9-.4-1.1,0-2.2,0-3.3,0-.6,0-1.2,0-1.8,0h0c-.2,0-.5,0-.7,0-3.1,0-6.2,0-9.4-.1-1.7,0-3.5-.1-5.2-.2-.6,0-1.2,0-1.8,0-.2,0-.3,0-.5,0s-.1,0-.2,0c0,0,0,0,0,0-.3,0-.6,0-.9,0-.2-.7-.4-1.5-.5-2.2,0-.3-.1-.5-.2-.8,0-.1,0-.3,0-.4,0-.2-.1-.4-.2-.6-.2-.8-.4-1.6-.6-2.4-.6-2.9-1.1-5.8-1.6-8.7-.1-.8-.3-1.5-.4-2.3-.2-.8-.3-1.6-.5-2.4-.2-.8-.4-1.7-.6-2.5-.2-.8-.4-1.5-.6-2.3-.3-1.3-.7-2.7-1.1-4-.5-1.5-.9-2.9-1.5-4.3-.6-1.5-1.1-3-1.7-4.5-.6-1.5-1.2-3-1.8-4.5-1.1-2.7-2.3-5.4-3.6-8.1-.6-1.4-1.3-2.8-1.9-4.2-.4-.9-.8-1.7-1.3-2.6-.3-.5-.5-1-.8-1.6-.7-1.3-1.4-2.7-2.1-4-.6-1.1-1.3-2.3-1.9-3.4,0-.2-.2-.3-.3-.5-.7-1.3-1.4-2.5-2-3.8-.3-.6-.7-1.1-1-1.7-.3-.5-.6-1.1-.9-1.6-.7-1.2-1.4-2.4-2.2-3.6-.8-1.2-1.6-2.4-2.4-3.6-.9-1.2-1.7-2.5-2.6-3.7-.5-.6-.9-1.2-1.4-1.8-.2-.3-.3-.6-.4-1-.6-1.4-1.2-2.8-1.8-4.2-.2-.4-.3-.9-.5-1.3-.1-.3-.3-.6-.6-.7,0,0,0,0-.1,0,.3-2,.5-4.1.7-6.1.8-7.4,1.2-14.7,1.4-22.1.3-15-.8-29.9-3.3-44.7-.4-2.6-.9-5.2-1.4-7.8.2,0,.3-.1.5-.2.8-.6,1.7-1.1,2.6-1.5,2.7-1.1,5.6-1.5,8.5-1.9,2.4-.3,4.7-.4,7.1-.6,1.1,0,2.3-.2,3.4-.3,5.6,7.5,10.7,15.2,15.4,23.3,5.2,8.9,9.8,18.1,13.8,27.6,4.1,9.7,7.5,19.7,10.3,29.9,2.8,10.2,4.9,20.6,6.4,31,1.4,10.7,2.1,21.4,2.2,32.2,0,2.7,0,5.3-.2,8Z"/>
      <path class="cls-1" d="m361.7,463.9c0,0-.1,0-.2,0"/>
      <path class="cls-1" d="m104.7,103.6s0,0,0,0"/>
    </g>
  </g>
</svg>