<?xml version="1.0" encoding="UTF-8"?>
<svg id="Layer_2" data-name="Layer 2" xmlns="http://www.w3.org/2000/svg" viewBox="0 0 118.3 71">
  <defs>
    <style>
      .cls-1 {
        fill: #fff;
      }
    </style>
  </defs>
  <g id="Layer_2-2" data-name="Layer 2">
    <g id="OBJECTS">
      <g>
        <path class="cls-1" d="m118.3,17h0l-7.8,6,1.7,2.8-11.1,16c-.5-5.5-7.5-7.3-10.6-2.8l-1.9-22.6,3.9-3.1-4-10.3-6.3,9.1,3.1,3.9-8.3,19.4c-1.4-5.3-8.8-5.9-11-.8l-5.3-20.4,3.8-3.8L59.2,0l-5.6,10.4,3.8,3.8-5.3,20.4c-2.1-5-9.6-4.5-11,.8l-8.3-19.4,3.1-3.9-6.3-9.1-4,10.3,3.9,3.1-1.9,22.6c-3.1-4.4-10.1-2.6-10.6,2.8L6,25.8l1.7-2.8L0,17l13.3,43h91.6l13.3-43h.1Z"/>
        <rect class="cls-1" x="14.6" y="64" width="90" height="7"/>
      </g>
    </g>
  </g>
</svg>