<?xml version="1.0" encoding="UTF-8"?>
<svg id="Layer_2" data-name="Layer 2" xmlns="http://www.w3.org/2000/svg" viewBox="0 0 117.2 70.4">
  <defs>
    <style>
      .cls-1 {
        fill: #ebeb8a;
      }
    </style>
  </defs>
  <g id="OBJECTS">
    <g>
      <path class="cls-1" d="m117.2,16.8h0s-7.7,5.9-7.7,5.9l1.7,2.8-11,15.9c-.5-5.4-7.4-7.2-10.5-2.8l-1.9-22.4,3.9-3.1-4-10.2-6.2,9,3.1,3.9-8.2,19.2c-1.4-5.3-8.7-5.8-10.9-.8l-5.3-20.2,3.8-3.8L58.6,0l-5.5,10.3,3.8,3.8-5.3,20.2c-2.1-5-9.5-4.5-10.9.8l-8.2-19.2,3.1-3.9-6.2-9-4,10.2,3.9,3.1-1.9,22.4c-3.1-4.4-10-2.6-10.5,2.8l-11-15.9,1.7-2.8L0,16.8l13.2,42.6h90.7l13.2-42.6h0Z"/>
      <rect class="cls-1" x="13.7" y="63.1" width="89.8" height="7.3"/>
    </g>
  </g>
</svg>