<?xml version="1.0" encoding="UTF-8"?>
<svg id="Layer_2" data-name="Layer 2" xmlns="http://www.w3.org/2000/svg" viewBox="0 0 388.5 277.3">
  <defs>
    <style>
      .cls-1 {
        fill: #fff;
        stroke: #fff;
        stroke-miterlimit: 10;
      }
    </style>
  </defs>
  <g id="_2" data-name="2">
    <g>
      <path class="cls-1" d="m387,25.8l-.3-1.9-1.9-.3c-.6-.1-1.2-.2-1.9-.3-.7-3-1.3-4.8-3.2-5h0c-4.4-1.1-10.8-1.4-18.9-1.1h-.7s-2.1,1.4-2.1,1.4c0,0,0-.1-.3-.4-.4-.4-1.2-.8-1.2-.7-.3,0-.7-.2-.9-.2-.9-.1-1.7-.2-2.5-.3-2.8-6.7-13.9-7.2-20.6-5.9-6.1,1.2-7.4,4.4-8.2,6.8-.3-1.9-.7-3.7-1-5.6-.1-.5-.2-1.1-.4-1.6-.1-.6-.2-1-.5-1.9l-.2-.6c0,0-.1-.3-.2-.4,0-.2-.2-.3-.3-.5-.5-.6-1-1-1.5-1.2-.9-.5-1.7-.7-2.4-.8-1.4-.3-2.6-.3-3.8-.3-.7,0-1.5,0-2.2,0-3.9-7.7-17.5-3.9-24.1-2-5.3,1.5-8.5,5.1-9.1,10.2,0,0-.2.1-.2.2-.9.9-1.8,1.9-2.5,2.9-.9,0-1.7,0-2.5,0-3.2-4.7-13.7-6.2-20.3-5.2-6.2.9-10.1,3.3-12.7,7.7-.5,0-1.1.1-1.6.2h-1.2c0,.1-.7,1-.7,1h0c-.4.6-.5.9-.8,1.3-.2.4-.4.8-.5,1.2-.3.8-.5,1.7-.6,2.5-.2,1.7-.2,3.5.3,5.2.4,1.6.9,2.9,1.4,4.2.5,1.3,1.1,2.6,1.6,3.9,1.1,2.6,2.2,5.1,3.1,7.6.5,1.3.9,2.5,1.2,3.7.3,1.2.6,2.5.8,3.8.9,5.4,1.7,10.9,2.8,16.4.4,1.7.7,3.5,1.1,5.2l-.3-.9-.9-2.7c-.4-1.2-1.2-2.4-2.1-3.3-1.9-1.9-4.5-2.8-6.8-3-2.3-.2-4.5,0-6.6.7-2.1.6-4.1,1.6-5.9,3-.9.7-1.8,1.6-2.5,2.9-.7,1.2-1.2,2.9-.9,4.5,0,.4.2.8.3,1.2-3.5,1.3-10.7,4.2-16.4,8.7l-1.2.9.2,1.5c4.8,44.9,28,80.9,30.3,84.3,6.8,16.3,11,23,15,29.4,0,.1.2.3.3.4,0,0,0,0,0,.1h0c1.3,2.1,2.5,4.1,3.9,6.4,5.2,9.2,9.9,32,10.3,40.4.3,5.3,1.2,11.7,5.5,14.9,2.2,1.6,4.9,2.2,8.2,1.8,3.2,6.9,9.1,10.5,17.2,10.5,3.9,0,8.2-.8,13-2.4,12.7-4.3,56.7-15.2,57.1-15.3h.1c8.5-2.7,12.9-5.3,14.4-8.6,1-2.4.3-4.5-.4-6.1,1.2-.7,2.3-1.4,3.2-2.2,4.2-3.6,5.2-12.1,3.4-28.5-.3-2.5-.2-5.5-.1-8.7.2-9.4.5-21.1-9.8-23,.2-5.7.8-11.5,1.3-17.3.6-6.6,1.3-13.1,2-19.7,1.4-13.1,3-26.2,4.5-39.4,1.3-13.2,2.6-26.3,3.6-39.5.5-6.6,1-13.2,1-19.9,0-3.3,0-6.7-.1-10-.2-3.4-.3-6.6-.8-10.2Zm-9.9-5.8l-.2,1.3c0,0-6.3-.9-13.7-.4v-1.3c7.5-.4,13.8.4,13.9.4Zm-30.8-5.9l-.5,1.2c0,0-7.8-3.5-14.6-.3l-.6-1.2c7.3-3.4,15.4.2,15.7.3Zm-2.1,2.4c-1,0-2.1,0-3.1-.1-2.6,0-5.1-.1-7.8,0,0,0,0,0,.2,0,3.6-.7,7.7-.6,10.8.2Zm6.2,2.4l-.2,1.3c-4-.5-16.3-1-20.7.3l-.4-1.3c4.9-1.4,17.9-.7,21.2-.4Zm-46.6-13.1c-2,.2-4,.4-6,.4-.4,0-.7,0-1.1,0,3-.5,5.3-.7,7-.5Zm-7.1,3.3c3-.2,6.5-.6,9.9-1,6.1-.8,9.6-1.2,10.9-.5l-.6,1.2c-.9-.5-5.8.1-10.1.7-3.4.4-6.9.9-10,1.1-7.8.4-12,2.7-16.6,6.6l-.8-1c4.7-3.9,9.3-6.4,17.4-6.8Zm-21.2,13.1h0s0,0,0,0h0Zm-10.4-8.3l-.4,1.3c-5.5-1.7-14.3-1.5-18.8,1.9l-.8-1.1c4.9-3.7,14-4,20-2.1Zm-1.5,2.8c-2.9.2-5.7.4-8.6.7-2.3.2-4.6.4-6.8.6,1.3-.8,3.1-1.4,5.6-1.8,3.3-.5,7-.2,9.9.5Zm-17,42.6c-1-8.1-4.5-17.5-6.5-20.9-2.1-3.6-3.6-10.1-3.7-11.4h1.3c.1,1,1.5,7.3,3.5,10.7,2.1,3.5,5.7,13.2,6.7,21.5l-1.3.2Zm-15,8c2.4-.6,4.9-.4,7.2.5.6.2,1.1.5,1.7.8.3.2.6.4.8.7.2.3.4.5.5.8.6,1,1.2,2.1,1.7,3.2,1,2.2,2,4.4,2.8,6.6.4,1.1.7,2.3.9,3.5.2,1.2.3,2.4.4,3.6.2,2.4.3,4.7.5,7.1.1,2.4.3,4.7.6,7.1.2,2.4.6,4.7,1.1,7-1.5-4.5-2.2-9.3-2.7-14-.3-2.4-.5-4.7-.7-7.1-.1-1.2-.3-2.3-.5-3.5-.2-1.1-.5-2.2-.9-3.3-.7-2.2-1.6-4.4-2.6-6.5-.5-1.1-1-2.1-1.6-3.1-.1-.2-.3-.5-.4-.7-.2-.2-.3-.3-.5-.5-.4-.3-.9-.6-1.4-.8-2.1-.9-4.4-1.2-6.7-.8-2.3.4-4.3,1.7-5.9,3.5,1.4-1.9,3.4-3.4,5.8-4.1Zm19.7,37.2c-.4-2.4-.7-4.9-1-7.3-.3-2.4-.5-4.9-.7-7.4-.2-2.5-.2-4.9,0-7.4.6,4.9,1.4,9.7,2,14.6l1,7.3c.3,2.4.6,4.9.9,7.3v.2s0,.1,0,.1c-.6,1-1.1,2-1.7,3-.6,1-1.2,2-1.8,2.9.4-1.1.9-2.1,1.3-3.2.4-1,.9-2,1.4-3-.5-2.4-.9-4.8-1.3-7.2Zm-.6,82.1c-.9,1.2-1.5,2.7-1.8,4.4-2.6-4.8-5.7-10.9-9.7-20.6l-.2-.5c-.2-.4-24.2-36.4-29.4-80.7,4.6-3.3,10.1-5.6,13.2-6.8.9,3.4,1.9,6.7,3.1,10,1.2,3.6,2.6,7,4.1,10.5,3.2,6.8,7.1,13.3,12.2,18.8-3.1-6.8-5.9-13.5-8.3-20.4-1.2-3.4-2.4-6.9-3.4-10.4-1-3.5-1.9-7-2.7-10.6-.4-1.7-.8-3.6-1-5.2,0-.2,0-.4.3-.8.2-.4.6-.8,1.2-1.2.4-.3.9-.6,1.4-.9,1.7,10.8,5,21.1,5,21.1,0-.8-2.3-13.8-2.3-13.8,3.9,14.8,7.3,24.7,7.3,24.7-1.9-7.3-3.1-17-3.1-17,6,21.1,9.1,25.8,9.1,25.8,1.3-.6,2.5-.7,2.5-.7-1,.9-1.7,1.6-1.7,1.6.7,1.2.8,3.2.8,4.5-.2.2-.4.5-.7.7l-.2.2-.3.5h0c-.3.5-.5.9-.7,1.4-.2.5-.3.9-.5,1.4-.3.9-.6,1.8-.9,2.7-.5,1.8-1,3.6-1.4,5.5-.8,3.7-1.4,7.3-1.7,11-.3,3.7-.4,7.4-.2,11.1.1,3.7.6,7.3,1.2,10.9-.1-3.6-.1-7.3.2-10.9.3-3.6.8-7.2,1.6-10.7.7-3.5,1.7-7,2.9-10.3.6-1.7,1.2-3.3,1.9-4.9.4-.8.7-1.6,1.1-2.4.3-.7.7-1.4,1-2,1.5-1.4,2.8-2.9,4-4.6.7-.9,1.3-1.8,1.9-2.8.6-1,1.1-1.9,1.7-3.1l.3-.7v-.8c-.8-4.2-1.4-8.5-1.9-12.7-.3-2.1-.5-4.2-.7-6.3,0-1-.2-2.1-.2-3.1,0-1,0-2.1,0-2.8v-.6s-.1-.5-.1-.5c-1.7-5.1-3-10.4-4.1-15.8-1.1-5.4-1.9-10.8-2.8-16.3-.3-1.4-.5-2.8-.9-4.3-.4-1.4-.9-2.8-1.4-4.2-1-2.7-2.1-5.3-3.2-7.8-.5-1.3-1.1-2.5-1.6-3.8-.5-1.2-1-2.5-1.2-3.6-.3-1-.3-2-.2-3.1,0,0,0-.1,0-.2.4,0,.8.2,1.2.5.9.5,1.7,1.2,2.5,1.9,1.6,1.5,3.1,3.3,4.3,5.1,1.4,2.1,3,3.8,4.5,5.6l4.7,5.3c3.1,3.5,6.4,7,9.3,10.4.6.8,1.2,1.8,1.7,2.8.6,1,1.1,2,1.6,3.1,1,2.1,1.9,4.2,2.8,6.3.9,2.1,1.7,4.3,2.3,6.5.7,2.3,1.3,4.5,1.7,6.7.9,4.5,1.2,9.1.9,13.7-.2,4.6-.9,9.1-2,13.6-1,4.3-2.4,8.5-3.9,12.7-1.4.5-2.9.9-4.3,1.3-1.7.4-3.4.8-5,1.2-3.4.7-6.8,1.2-10.3,1.6,3.5,0,7-.1,10.5-.4,1.7-.2,3.5-.4,5.2-.6,1.7-.3,3.5-.5,5.2-.9h0s.6-.1.6-.1l.2-.6c1.4-3.7,2.6-7.4,3.7-11.3.8,0,1.6-.1,2.5-.2v-1c-.8,0-1.5.1-2.2.2.1-.4.2-.8.3-1.3.5-2,.9-4,1.2-6,.9-.2,1.9-.4,3-.6l-.2-1c-.9.2-1.8.3-2.6.5.3-1.9.5-3.9.6-5.9.9-.3,1.9-.6,3-.8l-.2-1c-1,.2-1.9.5-2.7.7,0,0,0,0,0,0,.1-2.4.1-4.9,0-7.3.9-.3,2-.5,3.1-.7l-.2-1c-1.1.2-2.1.4-3,.7-.2-2-.4-4-.8-6-.4-2.3-1.1-4.7-1.7-6.9-.7-2.3-1.5-4.6-2.4-6.7-.3-.7-.6-1.5-.9-2.2.5.2,1,.5,1.5.8l.5-.8c-.8-.6-1.7-1-2.6-1.3-.4-1-.9-2-1.4-3-.5-1.1-1.1-2.1-1.6-3.2-.6-1.1-1.2-2.1-2-3.2-3.1-3.7-6.3-7-9.4-10.5l-4.6-5.2c-1.5-1.8-3.1-3.5-4.3-5.3-1.4-2-2.9-3.9-4.7-5.6-.8-.8-1.8-1.5-2.8-2.2,9.6-.6,19.3-1.3,28.9-1.7.9,0,1.8,0,2.6,0l.5,1.4,2.6,7.7,5.1,15.5.6,1.9.7,2.1c.5,1.4,1.1,2.7,1.8,4,.8,1.3,1.5,2.6,2.6,3.9,1.1,1.2,2.4,2.4,4.3,3.2.9.4,2,.6,3.1.5,1.1,0,2.2-.4,3.1-.9.5-.2.9-.6,1.2-.9.1,0,.2-.1.3-.3.2-.2.3-.3.4-.5.3-.4.4-.7.5-1,.5-1.2.5-2,.6-2.8.1-3.2-.3-5.9-.8-8.7-.9-5.5-2-10.8-3.4-16.1-1.3-5.3-3.1-10.4-4.8-15.7-.9,11.2,2.1,21.9,3.4,32.5.3,2.6.6,5.4.4,7.6,0,.4-.1.8-.2,1-.1,0-.3.2-.4.2-.6.3-1,.3-1.7,0-.7-.3-1.4-.9-2.1-1.8-.7-.8-1.3-1.9-1.9-2.9-.5-1.1-1-2.2-1.5-3.4l-.6-1.8-.6-1.9c-1.6-5.2-3.3-10.4-5-15.6-.8-2.6-1.7-5.2-2.6-7.8l-.6-1.6c1.8-2.4,4.2-4.3,6.9-5.6,3.4-1.6,7.4-2.1,11.5-2.3,4.4-.2,8.8-.8,12.9-1.1,1,0,2-.2,3-.2,1,0,1.9,0,2.6.1.1,0,.2,0,.3,0,0,.3.2.7.3,1,.1.5.2,1,.4,1.5,1.8,8.2,3.3,16.7,5,25.1l2.4,12.6c.5,2.1.9,4.2,1.8,6.3.5,1.1,1,2.2,2,3.1.5.4,1.2.8,1.9.8.7,0,1.3-.2,1.7-.5-.6,0-1.1-.2-1.4-.4-.3-.3-.6-.6-.7-1-.3-.8-.4-1.8-.5-2.7-.1-2-.3-4.2-.5-6.3l-1.8-12.7c-.6-4.2-1.2-8.3-1.9-12.5.7-.4,1.2-.8,1.7-1.2.5,5.1,1.3,10.1,2.1,15,.5,3,1,5.9,1.3,8.9l1,8.9-.6-9c-.2-3-.6-6-1-8.9-.6-5.3-1.3-10.6-1.6-15.9l.7-.6c.5-.4,1-.7,1.4-.9.2,0,.4-.2.6-.2h.3c0,0,.5-.1.5-.1,2.9-.2,6.1-.2,9.1-.2,3.1,0,6.2.1,9.3.3,1.3,0,2.7.2,4,.3.1.6.3,1.3.4,2,.8,6,1.1,12.3,1.4,18.5.1,3.1.3,6.2.3,9.4,0,3.2,0,6.2,0,9.4h0s.5,1.6.5,1.6h0s4.9,2,4.9,2l-.8-5.3.6,1.6h0c-.6-6.3-.8-12.5-1-18.8-.3-6-.5-12-1.2-18.1l2.4-1.6c2.2,0,4.7-.1,7.2,0-1.6,0-3.2,0-4.8.1h-2.2c0,.1-.2,2.3-.2,2.3h0c-.3,2.2-.2,4.2,0,6.2.2,2,.5,3.9.8,5.8.7,3.8,1.6,7.5,2.3,11.2.7,3.7,1.5,7.4,1.7,11.1,0,1.8,0,3.7-.4,5.5-.2.9-.6,1.7-1.1,2.5-.6.7-1.3,1.3-2.2,1.6.9-.2,1.8-.7,2.6-1.3.7-.7,1.3-1.5,1.7-2.5.8-1.8,1.1-3.8,1.3-5.7.3-3.9.1-7.8-.2-11.6l-1-11.3c-.2-2.9-.4-5.8-.3-8.5.9,0,1.7,0,2.6,0,1.6,0,3.3,0,4.9,0,2.6.1,5.2.3,7.7.7.3,2.5.4,5.1.5,7.7.1,3.2.2,6.5.1,9.8,0,6.5-.5,13-1,19.6,0,.5,0,.9-.1,1.4-.2.5-.5,1-.8,1.4l.6.4c-.3,3.9-.6,7.9-1,11.8-.3,0-.7,0-1.1,0v1c.4,0,.7,0,1,0-.2,2.1-.4,4.1-.6,6.2h-.7s0,1,0,1h.5c-.2,2-.4,4-.6,6h-.8s0,1,0,1h.7c-.2,2.3-.5,4.6-.7,6.9h-1.7c0,0,.3-3.2.3-3.2l1-11.3c.3-3.8.6-7.5.8-11.3-.5,3.7-1,7.3-1.5,11l-3.5.2v1s3.4-.2,3.4-.2l-.7,6h-3.5c0,.1,0,1.1,0,1.1h3.3c0-.1-.4,3.4-.4,3.4-.9,7.5-1.7,15-2.5,22.5-.8,7.5-1.7,15-2.5,22.5-.4,3.8-.7,7.5-1,11.3-.3,3.8-.5,7.5-.7,11.3.9-7.5,1.7-15,2.7-22.4l2.8-22.4,1.7-18.2h1.7c0,.4,0,.8-.1,1.3-1.5,13-3.1,26.2-4.5,39.3-.7,6.6-1.4,13.1-2,19.7-.5,5.7-1,11.5-1.3,17.3-.7,0-1.4,0-2.1,0,.1-.5.3-1,.4-1.6l-1-.2c-.1.6-.3,1.2-.4,1.8-6.7.4-14,2.3-22.5,4.6-4,1.1-8.2,2.2-12.8,3.2-23,5.4-42.2,8.9-56.4,10.4-1.6-8.1-6.8-15.9-14.3-16.9.3-.6.6-1.2,1-1.9l-.9-.5c-.5.9-.8,1.6-1.1,2.3-.5,0-1.1,0-1.6,0-3.5.3-6.1,1.7-7.8,4.1Zm74.3,6.5l-5.4,1.4-5.4,1.3c-3.6.9-7.3,1.7-10.9,2.4-3.7.7-7.3,1.5-11,2.1-3.7.6-7.4,1.2-11.1,1.6,3.6-.9,7.2-1.8,10.9-2.6,3.6-.9,7.3-1.6,10.9-2.4,3.7-.7,7.3-1.5,11-2.1,3.7-.7,7.3-1.3,11.1-1.8Zm-69.2,4.5l-1,.2c.1.7.2,1.4.3,2.1-.3,0-.5,0-.8-.1-1.2-5.9-.3-8.7.6-10,.8-1.1,2.1-1.7,4-1.9,5.4-.5,9.8,5.6,11.2,12.2-.2,0-.4,0-.5,0,0,0,0,0,0,0h-.2c-1.6.2-3,.2-4.5.3-1.3-2.1-1.9-6.2-5.3-5.6-2.9.5-.9,3.4-1.4,5.5-.8,0-1.5-.1-2.2-.2,0-.8-.2-1.6-.3-2.4Zm118.7,50.6c-.3.8-2.1,2.9-11,5.6-2.7.7-44.7,11.1-57.5,15.4-10.5,3.5-17.8,2.7-21.9-2.4,3.4-.2,6.8-.7,10.1-1.1,4.5-.7,8.9-1.5,13.3-2.3,8.8-1.7,17.6-3.7,26.3-5.8-8.8,1.7-17.7,3.2-26.6,4.5-4.4.6-8.9,1.2-13.3,1.7-3.8.4-7.7.7-11.4.6-.3-.6-.6-1.3-.9-2l-.2-.7c.8,0,1.5,0,2.3,0,20.2,0,49.9-5.3,64.7-8.3,11.5-2.3,19.9-4.5,25.8-7,.4.8.5,1.3.3,1.8Zm4.2-10.3c-4.3,3.7-14.3,6.9-31.3,10.3-30.8,6.1-66.7,10.9-77.6,6.6-.4-1.9-.6-3.9-.7-5.6-.4-7.7-4-26.7-8.9-38.3,10.4,0,20.7-1.4,30.8-3,11.1-1.7,22.1-4,33-6.2,5.5-1.1,11-2.2,16.4-3.5,5.5-1.3,10.9-2.7,16.3-4.1,2.7-.7,5.4-1.4,8.1-1.9,1.3-.3,2.7-.5,4.1-.7,1.3-.2,2.7-.4,3.8-.3,1.1.2,1.5.5,1.8,1.6.1.5.2,1.1.2,1.8,0,.7,0,1.4,0,2.1.2,2.8.4,5.6.7,8.4l1.6,16.7.3,4.2c0,.7,0,1.4.1,2v2.1c.1,1.3-.2,2-1.2,2.8-.9.8-2.1,1.4-3.3,2-2.5,1.1-5.1,2-7.7,2.9-2.6.9-5.3,1.6-8,2.4-5.4,1.5-10.8,2.9-16.2,4.1-5.4,1.2-10.9,2.3-16.4,3.4-5.5,1-11,1.9-16.5,2.7-5.5.8-11.1,1.5-16.6,2-5.6.5-11.1.9-16.7.9,11.2.7,22.4-.1,33.5-1.4,11.1-1.4,22.2-3.2,33.1-5.6,5.5-1.2,10.9-2.5,16.3-4,2.7-.7,5.4-1.5,8.1-2.3,2.7-.8,5.4-1.7,8-2.9,1.3-.6,2.6-1.3,3.9-2.3.3-.3.6-.5.9-.9.3-.3.5-.7.7-1.1.4-.8.5-1.8.4-2.5v-2.1c0-.7-.1-1.4-.1-2.2l-.3-4.2-1.5-16.7c-.2-2.8-.5-5.6-.6-8.3,0-.7,0-1.3,0-2,0-.8,0-1.5-.3-2.4-.2-.8-.6-1.8-1.4-2.5-.8-.7-1.8-1-2.6-1.1-1.7-.2-3.1,0-4.5.3-1.4.2-2.8.5-4.2.7-2.8.5-5.5,1.2-8.2,1.9-5.4,1.4-10.8,2.8-16.3,4-5.4,1.3-10.9,2.3-16.4,3.4-11,2.2-21.9,4.4-32.9,6.2-10.5,1.7-21.1,3.1-31.6,3-.3-.6-.6-1.2-.9-1.7-.2-.4-.4-.7-.6-1.1,18.2,1.3,54.1-6.2,75.5-11.2,4.6-1.1,8.9-2.2,12.9-3.3,11.6-3.1,20.7-5.5,28.5-4.1,5.6,1,5.9,7.7,5.6,17.7,0,3.4-.2,6.6.2,9.5,2,17.9-.1,22.7-1.6,23.9Zm-1.3-53.5c2.1.9,4.1,2.5,4.9,4.9.6,2.2.8,4.4.8,6.7,0,2.2-.2,4.4-.4,6.6-.2,2.2-.5,4.4-.6,6.5-.4-4.4.2-8.8,0-13.1-.1-2.2-.4-4.3-1-6.3-.6-1.9-2.3-3.2-4.2-4-1.9-.8-4-1.2-6.2-1.4-2.1-.2-4.3-.1-6.5,0-2.2.2-4.3.5-6.5.9-1.1.2-2.1.5-3.2.7l-3.2.8c4.1-1.7,8.3-2.9,12.7-3.4,2.2-.3,4.4-.4,6.7-.3,2.2.2,4.5.5,6.6,1.4Zm4.9-87.5c-.8,8-1.7,15.9-2.6,23.9l-2.8,23.9c-1,7.9-1.9,15.9-3,23.8.5-8,1.2-16,2-23.9.8-8,1.7-15.9,2.5-23.9l2.9-23.8,1.5-11.9c.5-4,1.1-7.9,1.2-11.9,0,8-1,16-1.7,24Z"/>
      <ellipse class="cls-1" cx="285.4" cy="230.3" rx="11.2" ry="10.5"/>
      <path class="cls-1" d="m286.7,218.1c1.3.1,2.5.4,3.6.8l.4-.9c-1.2-.5-2.6-.8-3.9-.9v1Z"/>
      <path class="cls-1" d="m272,234.3l.9-.3c-.4-1.2-.6-2.4-.6-3.7h0c0,0-1,0-1,0,0,1.4.2,2.7.6,4Z"/>
      <path class="cls-1" d="m271.4,228.9h1c.1-1.1.5-2.3,1-3.5l-.9-.4c-.6,1.2-.9,2.5-1.1,3.9Z"/>
      <path class="cls-1" d="m276.3,221.5l-.7-.7c-1,.9-1.9,2-2.5,3.1l.9.5c.6-1.1,1.4-2,2.4-2.9Z"/>
      <path class="cls-1" d="m280.2,218c-1.3.5-2.4,1.1-3.5,1.9l.6.8c1-.7,2.1-1.3,3.3-1.8l-.3-.9Z"/>
      <path class="cls-1" d="m299.5,230.3c0-1.3-.2-2.7-.6-3.9l-.9.3c.4,1.2.6,2.4.6,3.6h0s1,0,1,0Z"/>
      <path class="cls-1" d="m298.4,235.6c.6-1.2.9-2.5,1.1-3.9h-1c-.1,1.1-.5,2.3-1,3.5l.9.4Z"/>
      <path class="cls-1" d="m285.5,218v-1c-1.4,0-2.7.2-4,.5l.3,1c1.2-.3,2.4-.5,3.7-.5h0Z"/>
      <path class="cls-1" d="m295.5,222.4c.8.9,1.5,2,2,3.1l.9-.4c-.5-1.2-1.3-2.3-2.2-3.4l-.7.7Z"/>
      <path class="cls-1" d="m293.6,239.9c-1,.7-2.1,1.3-3.3,1.8l.3.9c1.3-.5,2.4-1.1,3.5-1.9l-.6-.8Z"/>
      <path class="cls-1" d="m279.4,241.2c-1.1-.6-2.2-1.3-3.1-2.1l-.7.7c1,.9,2.1,1.7,3.3,2.3l.4-.9Z"/>
      <path class="cls-1" d="m289.1,242.1c-1.2.3-2.4.5-3.7.5h0v1c1.4,0,2.7-.2,4-.5l-.3-1Z"/>
      <path class="cls-1" d="m284.1,243.5v-1c-1.2-.1-2.4-.4-3.6-.8l-.4.9c1.2.5,2.6.8,3.9.9Z"/>
      <path class="cls-1" d="m291.5,219.4c1.1.6,2.2,1.3,3.1,2.1l.7-.7c-1-.9-2.1-1.7-3.3-2.3l-.4.9Z"/>
      <path class="cls-1" d="m275.4,238.2c-.8-.9-1.5-2-2-3.1l-.9.4c.6,1.2,1.3,2.3,2.2,3.4l.7-.7Z"/>
      <path class="cls-1" d="m294.5,239.1l.7.7c1-.9,1.9-2,2.5-3.1l-.9-.5c-.6,1.1-1.4,2-2.3,2.9Z"/>
      <path class="cls-1" d="m302,230.3c0-.4,0-.9,0-1.3h-1c0,.5,0,.9,0,1.3,0,.8,0,1.7-.2,2.5l1,.2c.2-.9.2-1.8.2-2.7Z"/>
      <path class="cls-1" d="m301.4,234.3l-1-.3c-.3,1.2-.8,2.3-1.5,3.4l.8.5c.7-1.2,1.2-2.4,1.6-3.7Z"/>
      <path class="cls-1" d="m299.1,239.1l-.8-.6c-.7,1-1.6,1.9-2.5,2.7l.6.8c1-.9,1.9-1.8,2.7-2.9Z"/>
      <path class="cls-1" d="m294.8,242c-1,.7-2.1,1.3-3.3,1.8l.4.9c1.2-.5,2.4-1.1,3.5-1.9l-.6-.8Z"/>
      <path class="cls-1" d="m286.7,244.9v1c1.4,0,2.7-.3,4-.7l-.3-.9c-1.2.4-2.4.6-3.7.7Z"/>
      <path class="cls-1" d="m296.8,220.3c.9.9,1.7,1.9,2.3,2.9l.9-.5c-.7-1.1-1.5-2.2-2.4-3.1l-.7.7Z"/>
      <path class="cls-1" d="m281.5,245.5c1.3.3,2.6.4,3.9.4v-1c-1.3,0-2.5-.1-3.7-.4l-.2,1Z"/>
      <path class="cls-1" d="m292.7,217.4c1.1.6,2.2,1.3,3.1,2.1l.6-.8c-1-.9-2.1-1.6-3.3-2.2l-.4.9Z"/>
      <path class="cls-1" d="m299.6,224.3c.5,1.1.9,2.3,1.1,3.5l1-.2c-.2-1.3-.6-2.6-1.2-3.8l-.9.4Z"/>
      <path class="cls-1" d="m288,215.9c1.2.2,2.5.5,3.6,1l.4-.9c-1.2-.5-2.5-.8-3.8-1.1l-.2,1Z"/>
      <path class="cls-1" d="m276.6,243.5c1.1.7,2.4,1.2,3.6,1.6l.3-.9c-1.2-.4-2.3-.9-3.4-1.5l-.5.8Z"/>
      <path class="cls-1" d="m270.8,225.4l-.9-.4c-.5,1.2-.8,2.6-.9,3.9h1c.1-1.1.4-2.4.8-3.5Z"/>
      <path class="cls-1" d="m276,242c-1-.7-2-1.6-2.8-2.5l-.8.6c.9,1,1.8,1.9,2.9,2.7l.6-.8Z"/>
      <path class="cls-1" d="m281.8,216.1l-.2-1c-1.3.3-2.6.7-3.7,1.3l.4.9c1.1-.5,2.3-1,3.5-1.2Z"/>
      <path class="cls-1" d="m269.8,235.5c.5,1.2,1.1,2.4,1.9,3.5l.8-.6c-.7-1-1.3-2.1-1.8-3.3l-.9.3Z"/>
      <path class="cls-1" d="m273.3,221.1l-.7-.6c-.9,1-1.6,2.1-2.2,3.3l.9.4c.5-1.1,1.2-2.2,2.1-3.1Z"/>
      <path class="cls-1" d="m286.7,215.8v-1c-1.2-.1-2.6,0-3.9.1v1c1.4-.2,2.7-.2,3.9-.1Z"/>
      <path class="cls-1" d="m269.9,230.3h0c0,0-1,0-1,0,0,1.3.2,2.7.5,4l1-.3c-.3-1.2-.5-2.4-.5-3.7Z"/>
      <path class="cls-1" d="m277.1,218l-.5-.8c-1.2.7-2.2,1.5-3.2,2.4l.7.7c.9-.9,1.9-1.6,3-2.3Z"/>
      <path class="cls-1" d="m368.3,169.1l-1,.2c.2,1.4.4,2.7.5,3.9h1c-.1-1.3-.3-2.7-.5-4Z"/>
      <path class="cls-1" d="m367.9,174.4c0,.5,0,1,0,1.6,0,.8,0,1.6-.1,2.3h1c0-.7.1-1.5.1-2.3s0-1.1,0-1.6h-1Z"/>
      <path class="cls-1" d="m275.7,156.6l.8.5c.7-1.2,1.4-2.3,2-3.4l-.9-.5c-.6,1.1-1.3,2.2-2,3.4Z"/>
      <path class="cls-1" d="m278.4,152.1l.9.5c.8-1.4,1.4-2.5,1.9-3.5l-.9-.4c-.5,1-1.1,2.1-1.9,3.5Z"/>
      <path class="cls-1" d="m281.1,146.9c0,.2-.1.3-.2.5l.9.4c0-.2.2-.4.2-.6.4-.9.8-2,1.3-3.1l-.9-.4c-.5,1.1-1,2.2-1.4,3.1Z"/>
      <path class="cls-1" d="m283,142.6l.9.4c.6-1.2,1.2-2.4,1.8-3.5l-.9-.5c-.6,1.1-1.2,2.3-1.8,3.5Z"/>
      <path class="cls-1" d="m367.2,163.9l-1,.2c.2.9.5,2.3.8,3.8l1-.2c-.3-1.5-.6-3-.9-3.9Z"/>
      <rect class="cls-1" x="269.7" y="163.7" width="4" height="1" transform="translate(-10.9 308.8) rotate(-58.2)"/>
      <path class="cls-1" d="m295.1,127.2l-.6-.8c-1,.8-1.9,1.7-2.9,2.8l.7.7c.9-1.1,1.9-1.9,2.8-2.7Z"/>
      <path class="cls-1" d="m262,179.2l.9.5c.6-1.1,1.2-2.2,2-3.4l-.9-.5c-.7,1.2-1.4,2.4-2,3.5Z"/>
      <path class="cls-1" d="m299.6,125l-.2-1c-.3,0-.6.1-.8.2-1,.3-2,.7-3,1.4l.5.8c.9-.6,1.8-1,2.7-1.3.2,0,.5-.1.8-.2Z"/>
      <path class="cls-1" d="m275.9,158.2l-.8-.5c-.7,1.1-1.4,2.2-2.1,3.4l.8.5c.7-1.1,1.4-2.3,2.1-3.4Z"/>
      <path class="cls-1" d="m270.3,167.2l-.8-.5c-.7,1.1-1.4,2.3-2.1,3.4l.8.5c.7-1.1,1.4-2.2,2.1-3.4Z"/>
      <path class="cls-1" d="m265.5,175.1c.6-1.1,1.3-2.2,2-3.4l-.8-.5c-.7,1.2-1.4,2.3-2,3.4l.8.5Z"/>
      <path class="cls-1" d="m288.3,133.4l.8.6c.8-1.1,1.6-2.2,2.3-3.1l-.8-.6c-.8,1-1.6,2-2.4,3.2Z"/>
      <rect class="cls-1" x="348.2" y="120.9" width="4" height="1" transform="translate(-4.4 13.4) rotate(-2.2)"/>
      <rect class="cls-1" x="342.9" y="121.1" width="4" height="1" transform="translate(-4.5 13.7) rotate(-2.3)"/>
      <rect class="cls-1" x="353.5" y="120.7" width="4" height="1" transform="translate(-4.3 13.3) rotate(-2.1)"/>
      <path class="cls-1" d="m363.3,122.3c.5.7.9,1.9.9,3.5h1c0-1.8-.5-3.2-1.1-4.1l-.8.6Z"/>
      <polygon class="cls-1" points="365.6 141.7 365.5 137.7 364.5 137.7 364.6 141.7 365.6 141.7"/>
      <polygon class="cls-1" points="341.6 121.2 337.7 121.4 337.7 122.4 341.7 122.2 341.6 121.2"/>
      <path class="cls-1" d="m365.4,131.1c0-1.8,0-3.2,0-4h-1c0,.7,0,2.2,0,4h1Z"/>
      <polygon class="cls-1" points="365.8 146.9 365.6 143 364.7 143 364.8 147 365.8 146.9"/>
      <path class="cls-1" d="m365.9,162.8l1-.3c-.2-1-.4-1.7-.5-2.2,0-.2,0-.8-.1-1.6h-1c0,.9.1,1.5.1,1.8,0,.5.3,1.3.5,2.3Z"/>
      <path class="cls-1" d="m366.1,157.5c0-1.1-.1-2.5-.2-4h-1c0,1.5.1,2.9.2,4h1Z"/>
      <polygon class="cls-1" points="336.3 121.4 332.4 121.6 332.4 122.6 336.4 122.4 336.3 121.4"/>
      <path class="cls-1" d="m365.9,152.2c0-1.2,0-2.6-.1-4h-1c0,1.4,0,2.7.1,4h1Z"/>
      <path class="cls-1" d="m325.8,121.9c-1.3,0-2.7.1-4,.2v1c1.4,0,2.7-.1,4-.2v-1Z"/>
      <rect class="cls-1" x="327.1" y="121.8" width="4" height="1" transform="translate(-5.4 15.8) rotate(-2.7)"/>
      <path class="cls-1" d="m361.2,120.5c-.3,0-1.2,0-2.4.1v1c1.3,0,2.2,0,2.5-.1.5,0,.9,0,1.2.2l.4-.9c-.5-.2-1.1-.3-1.7-.3Z"/>
      <path class="cls-1" d="m311.3,123.8c1.3,0,2.6-.2,4-.3v-1c-1.4,0-2.8.2-4,.3v1Z"/>
      <path class="cls-1" d="m306.1,124.2c1.2-.1,2.5-.2,3.9-.3v-1c-1.5.1-2.8.2-4,.3v1Z"/>
      <rect class="cls-1" x="364.4" y="132.4" width="1" height="4" transform="translate(-3.1 8.7) rotate(-1.4)"/>
      <path class="cls-1" d="m316.6,123.4c1.3,0,2.6-.2,4-.2v-1c-1.4,0-2.7.2-4,.2v1Z"/>
      <path class="cls-1" d="m285.5,137.9l.9.5c.7-1.2,1.4-2.3,2-3.4l-.8-.5c-.7,1.1-1.4,2.2-2.1,3.4Z"/>
      <path class="cls-1" d="m300.8,124.8c1-.2,2.4-.3,3.9-.5v-1c-1.7.2-3,.3-4.1.5v1Z"/>
      <path class="cls-1" d="m221.2,126.3c-1.1-2.8-2-5.7-3-8.6-.9-2.9-1.8-5.8-2.6-8.7-.4-1.5-.8-2.9-1.2-4.4l-1.1-4.4c-.8-2.9-1.3-5.9-2-8.9.8,6,1.9,12.1,3.4,18,1.4,5.9,3.3,11.8,5.3,17.5,2.1,5.7,4.3,11.4,6.9,16.9,1.3,2.8,2.7,5.5,4.1,8.2,1.5,2.7,2.9,5.4,4.6,7.9-2.8-5.4-5.3-10.9-7.7-16.5-2.4-5.6-4.7-11.2-6.6-17Z"/>
      <path class="cls-1" d="m229.7,107.9s2.4,3.7,6.2,7.4c0,0-10.3-15.9-13.7-31.3,0,0-5.9,2.1-9.8,4.7,0,0,4.2-1.4,8.5-3,0,0-1.9,1.1-5.9,3.1,0,0,2.2,8.2,6.5,18.4,0,0-2.5-8.2-4-17.6,0,0,3,12.7,6.9,23.7,4.4-6.6,5.5,1.8,7.1,9.9,1.6,8.1-.5,11.5,7.7,26,0,0-.3-13.4,2.6-24.4,0,0-6.9-6.3-12.1-17Z"/>
      <path class="cls-1" d="m260.7,179.1c1.8-6.9-4.4-19.4-4.4-19.4,3,2.3,4.1,4.9,4.1,4.9-8.2-25-1-38.5-1-38.5-3.8-.2-8.6-.2-8.6-.2-7.9,14.7-7.6,27.7-7.6,27.7,3.1-15.3,6.9-21.4,6.9-21.4-3.5,18.5-1,33.9-1,33.9,1.2-11.4,4.9-.2,6.3,4.9,1.3,5.1-6.8,7.2-6.4,14,4.1-6.9,11.7-5.9,11.7-5.9Z"/>
      <path class="cls-1" d="m255.6,71.9c4.1-2.2,6.3-3.2,6.3-3.2-3.3-5.4-6.3-13.2-6.3-13.2-2.7.9-3.8,1.1-3.8,1.1l2.6-1.6c-3.6-4.8-6.7-10.4-6.7-10.4,1.9,5.1,2.5,12.3,3.4,17.6.9,5.3,3,12.7,3,12.7,7.9-3.7,14.5-6,14.5-6-8.5,1.5-13,3.1-13,3.1Z"/>
      <path class="cls-1" d="m286,29.6c2-1.2,3.2-1.3,3.2-1.3-2.1-8-.8-13.1-.8-13.1-4.5,1.2-7.4,5.4-7.4,5.4,4.1,9.8,5.4,16.7,7,21.4,1.6,4.7,2.2,6.7,3,8.7.8,2,2.3,5.3,4.2,5.3s.1-8.5.1-8.5c-2.9-.8-3.7-1.1-3.7-1.1,2.3-.7,3-.9,3-.9-2.7-6.6-4.6-15.6-4.6-15.6-2.5-.3-4-.3-4-.3Z"/>
      <path class="cls-1" d="m269.4,118.1l-1.8-3.5,3.3,3.3s0-7.1,1.5-18.9l-10.7,1.6s-1.2-7.9-1.5-13.8l9.6-2.8s-1.5-3.1-3-10.4c0,0-.8.3-9.2,3.8,0,0,5.6-3.5,11.4-6.8,0,0-7.1,2.1-14.3,6.4,0,0,.5,3.5,2.8,7.1l8.4-1.6-8.6,3.5s1.2,14.5,3.5,24.4h7.6l-7.7,1.5s-2.6,5.9-5.4,8.6c0,0,5.4.2,14.3-2.3Z"/>
      <path class="cls-1" d="m253.3,42.6l.7-.7-.9-1c-.6-.6-1.3-1.3-1.8-1.9l-.7.7c.6.6,1.2,1.2,1.8,1.9l.9.9Z"/>
      <path class="cls-1" d="m267.4,58.2c-.7-.9-1.5-2-2.4-3.2l-.8.6c.9,1.2,1.7,2.2,2.4,3.1l.8-.6Z"/>
      <path class="cls-1" d="m269.3,63.3l.9-.4c-.7-1.4-1.3-2.5-2-3.5l-.8.6c.6.9,1.3,2,1.9,3.4Z"/>
      <path class="cls-1" d="m264.2,54c-.8-1-1.6-2.1-2.4-3.1l-.8.6c.8,1.1,1.7,2.1,2.4,3.1l.8-.6Z"/>
      <path class="cls-1" d="m271.3,68.1l.9-.3c-.5-1.4-1-2.6-1.5-3.7l-.9.4c.5,1.1.9,2.2,1.5,3.6Z"/>
      <path class="cls-1" d="m250.3,38.2c-1-1.1-1.6-2-2-2.7l-.9.4c.4.9,1.1,1.8,2.1,3l.7-.7Z"/>
      <path class="cls-1" d="m256.8,46.4l.6-.8c-.7-.9-1.6-1.8-2.6-2.8l-.7.7c1,1,1.8,1.9,2.6,2.8h0Z"/>
      <path class="cls-1" d="m274.2,104l1,.2c.3-1.3.5-2.6.7-3.9h-1c-.2,1.1-.4,2.4-.7,3.7Z"/>
      <path class="cls-1" d="m260.9,49.9c-.8-1-1.7-2.1-2.5-3.1l-.8.6c.8,1,1.7,2,2.5,3.1l.8-.6Z"/>
      <path class="cls-1" d="m275.6,90.1c0,1.2,0,2.3,0,3.5h1c0-1.2,0-2.4,0-3.5v-.4s-1,0-1,0v.4Z"/>
      <path class="cls-1" d="m275.1,98.9h1c.2-1.2.3-2.5.4-3.8h-1c0,1.2-.2,2.5-.4,3.8Z"/>
      <path class="cls-1" d="m275.6,88.4h1c0-1.4-.1-2.7-.2-4h-1c.1,1.4.2,2.7.2,4Z"/>
      <path class="cls-1" d="m273,73l.9-.3c-.4-1.3-.9-2.6-1.3-3.7l-.9.3c.4,1.2.8,2.4,1.3,3.7Z"/>
      <path class="cls-1" d="m274.4,78.1l1-.2c-.3-1.4-.6-2.7-1-3.9l-.9.3c.4,1.2.7,2.5,1,3.8Z"/>
      <path class="cls-1" d="m275.3,83.2h1c-.2-1.5-.4-2.8-.6-4.1l-1,.2c.2,1.2.4,2.6.6,3.9Z"/>
      <path class="cls-1" d="m268.5,199.1l.9-.3c-.4-1.4-.9-2.6-1.4-3.8l-.9.4c.5,1.1.9,2.3,1.3,3.7Z"/>
      <path class="cls-1" d="m258.5,188.6c-1.8.4-2.8,1.1-3.3,2.6l.9.3c.4-1.1,1.1-1.7,2.6-1.9l-.2-1Z"/>
      <path class="cls-1" d="m266.6,194.3l.9-.5v-.2c-.8-1.2-1.6-2.2-2.5-3l-.7.7c.9.8,1.6,1.7,2.2,2.8v.2Z"/>
      <path class="cls-1" d="m255.7,192.7l-1-.2c0,.3-.1.6-.1.9,0,.4,0,.8,0,1.2,0,.6,0,1.2.2,2l1-.2c-.1-.7-.2-1.3-.2-1.8,0-.3,0-.7,0-1,0-.3,0-.6.1-.9Z"/>
      <path class="cls-1" d="m263.8,189.7c-1.3-.8-2.6-1.3-4-1.3v1c1.1,0,2.3.4,3.4,1.1l.5-.8Z"/>
      <path class="cls-1" d="m333,65.8s3.1-6.4,2.6-21.4c0,0,1.6,8.4,1.5,20.6,0,0,13.2,8.6,22.4,5.4,0,0-11.4-4.3-12.4-13.2-8.4,1.3-8.6-15.3-1.5-4.8,0,0-3.6-10.7-2.1-27.7,0,0-2.6,0-9.4.2,0,0,5.9-1.3,15.5-2,0,0-8.6-1.2-17.5.5-.2,2.1,0,16,1,22.1,1,6.1.8,12.6-.2,20.3Z"/>
      <rect class="cls-1" x="323.4" y="105.6" width="4" height="1" transform="translate(-5.9 20.3) rotate(-3.5)"/>
      <rect class="cls-1" x="318.2" y="105.9" width="4" height="1" transform="translate(-6.1 20.4) rotate(-3.6)"/>
      <rect class="cls-1" x="312.9" y="106.3" width="4" height="1" transform="translate(-6.2 20.5) rotate(-3.7)"/>
      <rect class="cls-1" x="307.6" y="106.6" width="4" height="1" transform="translate(-6.4 20.6) rotate(-3.8)"/>
      <rect class="cls-1" x="328.7" y="105.3" width="4" height="1" transform="translate(-5.8 20.4) rotate(-3.5)"/>
      <rect class="cls-1" x="297.1" y="107.3" width="4" height="1" transform="translate(-6.7 20.9) rotate(-4)"/>
      <path class="cls-1" d="m285.3,109.3v-1c-1.4.1-2.7.2-4,.3v1c1.4-.1,2.7-.2,4-.3Z"/>
      <polygon class="cls-1" points="290.5 108.9 290.5 107.9 286.5 108.2 286.6 109.2 290.5 108.9"/>
      <polygon class="cls-1" points="295.8 108.5 295.7 107.6 291.8 107.8 291.9 108.8 295.8 108.5"/>
      <rect class="cls-1" x="302.4" y="107" width="4" height="1" transform="translate(-6.6 20.8) rotate(-3.9)"/>
      <rect class="cls-1" x="365.6" y="103.1" width="4" height="1" transform="translate(-5.1 20.3) rotate(-3.1)"/>
      <rect class="cls-1" x="370.9" y="102.9" width="4" height="1" transform="translate(-5.1 20.4) rotate(-3.1)"/>
      <rect class="cls-1" x="344.5" y="104.3" width="4" height="1" transform="translate(-5.5 20.3) rotate(-3.3)"/>
      <rect class="cls-1" x="339.2" y="104.7" width="4" height="1" transform="translate(-5.6 20.3) rotate(-3.4)"/>
      <rect class="cls-1" x="349.8" y="104" width="4" height="1" transform="translate(-5.4 20.4) rotate(-3.3)"/>
      <rect class="cls-1" x="334" y="105" width="4" height="1" transform="translate(-5.7 20.3) rotate(-3.4)"/>
      <rect class="cls-1" x="360.3" y="103.4" width="4" height="1" transform="translate(-5.2 20.4) rotate(-3.2)"/>
      <rect class="cls-1" x="355" y="103.7" width="4" height="1" transform="translate(-5.3 20.4) rotate(-3.2)"/>
      <path class="cls-1" d="m309.8,98.6c1.3,0,2.6-.1,4-.2v-1c-1.4,0-2.7.1-4,.2v1Z"/>
      <path class="cls-1" d="m346.8,97.2c1.2,0,2.6-.2,3.9-.3v-1c-1.4,0-2.8.2-4,.3v1Z"/>
      <path class="cls-1" d="m341.5,97.6c1,0,1.8-.1,2.6-.2h1.3c0-.1,0-1.1,0-1.1h-1.3c-.8.2-1.7.2-2.6.3v1Z"/>
      <path class="cls-1" d="m315.1,98.4c1.3,0,2.6,0,4-.1v-1c-1.3,0-2.7,0-4,.1v1Z"/>
      <path class="cls-1" d="m330.9,97.9c1.4,0,2.7,0,4-.1v-1c-1.3,0-2.6,0-4,.1v1Z"/>
      <path class="cls-1" d="m304.6,98.9c1.3,0,2.6-.1,3.9-.2v-1c-1.4,0-2.7.1-4,.2v1Z"/>
      <path class="cls-1" d="m336.2,97.8c1.4,0,2.7-.1,4-.2v-1c-1.3,0-2.6.1-4,.2v1Z"/>
      <polygon class="cls-1" points="362.6 96.3 366.5 96.1 366.5 95.2 362.5 95.3 362.6 96.3"/>
      <path class="cls-1" d="m297.9,98.3c-1.3,0-2.7.2-4,.3v1c1.4-.1,2.7-.2,4-.3v-1Z"/>
      <polygon class="cls-1" points="371.7 94.9 367.8 95.1 367.8 96.1 371.8 95.9 371.7 94.9"/>
      <polygon class="cls-1" points="320.4 98.3 324.3 98.1 324.3 97.1 320.3 97.3 320.4 98.3"/>
      <path class="cls-1" d="m357.3,96.6c1.3,0,2.6-.1,4-.2v-1c-1.4,0-2.7.1-4,.2v1Z"/>
      <path class="cls-1" d="m352,96.9c1.3,0,2.6-.1,4-.2v-1c-1.4,0-2.7.1-4,.2v1Z"/>
      <path class="cls-1" d="m283.6,100.9c1.3-.2,2.6-.4,3.9-.5v-1c-1.5.2-2.8.3-4.1.5l.2,1Z"/>
      <path class="cls-1" d="m292.7,98.8c-1.3.1-2.7.3-3.9.4v1c1.4-.1,2.7-.3,4-.4v-1Z"/>
      <rect class="cls-1" x="325.6" y="97.1" width="4" height="1" transform="translate(-2.7 9.4) rotate(-1.6)"/>
      <path class="cls-1" d="m299.3,99.2c1.3,0,2.6-.2,3.9-.3v-1c-1.4,0-2.7.2-4,.3v1Z"/>
      <path class="cls-1" d="m347.5,90.1c1.3,0,2.6,0,4-.1v-1c-1.4,0-2.7.1-4,.1v1Z"/>
      <path class="cls-1" d="m315.8,90.7c1.3,0,2.7,0,4-.1v-1c-1.3,0-2.6,0-4,.1v1Z"/>
      <path class="cls-1" d="m342.2,90.3c1.2,0,2.5,0,4-.1v-1c-1.5,0-2.8,0-4,.1v1Z"/>
      <path class="cls-1" d="m289.6,92.7c1.3-.2,2.6-.4,3.9-.5v-1c-1.5.2-2.8.3-4.1.5v1Z"/>
      <rect class="cls-1" x="363.3" y="88.4" width="4" height="1" transform="translate(-3.7 16.9) rotate(-2.6)"/>
      <rect class="cls-1" x="352.8" y="88.8" width="4" height="1" transform="translate(-3.4 14.7) rotate(-2.4)"/>
      <path class="cls-1" d="m325,89.5c-1.3,0-2.6,0-4,0v1c1.4,0,2.7,0,4,0v-1Z"/>
      <path class="cls-1" d="m284.4,93.6c1.2-.2,2.5-.5,3.9-.7l-.2-1c-1.4.2-2.7.5-3.9.7l.2,1Z"/>
      <polygon class="cls-1" points="331.7 90.4 335.6 90.4 335.6 89.4 331.6 89.4 331.7 90.4"/>
      <rect class="cls-1" x="368.6" y="88.1" width="4" height="1" transform="translate(-3.8 17.7) rotate(-2.7)"/>
      <path class="cls-1" d="m310.6,90.9c1.3,0,2.6-.1,4-.2v-1c-1.3,0-2.7.1-4,.2v1Z"/>
      <path class="cls-1" d="m340.9,90.3v-1s-1,0-1,0c-.9,0-1.9,0-3,0v1c1.1,0,2.2,0,3,0h.9Z"/>
      <path class="cls-1" d="m305.3,91.2c1.3,0,2.6-.2,3.9-.2v-1c-1.4,0-2.7.1-4,.2v1Z"/>
      <path class="cls-1" d="m326.4,90.5c1.4,0,2.7,0,4,0v-1c-1.3,0-2.6,0-4,0v1Z"/>
      <path class="cls-1" d="m294.8,92.1c1.3-.1,2.6-.3,3.9-.4v-1c-1.4.1-2.7.2-4,.4v1Z"/>
      <rect class="cls-1" x="358" y="88.6" width="4" height="1" transform="translate(-3.6 15.8) rotate(-2.5)"/>
      <path class="cls-1" d="m300,91.6c1.3-.1,2.6-.2,3.9-.3v-1c-1.4,0-2.7.2-4,.3v1Z"/>
      <path class="cls-1" d="m298.9,83.2c-1.3,0-2.7.1-4,.2v1c1.3,0,2.7-.1,4-.2v-1Z"/>
      <path class="cls-1" d="m321.4,83.9c1.4,0,2.7,0,4,0v-1c-1.3,0-2.6,0-4,0v1Z"/>
      <path class="cls-1" d="m358.3,82.4c1.5,0,2.8-.2,4-.3v-1c-1.2,0-2.6.2-4,.3v1Z"/>
      <path class="cls-1" d="m363.5,81.1v1c1.4-.1,2.2-.2,2.8-.4.3,0,.8-.1,1.3-.2v-1c-.6,0-1.1.1-1.5.2-.5.1-1.3.2-2.5.3Z"/>
      <path class="cls-1" d="m293.6,83.5c-1.4,0-2.7.2-4,.3v1c1.4-.1,2.7-.2,4-.3v-1Z"/>
      <polygon class="cls-1" points="316.1 83 316.1 84 320 83.9 320 82.9 316.1 83"/>
      <path class="cls-1" d="m300.2,83.2v1c1.3,0,2.7,0,4,0v-1c-1.3,0-2.7,0-4,0Z"/>
      <path class="cls-1" d="m335.8,82.4c-1.4,0-2.7.1-4,.2v1c1.3,0,2.6-.1,4-.2v-1Z"/>
      <polygon class="cls-1" points="337.2 82.4 337.2 83.4 341.2 83.2 341.1 82.2 337.2 82.4"/>
      <path class="cls-1" d="m326.7,83.8c1.1,0,2.2,0,3.1-.1h.9s0-1,0-1h-.9c-.9,0-2,.1-3.1.2v1Z"/>
      <path class="cls-1" d="m288.4,83.9c-1.4.1-2.8.3-3.9.5l.2,1c1.2-.2,2.5-.4,3.9-.5v-1Z"/>
      <path class="cls-1" d="m305.5,83.1v1c1.3,0,2.7,0,4,0v-1c-1.3,0-2.6,0-4,0Z"/>
      <rect class="cls-1" x="310.8" y="83" width="4" height="1" transform="translate(-.7 2.5) rotate(-.5)"/>
      <rect class="cls-1" x="342.5" y="82.1" width="4" height="1" transform="translate(-3.1 14) rotate(-2.3)"/>
      <path class="cls-1" d="m353,81.7v1c1.4,0,2.8-.1,4-.2v-1c-1.3,0-2.6.1-4,.2Z"/>
      <rect class="cls-1" x="347.7" y="81.9" width="4" height="1" transform="translate(-3.1 14.7) rotate(-2.4)"/>
      <path class="cls-1" d="m372.7,80.3c-1.5,0-2.9,0-4,.1v1c1.1,0,2.5,0,4-.1v-1Z"/>
      <path class="cls-1" d="m374,81.3c1.4,0,2.8,0,3.9,0v-1c-1.1,0-2.5,0-3.9,0v1Z"/>
      <path class="cls-1" d="m363.9,75.3c.7-.1,1.5-.1,2.5-.1v-1c-1,0-2,0-2.7.1-.4,0-.8.1-1.3.1v1c.6,0,1,0,1.4-.1Z"/>
      <path class="cls-1" d="m329.7,75.9v-1c-1.4.1-2.7.3-4,.4v1c1.5-.1,2.8-.2,4-.4Z"/>
      <path class="cls-1" d="m376.5,72.8c-1.1.6-2.2,1-3.6,1.2l.2,1c1.4-.2,2.7-.7,3.9-1.3l-.5-.9Z"/>
      <path class="cls-1" d="m294,76.4c1.2.1,2.5.3,4,.3v-1c-1.4,0-2.7-.2-3.9-.3v1Z"/>
      <path class="cls-1" d="m281.6,68.4l-.4-.4-.7.7.4.4c.7.8,1.5,1.7,2.3,2.5l.7-.7c-.8-.8-1.5-1.6-2.3-2.4Z"/>
      <path class="cls-1" d="m299.3,76.8c1.3,0,2.6.1,4,.1v-1c-1.3,0-2.7,0-3.9-.1v1Z"/>
      <path class="cls-1" d="m371.8,75.2v-1c-1.4.1-2.7,0-4,0v1c.6,0,1.3,0,2.1,0s1.3,0,1.9,0Z"/>
      <path class="cls-1" d="m277.4,64.3l-.6.8c1.1.9,2.1,1.9,2.8,2.7l.7-.7c-.8-.8-1.8-1.9-2.9-2.8Z"/>
      <path class="cls-1" d="m377.6,72.2l.6.8c1-.8,2-1.8,2.8-3l-.8-.6c-.8,1.1-1.6,2-2.6,2.7Z"/>
      <path class="cls-1" d="m324.3,75.4c-1.3.1-2.6.2-3.9.3v1c1.4,0,2.7-.2,4-.3v-1Z"/>
      <rect class="cls-1" x="353.5" y="72.8" width="1" height="4" transform="translate(264.2 425.3) rotate(-87.6)"/>
      <path class="cls-1" d="m346.7,75.1c1.4,0,2.7,0,3.9.1v-1c-1.2,0-2.6,0-3.9-.1v1Z"/>
      <path class="cls-1" d="m284.1,72.5c1.1,1,2.2,1.8,3.3,2.3l.4-.9c-1-.5-2.1-1.2-3.1-2.2l-.7.7Z"/>
      <path class="cls-1" d="m357.3,74.5v1c1.1,0,2.1,0,3,0s.6,0,.9,0v-1c-1.2,0-2.5,0-3.9,0Z"/>
      <path class="cls-1" d="m289.1,74.4l-.3.9c.3,0,.5.2.8.3.8.2,1.9.4,3.1.6v-1c-1-.2-2.1-.4-2.9-.6-.3,0-.5-.1-.8-.2Z"/>
      <path class="cls-1" d="m315.1,75.9v1c1.4,0,2.7-.1,4-.2v-1c-1.4,0-2.7.1-4,.2Z"/>
      <path class="cls-1" d="m331.5,75.6c1.1-.1,2.3-.3,3.4-.4v-1c-1.3,0-2.4.2-3.6.4h-.5c0,0,.1,1,.1,1h.5Z"/>
      <path class="cls-1" d="m307.4,76c-1,0-1.9,0-2.8,0v1c.9,0,1.9,0,2.8,0h1.1s0-1,0-1h-1.1Z"/>
      <path class="cls-1" d="m336.1,74.2v1c1.4,0,2.7-.1,4-.2v-1c-1.3,0-2.7,0-4,.2Z"/>
      <path class="cls-1" d="m309.9,76v1c1.3,0,2.6,0,4,0v-1c-1.3,0-2.7,0-4,0Z"/>
      <path class="cls-1" d="m341.4,74v1c.4,0,.9,0,1.3,0,.9,0,1.8,0,2.7,0v-1c-.8,0-1.7,0-2.5,0-.5,0-.9,0-1.4,0Z"/>
      <path class="cls-1" d="m305.2,221.1c-4.9-5.4-9.2-6.4-9.2-6.4,13.3,13.2,7.4,23.4,7.4,23.4.7-3.6.2-5.6.2-5.6-3.8,11.2-8.6,14.6-8.6,14.6,4.9.3,11.3,2.2,11.3,2.2-2.3-2-5.9-4-5.9-4,6.9,1.3,9,3.2,9,3.2,17.8-3.4,36.1-5.6,52.2-11.4-18.6,4.8-40.7,6.6-46,7-.8,0-1.2,0-1.2,0l24.1-4.4c-6.9-13.3-5.8-30-5.8-30-7.1-2.3-13.7-.8-13.7-.8,8.4-2.3,12.8-2,12.8-2,5.4-4.6,19.4-10.5,19.4-10.5-14.3,4.1-37.1,9.1-37.1,9.1-13.7,2.5-30.5,4.4-30.5,4.4,16.6,1.3,21.4,11.2,21.4,11.2Z"/>
      <path class="cls-1" d="m296.5,190.2c-13.9,2.7-10.4-1.3-6.5-3.5-7.2-2.7-11.2-9.2-9.7-14.7-4.1-6.9-3.2-13.3-3.2-13.3-4.8,11.1-12,20.8-12,20.8,5.3-5.6,9-11.1,9-11.1-3.2,8.2-8.3,13.9-8.3,13.9,8.2,3.6,11.3,14.7,11.3,14.7,16-.7,46.8-6.5,61.1-10.7-29,6.3-41.7,3.8-41.7,3.8Z"/>
      <path class="cls-1" d="m282.1,54.3c1.3,2.7,2.9,5.4,5.1,7.5,2.3,2,5.1,3.4,8.1,3.6-2.9-.5-5.6-2-7.7-4.1-2-2.1-3.5-4.7-4.6-7.4-.6-1.4-1-2.8-1.5-4.2l-1.2-4.3c-.9-2.9-1.9-5.7-2.9-8.5l-3.1-8.4-.7-2.1c-.1-.4-.2-.7-.3-1,0-.2-.1-.3-.1-.5h0c0-.1,0-.2,0-.3,0-.2-.2-.4-.3-.5-.5-.4-.9-.4-1.3-.5-.4,0-.8,0-1.2,0-.8,0-1.5,0-2.3.1-3,.3-5.9.7-8.9,1.1-3,.4-5.9.8-8.9.9,6,.3,11.9-.6,17.9-.9.7,0,1.5,0,2.2,0,.4,0,.7,0,1.1,0,.3,0,.7.1.8.2,0,.1.1.6.2.8.1.4.2.7.3,1.1l.7,2.1,3,8.4c1,2.8,2.1,5.6,3,8.4.9,2.8,1.7,5.8,2.9,8.5Z"/>
      <path class="cls-1" d="m300.3,14.3c1.4,0,2.7.4,4.2.5.7,0,1.5,0,2.2-.2l2-.4c1.4-.3,2.7-.5,4.1-.5.7,0,1.3,0,1.8.3.5.2.7.6.7,1.1,0,1.5.3,2.8.5,4.3.4,2.8.9,5.5,1.4,8.3,1.1,5.5,2.1,11,3.3,16.5l.8,4.1c.1.7.3,1.4.4,2,.1.7.2,1.4.4,2.1.8,2.7,1.7,5.4,2.8,8-.8-2.7-1.6-5.4-2.1-8.1-.1-.7-.3-1.4-.3-2,0-.7-.2-1.4-.3-2.1l-.7-4.2c-.9-5.5-2-11-3-16.5-.5-2.7-1.1-5.5-1.5-8.2-.2-1.4-.5-2.8-.6-4.1,0-.4,0-.9-.4-1.3-.3-.4-.7-.7-1.1-.8-.8-.3-1.6-.3-2.3-.3-1.5,0-2.9.4-4.2.7l-2,.5c-.7.2-1.3.3-2,.3-1.4,0-2.8-.2-4.2-.2-1.4,0-2.8.2-4.2.5,1.4-.2,2.8-.3,4.2-.2Z"/>
      <path class="cls-1" d="m353.1,31.1c0,.8,0,1.7,0,2.5.1,3.4.4,6.7.5,10l.6,10c0,1.7.1,3.3.1,5,0,1.7,0,3.3-.4,5,1.2-3.2,1.2-6.6,1.4-10,0-3.4-.1-6.7-.3-10.1-.1-3.3-.4-6.7-.8-10,0-.8-.2-1.7-.2-2.5,0-.8,0-1.7-.2-2.5-.3-1.7-.7-3.3-1.2-4.9.2,1.7.4,3.3.5,5,0,.8,0,1.6,0,2.5Z"/>
      <path class="cls-1" d="m380,40.6l.2,5.3c0,1.7,0,3.5-.1,5.3,0,1.8-.2,3.5-.2,5.3,0,1.8,0,3.5-.2,5.3-.2,1.7-.6,3.5-1.2,5.1-.3.8-.8,1.6-1.3,2.3-.6.7-1.3,1.2-2.1,1.6.8-.3,1.6-.8,2.3-1.4.6-.7,1.1-1.4,1.6-2.2.8-1.6,1.3-3.4,1.6-5.2.3-1.8.4-3.6.5-5.4l.3-5.3c.1-1.8.2-3.6.2-5.4l-.2-5.3c-.2-3.5-.4-7.1-.6-10.7v-.4s-.4,0-.4,0c-3.3-.1-6.7-.2-10-.2,3.2.4,6.4.7,9.6,1,0,3.4,0,6.8.2,10.3Z"/>
      <path class="cls-1" d="m293,149.9c.5,6.8,2,9.7,4.1-2.1,2.1-11.9,4.3,17.6,10.4,25.4,6.1,7.7,5.4,11-12,14.5,0,0,11.9,2.5,41.2-3.1-6.3-.3-28.8-14.2-31.5-27.7,0,0,2.3,3.5,6.8,5.3,0,0-7.4-5.4-8.6-15.3-1.2-9.9-.7-18.6,18.4-22.1,0,0-15.6.7-21.4,1.3-5.8.7-5.8,3-8.7,6.1-3,3.1-8.4,14-12.7,23.6,8.4-15,13.5-12.5,14-5.8Z"/>
      <path class="cls-1" d="m277.5,151.9c4-6.8,6.5-13.3,9.1-17.9s4.8-10.1,16-11.3c-5.4-1.6-9.1-12.7-9.1-12.7l-15.5,1.2c-.7,5.4-1.3,8.8-1.3,8.8,1.8-4.2,2.3-6.9,2.3-6.9,0,6.2-1,10.3-1,10.3,2.5-5.2,2.4-8,2.4-8,.4,9.3-1.4,13.8-1.4,13.8-1.9-4.5-4.9-6.4-4.9-6.4,7.1,6.8,3.4,29.1,3.4,29.1Z"/>
      <path class="cls-1" d="m302.6,61.7c1.1-1.6,1.5-3.5,1.7-5.3.3-3.7-.4-7.4-1.1-11-.7-3.6-1.6-7.1-2.5-10.6-.9-3.6-2.2-7-3.7-10.3.5,1.8,1,3.5,1.5,5.2.5,1.7.9,3.5,1.3,5.3l2.2,10.7c.7,3.5,1.4,7.1,1.4,10.6,0,1.8-.4,3.5-1.2,5-.9,1.5-2.4,2.6-4.2,3,1.8-.2,3.6-1.1,4.7-2.7Z"/>
      <path class="cls-1" d="m364.2,162.2c-.6-4.6-.8-9.3-1.4-14v7c.1,2.3.2,4.7.4,7,.2,2.3.5,4.7,1.3,7,.8,2.1,1.1,4.4.7,6.6,0,.6-.2,1.1-.3,1.7l-.2.8c0,.2-.1.4-.3.5-.2.2-.7.4-1.2.4-.5,0-1.1,0-1.7,0-2.4,0-4.7.4-7,.9-2.3.5-4.6,1.1-6.8,1.9-2.2.8-4.4,1.7-6.5,2.7,4.4-1.5,8.9-2.9,13.5-3.6,2.3-.3,4.6-.7,6.9-.7.6,0,1.2,0,1.8,0,.6,0,1.4-.2,2-.8.3-.3.4-.7.6-1l.2-.9c.2-.6.3-1.2.4-1.8.4-2.4,0-4.9-.8-7.2-.8-2.1-1.1-4.4-1.5-6.7Z"/>
      <path class="cls-1" d="m257.4,138.1c-.1,1.2-.2,2.5-.2,3.8,0,1.3,0,2.6.2,3.9.1,1.3.3,2.6.5,3.8.2,1.3.5,2.5.8,3.7.6,2.3,1.2,4.5,1.9,6.3.6,1.8,1.2,3.3,1.6,4.3.4,1,.7,1.6.7,1.6,0,0-.1-.6-.3-1.7-.2-1.1-.5-2.7-.9-4.5-.4-1.9-.8-4-1.3-6.4-.2-1.2-.4-2.4-.6-3.6-.2-1.2-.3-2.5-.4-3.7-.1-1.2-.2-2.5-.2-3.7,0-1.2,0-2.4,0-3.6.1-2.3.4-4.5.8-6.4.4-1.8.8-3.4,1.2-4.4.4-1.1.6-1.7.6-1.7,0,0-.4.5-.9,1.5-.5,1-1.3,2.4-1.9,4.3-.6,1.8-1.1,4.1-1.4,6.5Z"/>
      <path class="cls-1" d="m260.3,132.7c-.1.6-.2,1.2-.3,1.8,0,.6-.1,1.2-.1,1.8,0,.6,0,1.2,0,1.8,0,1.2.2,2.2.4,3.1.2.9.5,1.6.6,2.1.2.5.3.8.3.8,0,0,0-.3,0-.8,0-.5,0-1.3.1-2.2,0-.9.1-1.9.2-3,0-.5.1-1.1.2-1.7,0-.6.1-1.1.2-1.7,0-.6.1-1.2.2-1.7,0-.6.2-1.1.3-1.7.2-1.1.4-2.1.6-3,.2-.9.3-1.6.4-2.1.1-.5.2-.8.2-.8,0,0-.2.2-.5.7-.3.5-.7,1.1-1.1,1.9-.4.8-.8,1.8-1.2,2.9-.2.6-.3,1.1-.4,1.7Z"/>
      <path class="cls-1" d="m263.2,134.7c0,.6,0,1.3,0,1.9,0,.6,0,1.2.1,1.8.1,1.2.3,2.3.6,3.2.2.9.5,1.7.7,2.2.2.5.4.8.4.8,0,0,0-.3,0-.9,0-.5,0-1.3,0-2.2,0-.9,0-2,0-3.1,0-.6,0-1.1,0-1.7,0-.6,0-1.2,0-1.8,0-.6,0-1.2.1-1.8,0-.6,0-1.2.1-1.7.1-1.1.2-2.2.3-3.1,0-.9.1-1.7.2-2.2,0-.5,0-.9,0-.9,0,0-.2.3-.4.8-.2.5-.6,1.2-1,2.1-.4.9-.7,1.9-.9,3.1-.1.6-.2,1.2-.3,1.8,0,.6-.1,1.2-.2,1.9Z"/>
      <path class="cls-1" d="m235.6,151.4c-.9-1.9-1.9-4-3-6.3-.5-1.2-1.1-2.4-1.7-3.6-.6-1.2-1.1-2.5-1.7-3.7-.6-1.2-1.1-2.5-1.7-3.7-.6-1.2-1.1-2.4-1.6-3.6-1.1-2.3-2-4.5-2.9-6.4-.9-1.9-1.6-3.4-2.1-4.5-.5-1.1-.8-1.7-.8-1.7,0,0,.2.7.4,1.8.3,1.2.7,2.8,1.4,4.8.6,2,1.4,4.3,2.3,6.7.5,1.2,1,2.4,1.5,3.7.5,1.2,1.1,2.5,1.7,3.8.6,1.2,1.2,2.5,1.8,3.7.6,1.2,1.2,2.4,1.9,3.5,1.2,2.3,2.5,4.4,3.6,6.1,1.1,1.8,2.1,3.2,2.8,4.2.7,1,1.1,1.5,1.1,1.5,0,0-.3-.6-.8-1.7-.5-1.1-1.2-2.6-2.1-4.5Z"/>
      <path class="cls-1" d="m360.9,232.7c-.9.3-1.8.6-2.7.9-.9.3-1.8.6-2.7.9-.9.3-1.8.6-2.6.9-1.7.6-3.3,1.1-4.6,1.5-1.4.4-2.5.8-3.3,1-.8.2-1.3.4-1.3.4,0,0,.5,0,1.3,0,.8,0,2.1,0,3.5-.3,1.4-.2,3.1-.5,4.9-1,.9-.2,1.8-.5,2.7-.7.9-.3,1.8-.6,2.7-.9.9-.3,1.8-.6,2.7-1,.9-.3,1.8-.7,2.6-1,1.7-.6,3.2-1.3,4.6-1.9,1.3-.6,2.4-1.1,3.2-1.5.8-.4,1.2-.6,1.2-.6,0,0-.5,0-1.3.2-.8.2-2,.4-3.4.8-1.4.3-3,.8-4.7,1.3-.9.3-1.8.5-2.6.8Z"/>
      <path class="cls-1" d="m356.1,231.2c-.8.2-1.7.5-2.5.7-.8.3-1.7.5-2.5.8-.8.3-1.6.5-2.4.8-1.6.5-3,1-4.2,1.5-1.2.5-2.2.9-3,1.2-.7.3-1.1.5-1.1.5,0,0,.4,0,1.2-.1.8-.1,1.9-.2,3.1-.5,1.3-.2,2.8-.5,4.4-.9.8-.2,1.6-.4,2.5-.6.8-.2,1.7-.5,2.5-.7.8-.3,1.7-.5,2.5-.8.8-.2,1.6-.5,2.4-.8,1.5-.5,3-1.1,4.2-1.6,1.2-.5,2.2-1,2.9-1.3.7-.3,1.1-.5,1.1-.5,0,0-.4,0-1.2.2-.8.2-1.8.3-3.1.6-1.3.3-2.8.6-4.4,1-.8.2-1.6.4-2.4.6Z"/>
      <path class="cls-1" d="m352.3,228.7c-.6.2-1.3.4-1.9.6-.6.2-1.3.4-1.9.6-.6.2-1.2.4-1.8.7-1.2.4-2.3.9-3.2,1.3-.9.4-1.7.8-2.2,1.1-.5.3-.8.5-.8.5,0,0,.3,0,.9,0,.6,0,1.4-.2,2.4-.4,1-.2,2.2-.4,3.4-.7.6-.2,1.2-.3,1.9-.5.6-.2,1.3-.4,1.9-.6.6-.2,1.3-.4,1.9-.6.6-.2,1.2-.4,1.8-.7,1.2-.4,2.3-.9,3.2-1.3.9-.4,1.7-.8,2.2-1.1.5-.3.8-.5.8-.5,0,0-.3,0-.9,0-.6,0-1.4.2-2.5.4-1,.2-2.2.4-3.4.7-.6.2-1.3.3-1.9.5Z"/>
      <path class="cls-1" d="m348.5,225.5c-.5.1-.9.3-1.4.4-.5.1-.9.3-1.4.4-.5.2-.9.3-1.3.5-.9.3-1.7.7-2.3,1-.7.3-1.2.7-1.6.9-.4.2-.6.4-.6.4,0,0,.3,0,.7,0,.4,0,1.1,0,1.8-.1.7,0,1.6-.2,2.5-.4.5-.1.9-.2,1.4-.3.5-.1.9-.3,1.4-.4.5-.1.9-.3,1.4-.4.5-.1.9-.3,1.3-.5.9-.3,1.7-.7,2.3-1,.7-.3,1.2-.7,1.6-.9.4-.2.6-.4.6-.4,0,0-.3,0-.7,0-.4,0-1.1,0-1.8.1-.7,0-1.6.2-2.5.4-.5.1-.9.2-1.4.3Z"/>
      <path class="cls-1" d="m349.6,221.9c-.6,0-1.4,0-2.2.2-.4,0-.8.1-1.2.2-.4,0-.8.2-1.2.3-.4.1-.8.2-1.2.3-.4.1-.8.2-1.2.4-.8.2-1.5.5-2.1.8-.6.3-1.1.5-1.4.7-.3.2-.5.3-.5.3,0,0,.2,0,.6,0,.4,0,.9,0,1.6,0,.7,0,1.4,0,2.2-.2.4,0,.8-.1,1.2-.2.4,0,.8-.2,1.2-.3.4-.1.8-.2,1.2-.3.4,0,.8-.2,1.2-.4.8-.2,1.5-.5,2-.8.6-.3,1.1-.5,1.4-.7.3-.2.5-.3.5-.3,0,0-.2,0-.6,0-.4,0-.9,0-1.6,0Z"/>
      <path class="cls-1" d="m344.6,218.4c-.3,0-.7.2-1,.2-.3.1-.7.2-1,.3-.3.1-.6.2-.9.3-.6.2-1.2.5-1.6.8-.5.2-.8.5-1.1.7-.3.2-.4.3-.4.3,0,0,.2,0,.5,0,.3,0,.8,0,1.3,0,.5,0,1.1,0,1.8-.2.3,0,.6-.1,1-.2.3,0,.7-.2,1-.2.3-.1.7-.2,1-.3.3,0,.6-.2.9-.3.6-.2,1.2-.5,1.6-.8.5-.2.8-.5,1.1-.7.3-.2.4-.3.4-.3,0,0-.2,0-.5,0-.3,0-.8,0-1.3,0-.5,0-1.1,0-1.8.2-.3,0-.7,0-1,.2Z"/>
      <path class="cls-1" d="m338.4,217.6s.2,0,.4,0c.3,0,.6,0,1.1,0,.4,0,.9,0,1.4-.2.3,0,.5-.1.8-.2.3,0,.5-.2.8-.2.3-.1.5-.2.8-.3.3,0,.5-.2.7-.3.5-.2.9-.5,1.2-.7.4-.2.6-.5.8-.7.2-.2.3-.3.3-.3,0,0-.2,0-.4,0-.3,0-.6,0-1.1,0-.4,0-.9,0-1.4.2-.3,0-.5,0-.8.2-.3,0-.5.2-.8.2-.3.1-.5.2-.8.3-.2.1-.5.2-.7.3-.5.2-.9.5-1.2.7-.4.2-.6.5-.8.7-.2.2-.3.3-.3.3Z"/>
      <path class="cls-1" d="m339.3,213.4s.1,0,.3,0c.2,0,.5,0,.7,0,.3,0,.6,0,.9-.1.2,0,.3,0,.5-.1l.5-.2.5-.2c.2,0,.3-.2.4-.3.3-.2.5-.4.7-.6.2-.2.4-.4.5-.6.1-.1.2-.3.2-.3,0,0-.1,0-.3-.1-.2,0-.5-.1-.8-.1-.3,0-.6,0-1,0-.2,0-.4,0-.5.1l-.5.2-.5.3c-.2.1-.3.2-.5.3-.3.2-.5.5-.7.7-.2.2-.3.5-.4.6,0,.2-.1.3-.1.3Z"/>
      <path class="cls-1" d="m340.5,209.5c.2,0,.5,0,.7,0,.1,0,.3,0,.4,0h.4c0,0,.4-.2.4-.2.1,0,.2-.1.3-.2.2-.1.4-.3.6-.5.2-.2.3-.4.4-.5,0-.1.1-.2.1-.2,0,0,0,0-.2-.1-.1,0-.3-.2-.6-.3-.2,0-.5-.1-.8-.1-.1,0-.3,0-.4,0h-.4c0,0-.4.2-.4.2-.1,0-.2.1-.4.2-.2.2-.4.3-.6.5-.2.2-.3.4-.3.5,0,.1-.1.2-.1.2,0,0,0,0,.2.1.1,0,.4.1.6.2Z"/>
      <path class="cls-1" d="m310.9,110.9c3.2-.2,6.9-.4,10.9-.7,2-.1,4.1-.3,6.1-.4,2.1-.2,4.2-.3,6.3-.5,2.1-.2,4.2-.3,6.3-.5,2.1-.2,4.1-.3,6.1-.5,4-.3,7.7-.7,10.9-.9,3.2-.3,5.8-.6,7.7-.8,1.9-.2,2.9-.3,2.9-.3,0,0-1.1,0-2.9,0-1.9,0-4.5,0-7.7,0-3.2,0-6.9.2-10.9.3-2,.1-4.1.2-6.2.3-2.1.1-4.2.3-6.4.4-2.1.2-4.3.4-6.3.5-2.1.2-4.1.4-6.1.6-4,.4-7.7.9-10.9,1.3-3.2.4-5.8.9-7.7,1.1-1.8.3-2.9.5-2.9.5,0,0,1.1,0,2.9-.1,1.9,0,4.5-.2,7.7-.4Z"/>
      <path class="cls-1" d="m365.7,117.4c-1.8,0-4.3,0-7.3,0-3,0-6.5,0-10.3.2-1.9,0-3.8.1-5.8.2-2,0-4,.2-6,.3-2,.1-4,.2-6,.3-2,.1-3.9.2-5.8.4-3.7.3-7.2.6-10.2.9-3,.3-5.5.6-7.2.8-1.7.2-2.7.4-2.7.4,0,0,1,0,2.8,0,1.8,0,4.3,0,7.3,0,3,0,6.5-.2,10.2-.3,1.9,0,3.8-.2,5.8-.2,2,0,4-.2,6-.3,2-.1,4-.2,6-.3,2-.1,3.9-.2,5.8-.4,3.7-.3,7.2-.5,10.2-.8,3-.3,5.5-.6,7.2-.7,1.7-.2,2.7-.3,2.7-.3,0,0-1,0-2.8,0Z"/>
      <path class="cls-1" d="m304.2,116.8c1.1,0,2.4-.1,3.7-.2.7,0,1.4-.1,2.1-.2.7,0,1.4-.1,2.1-.2.7,0,1.4-.2,2.1-.2.7,0,1.4-.2,2.1-.3,1.3-.2,2.6-.4,3.7-.6,1.1-.2,2-.4,2.6-.5.6-.1,1-.2,1-.2,0,0-.4,0-1-.1-.6,0-1.6-.2-2.7-.2-1.1,0-2.4,0-3.7,0-.7,0-1.4,0-2.1.1-.7,0-1.4.1-2.2.2-.7,0-1.4.2-2.2.3-.7.1-1.4.2-2.1.3-1.3.3-2.6.5-3.7.8-1.1.3-1.9.6-2.5.8-.6.2-1,.4-1,.4,0,0,.4,0,1,0,.6,0,1.6,0,2.7,0Z"/>
      <path class="cls-1" d="m312.3,165.3c7.9,13,24.9,18,25.4,17.8,13.3-5.8,25.5-5.1,25.5-5.1-14.5-2.3-22.1-7.7-22.1-7.7,4.4,4.3,7.6,5.4,7.6,5.4-9.6-1.3-12.5-4.1-12.5-4.1l-12.2.3,8.4,6.4c-14.3-5.8-20.1-13-20.1-13Z"/>
      <path class="cls-1" d="m351.4,116.3s1.9-2.7,6.3-7.9c0,0-12.9,0-23.3,2.2,0,0-.9,5.1-4.8,6.6,0,0,11.6-1.9,21.8-.9Z"/>
    </g>
    <g>
      <path class="cls-1" d="m1.5,25.8l.3-1.9,1.9-.3c.6-.1,1.2-.2,1.9-.3.7-3,1.3-4.8,3.2-5h0c4.4-1.1,10.8-1.4,18.9-1.1h.7s2.1,1.4,2.1,1.4c0,0,0-.1.3-.4.4-.4,1.2-.8,1.2-.7.3,0,.7-.2.9-.2.9-.1,1.7-.2,2.5-.3,2.8-6.7,13.9-7.2,20.6-5.9,6.1,1.2,7.4,4.4,8.2,6.8.3-1.9.7-3.7,1-5.6.1-.5.2-1.1.4-1.6.1-.6.2-1,.5-1.9l.2-.6c0,0,.1-.3.2-.4,0-.2.2-.3.3-.5.5-.6,1-1,1.5-1.2.9-.5,1.7-.7,2.4-.8,1.4-.3,2.6-.3,3.8-.3.7,0,1.5,0,2.2,0,3.9-7.7,17.5-3.9,24.1-2,5.3,1.5,8.5,5.1,9.1,10.2,0,0,.2.1.2.2.9.9,1.8,1.9,2.5,2.9.9,0,1.7,0,2.5,0,3.2-4.7,13.7-6.2,20.3-5.2,6.2.9,10.1,3.3,12.7,7.7.5,0,1.1.1,1.6.2h1.2c0,.1.7,1,.7,1h0c.4.6.5.9.8,1.3.2.4.4.8.5,1.2.3.8.5,1.7.6,2.5.2,1.7.2,3.5-.3,5.2-.4,1.6-.9,2.9-1.4,4.2-.5,1.3-1.1,2.6-1.6,3.9-1.1,2.6-2.2,5.1-3.1,7.6-.5,1.3-.9,2.5-1.2,3.7-.3,1.2-.6,2.5-.8,3.8-.9,5.4-1.7,10.9-2.8,16.4-.4,1.7-.7,3.5-1.1,5.2l.3-.9.9-2.7c.4-1.2,1.2-2.4,2.1-3.3,1.9-1.9,4.5-2.8,6.8-3,2.3-.2,4.5,0,6.6.7,2.1.6,4.1,1.6,5.9,3,.9.7,1.8,1.6,2.5,2.9.7,1.2,1.2,2.9.9,4.5,0,.4-.2.8-.3,1.2,3.5,1.3,10.7,4.2,16.4,8.7l1.2.9-.2,1.5c-4.8,44.9-28,80.9-30.3,84.3-6.8,16.3-11,23-15,29.4,0,.1-.2.3-.3.4,0,0,0,0,0,.1h0c-1.3,2.1-2.5,4.1-3.9,6.4-5.2,9.2-9.9,32-10.3,40.4-.3,5.3-1.2,11.7-5.5,14.9-2.2,1.6-4.9,2.2-8.2,1.8-3.2,6.9-9.1,10.5-17.2,10.5-3.9,0-8.2-.8-13-2.4-12.7-4.3-56.7-15.2-57.1-15.3h-.1c-8.5-2.7-12.9-5.3-14.4-8.6-1-2.4-.3-4.5.4-6.1-1.2-.7-2.3-1.4-3.2-2.2-4.2-3.6-5.2-12.1-3.4-28.5.3-2.5.2-5.5.1-8.7-.2-9.4-.5-21.1,9.8-23-.2-5.7-.8-11.5-1.3-17.3-.6-6.6-1.3-13.1-2-19.7-1.4-13.1-3-26.2-4.5-39.4-1.3-13.2-2.6-26.3-3.6-39.5-.5-6.6-1-13.2-1-19.9,0-3.3,0-6.7.1-10,.2-3.4.3-6.6.8-10.2Zm9.9-5.8l.2,1.3c0,0,6.3-.9,13.7-.4v-1.3c-7.5-.4-13.8.4-13.9.4Zm30.8-5.9l.5,1.2c0,0,7.8-3.5,14.6-.3l.6-1.2c-7.3-3.4-15.4.2-15.7.3Zm2.1,2.4c1,0,2.1,0,3.1-.1,2.6,0,5.1-.1,7.8,0,0,0,0,0-.2,0-3.6-.7-7.7-.6-10.8.2Zm-6.2,2.4l.2,1.3c4-.5,16.3-1,20.7.3l.4-1.3c-4.9-1.4-17.9-.7-21.2-.4Zm46.6-13.1c2,.2,4,.4,6,.4.4,0,.7,0,1.1,0-3-.5-5.3-.7-7-.5Zm7.1,3.3c-3-.2-6.5-.6-9.9-1-6.1-.8-9.6-1.2-10.9-.5l.6,1.2c.9-.5,5.8.1,10.1.7,3.4.4,6.9.9,10,1.1,7.8.4,12,2.7,16.6,6.6l.8-1c-4.7-3.9-9.3-6.4-17.4-6.8Zm21.2,13.1h0s0,0,0,0h0Zm10.4-8.3l.4,1.3c5.5-1.7,14.3-1.5,18.8,1.9l.8-1.1c-4.9-3.7-14-4-20-2.1Zm1.5,2.8c2.9.2,5.7.4,8.6.7,2.3.2,4.6.4,6.8.6-1.3-.8-3.1-1.4-5.6-1.8-3.3-.5-7-.2-9.9.5Zm17,42.6c1-8.1,4.5-17.5,6.5-20.9,2.1-3.6,3.6-10.1,3.7-11.4h-1.3c-.1,1-1.5,7.3-3.5,10.7-2.1,3.5-5.7,13.2-6.7,21.5l1.3.2Zm15,8c-2.4-.6-4.9-.4-7.2.5-.6.2-1.1.5-1.7.8-.3.2-.6.4-.8.7-.2.3-.4.5-.5.8-.6,1-1.2,2.1-1.7,3.2-1,2.2-2,4.4-2.8,6.6-.4,1.1-.7,2.3-.9,3.5-.2,1.2-.3,2.4-.4,3.6-.2,2.4-.3,4.7-.5,7.1-.1,2.4-.3,4.7-.6,7.1-.2,2.4-.6,4.7-1.1,7,1.5-4.5,2.2-9.3,2.7-14,.3-2.4.5-4.7.7-7.1.1-1.2.3-2.3.5-3.5.2-1.1.5-2.2.9-3.3.7-2.2,1.6-4.4,2.6-6.5.5-1.1,1-2.1,1.6-3.1.1-.2.3-.5.4-.7.2-.2.3-.3.5-.5.4-.3.9-.6,1.4-.8,2.1-.9,4.4-1.2,6.7-.8,2.3.4,4.3,1.7,5.9,3.5-1.4-1.9-3.4-3.4-5.8-4.1Zm-19.7,37.2c.4-2.4.7-4.9,1-7.3.3-2.4.5-4.9.7-7.4.2-2.5.2-4.9,0-7.4-.6,4.9-1.4,9.7-2,14.6l-1,7.3c-.3,2.4-.6,4.9-.9,7.3v.2s0,.1,0,.1c.6,1,1.1,2,1.7,3,.6,1,1.2,2,1.8,2.9-.4-1.1-.9-2.1-1.3-3.2-.4-1-.9-2-1.4-3,.5-2.4.9-4.8,1.3-7.2Zm.6,82.1c.9,1.2,1.5,2.7,1.8,4.4,2.6-4.8,5.7-10.9,9.7-20.6l.2-.5c.2-.4,24.2-36.4,29.4-80.7-4.6-3.3-10.1-5.6-13.2-6.8-.9,3.4-1.9,6.7-3.1,10-1.2,3.6-2.6,7-4.1,10.5-3.2,6.8-7.1,13.3-12.2,18.8,3.1-6.8,5.9-13.5,8.3-20.4,1.2-3.4,2.4-6.9,3.4-10.4,1-3.5,1.9-7,2.7-10.6.4-1.7.8-3.6,1-5.2,0-.2,0-.4-.3-.8-.2-.4-.6-.8-1.2-1.2-.4-.3-.9-.6-1.4-.9-1.7,10.8-5,21.1-5,21.1,0-.8,2.3-13.8,2.3-13.8-3.9,14.8-7.3,24.7-7.3,24.7,1.9-7.3,3.1-17,3.1-17-6,21.1-9.1,25.8-9.1,25.8-1.3-.6-2.5-.7-2.5-.7,1,.9,1.7,1.6,1.7,1.6-.7,1.2-.8,3.2-.8,4.5.2.2.4.5.7.7l.2.2.3.5h0c.3.5.5.9.7,1.4.2.5.3.9.5,1.4.3.9.6,1.8.9,2.7.5,1.8,1,3.6,1.4,5.5.8,3.7,1.4,7.3,1.7,11,.3,3.7.4,7.4.2,11.1-.1,3.7-.6,7.3-1.2,10.9.1-3.6.1-7.3-.2-10.9-.3-3.6-.8-7.2-1.6-10.7-.7-3.5-1.7-7-2.9-10.3-.6-1.7-1.2-3.3-1.9-4.9-.4-.8-.7-1.6-1.1-2.4-.3-.7-.7-1.4-1-2-1.5-1.4-2.8-2.9-4-4.6-.7-.9-1.3-1.8-1.9-2.8-.6-1-1.1-1.9-1.7-3.1l-.3-.7v-.8c.8-4.2,1.4-8.5,1.9-12.7.3-2.1.5-4.2.7-6.3,0-1,.2-2.1.2-3.1,0-1,0-2.1,0-2.8v-.6s.1-.5.1-.5c1.7-5.1,3-10.4,4.1-15.8,1.1-5.4,1.9-10.8,2.8-16.3.3-1.4.5-2.8.9-4.3.4-1.4.9-2.8,1.4-4.2,1-2.7,2.1-5.3,3.2-7.8.5-1.3,1.1-2.5,1.6-3.8.5-1.2,1-2.5,1.2-3.6.3-1,.3-2,.2-3.1,0,0,0-.1,0-.2-.4,0-.8.2-1.2.5-.9.5-1.7,1.2-2.5,1.9-1.6,1.5-3.1,3.3-4.3,5.1-1.4,2.1-3,3.8-4.5,5.6l-4.7,5.3c-3.1,3.5-6.4,7-9.3,10.4-.6.8-1.2,1.8-1.7,2.8-.6,1-1.1,2-1.6,3.1-1,2.1-1.9,4.2-2.8,6.3-.9,2.1-1.7,4.3-2.3,6.5-.7,2.3-1.3,4.5-1.7,6.7-.9,4.5-1.2,9.1-.9,13.7.2,4.6.9,9.1,2,13.6,1,4.3,2.4,8.5,3.9,12.7,1.4.5,2.9.9,4.3,1.3,1.7.4,3.4.8,5,1.2,3.4.7,6.8,1.2,10.3,1.6-3.5,0-7-.1-10.5-.4-1.7-.2-3.5-.4-5.2-.6-1.7-.3-3.5-.5-5.2-.9h0s-.6-.1-.6-.1l-.2-.6c-1.4-3.7-2.6-7.4-3.7-11.3-.8,0-1.6-.1-2.5-.2v-1c.8,0,1.5.1,2.2.2-.1-.4-.2-.8-.3-1.3-.5-2-.9-4-1.2-6-.9-.2-1.9-.4-3-.6l.2-1c.9.2,1.8.3,2.6.5-.3-1.9-.5-3.9-.6-5.9-.9-.3-1.9-.6-3-.8l.2-1c1,.2,1.9.5,2.7.7,0,0,0,0,0,0-.1-2.4-.1-4.9,0-7.3-.9-.3-2-.5-3.1-.7l.2-1c1.1.2,2.1.4,3,.7.2-2,.4-4,.8-6,.4-2.3,1.1-4.7,1.7-6.9.7-2.3,1.5-4.6,2.4-6.7.3-.7.6-1.5.9-2.2-.5.2-1,.5-1.5.8l-.5-.8c.8-.6,1.7-1,2.6-1.3.4-1,.9-2,1.4-3,.5-1.1,1.1-2.1,1.6-3.2.6-1.1,1.2-2.1,2-3.2,3.1-3.7,6.3-7,9.4-10.5l4.6-5.2c1.5-1.8,3.1-3.5,4.3-5.3,1.4-2,2.9-3.9,4.7-5.6.8-.8,1.8-1.5,2.8-2.2-9.6-.6-19.3-1.3-28.9-1.7-.9,0-1.8,0-2.6,0l-.5,1.4-2.6,7.7-5.1,15.5-.6,1.9-.7,2.1c-.5,1.4-1.1,2.7-1.8,4-.8,1.3-1.5,2.6-2.6,3.9-1.1,1.2-2.4,2.4-4.3,3.2-.9.4-2,.6-3.1.5-1.1,0-2.2-.4-3.1-.9-.5-.2-.9-.6-1.2-.9-.1,0-.2-.1-.3-.3-.2-.2-.3-.3-.4-.5-.3-.4-.4-.7-.5-1-.5-1.2-.5-2-.6-2.8-.1-3.2.3-5.9.8-8.7.9-5.5,2-10.8,3.4-16.1,1.3-5.3,3.1-10.4,4.8-15.7.9,11.2-2.1,21.9-3.4,32.5-.3,2.6-.6,5.4-.4,7.6,0,.4.1.8.2,1,.1,0,.3.2.4.2.6.3,1,.3,1.7,0,.7-.3,1.4-.9,2.1-1.8.7-.8,1.3-1.9,1.9-2.9.5-1.1,1-2.2,1.5-3.4l.6-1.8.6-1.9c1.6-5.2,3.3-10.4,5-15.6.8-2.6,1.7-5.2,2.6-7.8l.6-1.6c-1.8-2.4-4.2-4.3-6.9-5.6-3.4-1.6-7.4-2.1-11.5-2.3-4.4-.2-8.8-.8-12.9-1.1-1,0-2-.2-3-.2-1,0-1.9,0-2.6.1-.1,0-.2,0-.3,0,0,.3-.2.7-.3,1-.1.5-.2,1-.4,1.5-1.8,8.2-3.3,16.7-5,25.1l-2.4,12.6c-.5,2.1-.9,4.2-1.8,6.3-.5,1.1-1,2.2-2,3.1-.5.4-1.2.8-1.9.8-.7,0-1.3-.2-1.7-.5.6,0,1.1-.2,1.4-.4.3-.3.6-.6.7-1,.3-.8.4-1.8.5-2.7.1-2,.3-4.2.5-6.3l1.8-12.7c.6-4.2,1.2-8.3,1.9-12.5-.7-.4-1.2-.8-1.7-1.2-.5,5.1-1.3,10.1-2.1,15-.5,3-1,5.9-1.3,8.9l-1,8.9.6-9c.2-3,.6-6,1-8.9.6-5.3,1.3-10.6,1.6-15.9l-.7-.6c-.5-.4-1-.7-1.4-.9-.2,0-.4-.2-.6-.2h-.3c0,0-.5-.1-.5-.1-2.9-.2-6.1-.2-9.1-.2-3.1,0-6.2.1-9.3.3-1.3,0-2.7.2-4,.3-.1.6-.3,1.3-.4,2-.8,6-1.1,12.3-1.4,18.5-.1,3.1-.3,6.2-.3,9.4,0,3.2,0,6.2,0,9.4h0s-.5,1.6-.5,1.6h0s-4.9,2-4.9,2l.8-5.3-.6,1.6h0c.6-6.3.8-12.5,1-18.8.3-6,.5-12,1.2-18.1l-2.4-1.6c-2.2,0-4.7-.1-7.2,0,1.6,0,3.2,0,4.8.1h2.2c0,.1.2,2.3.2,2.3h0c.3,2.2.2,4.2,0,6.2-.2,2-.5,3.9-.8,5.8-.7,3.8-1.6,7.5-2.3,11.2-.7,3.7-1.5,7.4-1.7,11.1,0,1.8,0,3.7.4,5.5.2.9.6,1.7,1.1,2.5.6.7,1.3,1.3,2.2,1.6-.9-.2-1.8-.7-2.6-1.3-.7-.7-1.3-1.5-1.7-2.5-.8-1.8-1.1-3.8-1.3-5.7-.3-3.9-.1-7.8.2-11.6l1-11.3c.2-2.9.4-5.8.3-8.5-.9,0-1.7,0-2.6,0-1.6,0-3.3,0-4.9,0-2.6.1-5.2.3-7.7.7-.3,2.5-.4,5.1-.5,7.7-.1,3.2-.2,6.5-.1,9.8,0,6.5.5,13,1,19.6,0,.5,0,.9.1,1.4.2.5.5,1,.8,1.4l-.6.4c.3,3.9.6,7.9,1,11.8.3,0,.7,0,1.1,0v1c-.4,0-.7,0-1,0,.2,2.1.4,4.1.6,6.2h.7s0,1,0,1h-.5c.2,2,.4,4,.6,6h.8s0,1,0,1h-.7c.2,2.3.5,4.6.7,6.9h1.7c0,0-.3-3.2-.3-3.2l-1-11.3c-.3-3.8-.6-7.5-.8-11.3.5,3.7,1,7.3,1.5,11l3.5.2v1s-3.4-.2-3.4-.2l.7,6h3.5c0,.1,0,1.1,0,1.1h-3.3c0-.1.4,3.4.4,3.4.9,7.5,1.7,15,2.5,22.5.8,7.5,1.7,15,2.5,22.5.4,3.8.7,7.5,1,11.3.3,3.8.5,7.5.7,11.3-.9-7.5-1.7-15-2.7-22.4l-2.8-22.4-1.7-18.2h-1.7c0,.4,0,.8.1,1.3,1.5,13,3.1,26.2,4.5,39.3.7,6.6,1.4,13.1,2,19.7.5,5.7,1,11.5,1.3,17.3.7,0,1.4,0,2.1,0-.1-.5-.3-1-.4-1.6l1-.2c.1.6.3,1.2.4,1.8,6.7.4,14,2.3,22.5,4.6,4,1.1,8.2,2.2,12.8,3.2,23,5.4,42.2,8.9,56.4,10.4,1.6-8.1,6.8-15.9,14.3-16.9-.3-.6-.6-1.2-1-1.9l.9-.5c.5.9.8,1.6,1.1,2.3.5,0,1.1,0,1.6,0,3.5.3,6.1,1.7,7.8,4.1Zm-74.3,6.5l5.4,1.4,5.4,1.3c3.6.9,7.3,1.7,10.9,2.4,3.7.7,7.3,1.5,11,2.1,3.7.6,7.4,1.2,11.1,1.6-3.6-.9-7.2-1.8-10.9-2.6-3.6-.9-7.3-1.6-10.9-2.4-3.7-.7-7.3-1.5-11-2.1-3.7-.7-7.3-1.3-11.1-1.8Zm69.2,4.5l1,.2c-.1.7-.2,1.4-.3,2.1.3,0,.5,0,.8-.1,1.2-5.9.3-8.7-.6-10-.8-1.1-2.1-1.7-4-1.9-5.4-.5-9.8,5.6-11.2,12.2.2,0,.4,0,.5,0,0,0,0,0,0,0h.2c1.6.2,3,.2,4.5.3,1.3-2.1,1.9-6.2,5.3-5.6,2.9.5.9,3.4,1.4,5.5.8,0,1.5-.1,2.2-.2,0-.8.2-1.6.3-2.4ZM13.9,248.3c.3.8,2.1,2.9,11,5.6,2.7.7,44.7,11.1,57.5,15.4,10.5,3.5,17.8,2.7,21.9-2.4-3.4-.2-6.8-.7-10.1-1.1-4.5-.7-8.9-1.5-13.3-2.3-8.8-1.7-17.6-3.7-26.3-5.8,8.8,1.7,17.7,3.2,26.6,4.5,4.4.6,8.9,1.2,13.3,1.7,3.8.4,7.7.7,11.4.6.3-.6.6-1.3.9-2l.2-.7c-.8,0-1.5,0-2.3,0-20.2,0-49.9-5.3-64.7-8.3-11.5-2.3-19.9-4.5-25.8-7-.4.8-.5,1.3-.3,1.8Zm-4.2-10.3c4.3,3.7,14.3,6.9,31.3,10.3,30.8,6.1,66.7,10.9,77.6,6.6.4-1.9.6-3.9.7-5.6.4-7.7,4-26.7,8.9-38.3-10.4,0-20.7-1.4-30.8-3-11.1-1.7-22.1-4-33-6.2-5.5-1.1-11-2.2-16.4-3.5-5.5-1.3-10.9-2.7-16.3-4.1-2.7-.7-5.4-1.4-8.1-1.9-1.3-.3-2.7-.5-4.1-.7-1.3-.2-2.7-.4-3.8-.3-1.1.2-1.5.5-1.8,1.6-.1.5-.2,1.1-.2,1.8,0,.7,0,1.4,0,2.1-.2,2.8-.4,5.6-.7,8.4l-1.6,16.7-.3,4.2c0,.7,0,1.4-.1,2v2.1c-.1,1.3.2,2,1.2,2.8.9.8,2.1,1.4,3.3,2,2.5,1.1,5.1,2,7.7,2.9,2.6.9,5.3,1.6,8,2.4,5.4,1.5,10.8,2.9,16.2,4.1,5.4,1.2,10.9,2.3,16.4,3.4,5.5,1,11,1.9,16.5,2.7,5.5.8,11.1,1.5,16.6,2,5.6.5,11.1.9,16.7.9-11.2.7-22.4-.1-33.5-1.4-11.1-1.4-22.2-3.2-33.1-5.6-5.5-1.2-10.9-2.5-16.3-4-2.7-.7-5.4-1.5-8.1-2.3-2.7-.8-5.4-1.7-8-2.9-1.3-.6-2.6-1.3-3.9-2.3-.3-.3-.6-.5-.9-.9-.3-.3-.5-.7-.7-1.1-.4-.8-.5-1.8-.4-2.5v-2.1c0-.7.1-1.4.1-2.2l.3-4.2,1.5-16.7c.2-2.8.5-5.6.6-8.3,0-.7,0-1.3,0-2,0-.8,0-1.5.3-2.4.2-.8.6-1.8,1.4-2.5.8-.7,1.8-1,2.6-1.1,1.7-.2,3.1,0,4.5.3,1.4.2,2.8.5,4.2.7,2.8.5,5.5,1.2,8.2,1.9,5.4,1.4,10.8,2.8,16.3,4,5.4,1.3,10.9,2.3,16.4,3.4,11,2.2,21.9,4.4,32.9,6.2,10.5,1.7,21.1,3.1,31.6,3,.3-.6.6-1.2.9-1.7.2-.4.4-.7.6-1.1-18.2,1.3-54.1-6.2-75.5-11.2-4.6-1.1-8.9-2.2-12.9-3.3-11.6-3.1-20.7-5.5-28.5-4.1-5.6,1-5.9,7.7-5.6,17.7,0,3.4.2,6.6-.2,9.5-2,17.9.1,22.7,1.6,23.9Zm1.3-53.5c-2.1.9-4.1,2.5-4.9,4.9-.6,2.2-.8,4.4-.8,6.7,0,2.2.2,4.4.4,6.6.2,2.2.5,4.4.6,6.5.4-4.4-.2-8.8,0-13.1.1-2.2.4-4.3,1-6.3.6-1.9,2.3-3.2,4.2-4,1.9-.8,4-1.2,6.2-1.4,2.1-.2,4.3-.1,6.5,0,2.2.2,4.3.5,6.5.9,1.1.2,2.1.5,3.2.7l3.2.8c-4.1-1.7-8.3-2.9-12.7-3.4-2.2-.3-4.4-.4-6.7-.3-2.2.2-4.5.5-6.6,1.4Zm-4.9-87.5c.8,8,1.7,15.9,2.6,23.9l2.8,23.9c1,7.9,1.9,15.9,3,23.8-.5-8-1.2-16-2-23.9-.8-8-1.7-15.9-2.5-23.9l-2.9-23.8-1.5-11.9c-.5-4-1.1-7.9-1.2-11.9,0,8,1,16,1.7,24Z"/>
      <ellipse class="cls-1" cx="103.1" cy="230.3" rx="11.2" ry="10.5"/>
      <path class="cls-1" d="m101.8,218.1c-1.3.1-2.5.4-3.6.8l-.4-.9c1.2-.5,2.6-.8,3.9-.9v1Z"/>
      <path class="cls-1" d="m116.5,234.3l-.9-.3c.4-1.2.6-2.4.6-3.7h0c0,0,1,0,1,0,0,1.4-.2,2.7-.6,4Z"/>
      <path class="cls-1" d="m117.1,228.9h-1c-.1-1.1-.5-2.3-1-3.5l.9-.4c.6,1.2.9,2.5,1.1,3.9Z"/>
      <path class="cls-1" d="m112.2,221.5l.7-.7c1,.9,1.9,2,2.5,3.1l-.9.5c-.6-1.1-1.4-2-2.4-2.9Z"/>
      <path class="cls-1" d="m108.3,218c1.3.5,2.4,1.1,3.5,1.9l-.6.8c-1-.7-2.1-1.3-3.3-1.8l.3-.9Z"/>
      <path class="cls-1" d="m89,230.3c0-1.3.2-2.7.6-3.9l.9.3c-.4,1.2-.6,2.4-.6,3.6h0s-1,0-1,0Z"/>
      <path class="cls-1" d="m90.2,235.6c-.6-1.2-.9-2.5-1.1-3.9h1c.1,1.1.5,2.3,1,3.5l-.9.4Z"/>
      <path class="cls-1" d="m103,218v-1c1.4,0,2.7.2,4,.5l-.3,1c-1.2-.3-2.4-.5-3.7-.5h0Z"/>
      <path class="cls-1" d="m93.1,222.4c-.8.9-1.5,2-2,3.1l-.9-.4c.5-1.2,1.3-2.3,2.2-3.4l.7.7Z"/>
      <path class="cls-1" d="m94.9,239.9c1,.7,2.1,1.3,3.3,1.8l-.3.9c-1.3-.5-2.4-1.1-3.5-1.9l.6-.8Z"/>
      <path class="cls-1" d="m109.1,241.2c1.1-.6,2.2-1.3,3.1-2.1l.7.7c-1,.9-2.1,1.7-3.3,2.3l-.4-.9Z"/>
      <path class="cls-1" d="m99.4,242.1c1.2.3,2.4.5,3.7.5h0v1c-1.4,0-2.7-.2-4-.5l.3-1Z"/>
      <path class="cls-1" d="m104.4,243.5v-1c1.2-.1,2.4-.4,3.6-.8l.4.9c-1.2.5-2.6.8-3.9.9Z"/>
      <path class="cls-1" d="m97,219.4c-1.1.6-2.2,1.3-3.1,2.1l-.7-.7c1-.9,2.1-1.7,3.3-2.3l.4.9Z"/>
      <path class="cls-1" d="m113.1,238.2c.8-.9,1.5-2,2-3.1l.9.4c-.6,1.2-1.3,2.3-2.2,3.4l-.7-.7Z"/>
      <path class="cls-1" d="m94,239.1l-.7.7c-1-.9-1.9-2-2.5-3.1l.9-.5c.6,1.1,1.4,2,2.3,2.9Z"/>
      <path class="cls-1" d="m86.5,230.3c0-.4,0-.9,0-1.3h1c0,.5,0,.9,0,1.3,0,.8,0,1.7.2,2.5l-1,.2c-.2-.9-.2-1.8-.2-2.7Z"/>
      <path class="cls-1" d="m87.1,234.3l1-.3c.3,1.2.8,2.3,1.5,3.4l-.8.5c-.7-1.2-1.2-2.4-1.6-3.7Z"/>
      <path class="cls-1" d="m89.4,239.1l.8-.6c.7,1,1.6,1.9,2.5,2.7l-.6.8c-1-.9-1.9-1.8-2.7-2.9Z"/>
      <path class="cls-1" d="m93.7,242c1,.7,2.1,1.3,3.3,1.8l-.4.9c-1.2-.5-2.4-1.1-3.5-1.9l.6-.8Z"/>
      <path class="cls-1" d="m101.8,244.9v1c-1.4,0-2.7-.3-4-.7l.3-.9c1.2.4,2.4.6,3.7.7Z"/>
      <path class="cls-1" d="m91.7,220.3c-.9.9-1.7,1.9-2.3,2.9l-.9-.5c.7-1.1,1.5-2.2,2.4-3.1l.7.7Z"/>
      <path class="cls-1" d="m107,245.5c-1.3.3-2.6.4-3.9.4v-1c1.3,0,2.5-.1,3.7-.4l.2,1Z"/>
      <path class="cls-1" d="m95.8,217.4c-1.1.6-2.2,1.3-3.1,2.1l-.6-.8c1-.9,2.1-1.6,3.3-2.2l.4.9Z"/>
      <path class="cls-1" d="m88.9,224.3c-.5,1.1-.9,2.3-1.1,3.5l-1-.2c.2-1.3.6-2.6,1.2-3.8l.9.4Z"/>
      <path class="cls-1" d="m100.5,215.9c-1.2.2-2.5.5-3.6,1l-.4-.9c1.2-.5,2.5-.8,3.8-1.1l.2,1Z"/>
      <path class="cls-1" d="m111.9,243.5c-1.1.7-2.4,1.2-3.6,1.6l-.3-.9c1.2-.4,2.3-.9,3.4-1.5l.5.8Z"/>
      <path class="cls-1" d="m117.7,225.4l.9-.4c.5,1.2.8,2.6.9,3.9h-1c-.1-1.1-.4-2.4-.8-3.5Z"/>
      <path class="cls-1" d="m112.5,242c1-.7,2-1.6,2.8-2.5l.8.6c-.9,1-1.8,1.9-2.9,2.7l-.6-.8Z"/>
      <path class="cls-1" d="m106.8,216.1l.2-1c1.3.3,2.6.7,3.7,1.3l-.4.9c-1.1-.5-2.3-1-3.5-1.2Z"/>
      <path class="cls-1" d="m118.7,235.5c-.5,1.2-1.1,2.4-1.9,3.5l-.8-.6c.7-1,1.3-2.1,1.8-3.3l.9.3Z"/>
      <path class="cls-1" d="m115.2,221.1l.7-.6c.9,1,1.6,2.1,2.2,3.3l-.9.4c-.5-1.1-1.2-2.2-2.1-3.1Z"/>
      <path class="cls-1" d="m101.8,215.8v-1c1.2-.1,2.6,0,3.9.1v1c-1.4-.2-2.7-.2-3.9-.1Z"/>
      <path class="cls-1" d="m118.7,230.3h0c0,0,1,0,1,0,0,1.3-.2,2.7-.5,4l-1-.3c.3-1.2.5-2.4.5-3.7Z"/>
      <path class="cls-1" d="m111.4,218l.5-.8c1.2.7,2.2,1.5,3.2,2.4l-.7.7c-.9-.9-1.9-1.6-3-2.3Z"/>
      <path class="cls-1" d="m20.2,169.1l1,.2c-.2,1.4-.4,2.7-.5,3.9h-1c.1-1.3.3-2.7.5-4Z"/>
      <path class="cls-1" d="m20.6,174.4c0,.5,0,1,0,1.6,0,.8,0,1.6.1,2.3h-1c0-.7-.1-1.5-.1-2.3s0-1.1,0-1.6h1Z"/>
      <path class="cls-1" d="m112.8,156.6l-.8.5c-.7-1.2-1.4-2.3-2-3.4l.9-.5c.6,1.1,1.3,2.2,2,3.4Z"/>
      <path class="cls-1" d="m110.1,152.1l-.9.5c-.8-1.4-1.4-2.5-1.9-3.5l.9-.4c.5,1,1.1,2.1,1.9,3.5Z"/>
      <path class="cls-1" d="m107.4,146.9c0,.2.1.3.2.5l-.9.4c0-.2-.2-.4-.2-.6-.4-.9-.8-2-1.3-3.1l.9-.4c.5,1.1,1,2.2,1.4,3.1Z"/>
      <path class="cls-1" d="m105.5,142.6l-.9.4c-.6-1.2-1.2-2.4-1.8-3.5l.9-.5c.6,1.1,1.2,2.3,1.8,3.5Z"/>
      <path class="cls-1" d="m21.3,163.9l1,.2c-.2.9-.5,2.3-.8,3.8l-1-.2c.3-1.5.6-3,.9-3.9Z"/>
      <rect class="cls-1" x="116.4" y="162.2" width="1" height="4" transform="translate(-68.9 86.1) rotate(-31.8)"/>
      <path class="cls-1" d="m93.4,127.2l.6-.8c1,.8,1.9,1.7,2.9,2.8l-.7.7c-.9-1.1-1.9-1.9-2.8-2.7Z"/>
      <path class="cls-1" d="m126.5,179.2l-.9.5c-.6-1.1-1.2-2.2-2-3.4l.9-.5c.7,1.2,1.4,2.4,2,3.5Z"/>
      <path class="cls-1" d="m88.9,125l.2-1c.3,0,.6.1.8.2,1,.3,2,.7,3,1.4l-.5.8c-.9-.6-1.8-1-2.7-1.3-.2,0-.5-.1-.8-.2Z"/>
      <path class="cls-1" d="m112.6,158.2l.8-.5c.7,1.1,1.4,2.2,2.1,3.4l-.8.5c-.7-1.1-1.4-2.3-2.1-3.4Z"/>
      <path class="cls-1" d="m118.2,167.2l.8-.5c.7,1.1,1.4,2.3,2.1,3.4l-.8.5c-.7-1.1-1.4-2.2-2.1-3.4Z"/>
      <path class="cls-1" d="m123,175.1c-.6-1.1-1.3-2.2-2-3.4l.8-.5c.7,1.2,1.4,2.3,2,3.4l-.8.5Z"/>
      <path class="cls-1" d="m100.2,133.4l-.8.6c-.8-1.1-1.6-2.2-2.3-3.1l.8-.6c.8,1,1.6,2,2.4,3.2Z"/>
      <rect class="cls-1" x="37.8" y="119.4" width="1" height="4" transform="translate(-84.4 155) rotate(-87.8)"/>
      <rect class="cls-1" x="43.1" y="119.6" width="1" height="4" transform="translate(-79.6 160.3) rotate(-87.7)"/>
      <rect class="cls-1" x="32.5" y="119.2" width="1" height="4" transform="translate(-89.3 149.6) rotate(-87.9)"/>
      <path class="cls-1" d="m25.2,122.3c-.5.7-.9,1.9-.9,3.5h-1c0-1.8.5-3.2,1.1-4.1l.8.6Z"/>
      <polygon class="cls-1" points="22.9 141.7 23 137.7 24 137.7 23.9 141.7 22.9 141.7"/>
      <polygon class="cls-1" points="46.9 121.2 50.9 121.4 50.8 122.4 46.9 122.2 46.9 121.2"/>
      <path class="cls-1" d="m23.2,131.1c0-1.8,0-3.2,0-4h1c0,.7,0,2.2,0,4h-1Z"/>
      <polygon class="cls-1" points="22.7 146.9 22.9 143 23.9 143 23.7 147 22.7 146.9"/>
      <path class="cls-1" d="m22.6,162.8l-1-.3c.2-1,.4-1.7.5-2.2,0-.2,0-.8.1-1.6h1c0,.9-.1,1.5-.1,1.8,0,.5-.3,1.3-.5,2.3Z"/>
      <path class="cls-1" d="m22.4,157.5c0-1.1.1-2.5.2-4h1c0,1.5-.1,2.9-.2,4h-1Z"/>
      <polygon class="cls-1" points="52.2 121.4 56.1 121.6 56.1 122.6 52.1 122.4 52.2 121.4"/>
      <path class="cls-1" d="m22.6,152.2c0-1.2,0-2.6.1-4h1c0,1.4,0,2.7-.1,4h-1Z"/>
      <path class="cls-1" d="m62.7,121.9c1.3,0,2.7.1,4,.2v1c-1.4,0-2.7-.1-4-.2v-1Z"/>
      <rect class="cls-1" x="58.9" y="120.3" width="1" height="4" transform="translate(-65.5 175.8) rotate(-87.3)"/>
      <path class="cls-1" d="m27.3,120.5c.3,0,1.2,0,2.4.1v1c-1.3,0-2.2,0-2.5-.1-.5,0-.9,0-1.2.2l-.4-.9c.5-.2,1.1-.3,1.7-.3Z"/>
      <path class="cls-1" d="m77.2,123.8c-1.3,0-2.6-.2-4-.3v-1c1.4,0,2.8.2,4,.3v1Z"/>
      <path class="cls-1" d="m82.4,124.2c-1.2-.1-2.5-.2-3.9-.3v-1c1.5.1,2.8.2,4,.3v1Z"/>
      <rect class="cls-1" x="21.6" y="133.9" width="4" height="1" transform="translate(-111.3 154.8) rotate(-88.6)"/>
      <path class="cls-1" d="m71.9,123.4c-1.3,0-2.6-.2-4-.2v-1c1.4,0,2.7.2,4,.2v1Z"/>
      <path class="cls-1" d="m103.1,137.9l-.9.5c-.7-1.2-1.4-2.3-2-3.4l.8-.5c.7,1.1,1.4,2.2,2.1,3.4Z"/>
      <path class="cls-1" d="m87.7,124.8c-1-.2-2.4-.3-3.9-.5v-1c1.7.2,3,.3,4.1.5v1Z"/>
      <path class="cls-1" d="m167.3,126.3c1.1-2.8,2-5.7,3-8.6.9-2.9,1.8-5.8,2.6-8.7.4-1.5.8-2.9,1.2-4.4l1.1-4.4c.8-2.9,1.3-5.9,2-8.9-.8,6-1.9,12.1-3.4,18-1.4,5.9-3.3,11.8-5.3,17.5-2.1,5.7-4.3,11.4-6.9,16.9-1.3,2.8-2.7,5.5-4.1,8.2-1.5,2.7-2.9,5.4-4.6,7.9,2.8-5.4,5.3-10.9,7.7-16.5,2.4-5.6,4.7-11.2,6.6-17Z"/>
      <path class="cls-1" d="m158.8,107.9s-2.4,3.7-6.2,7.4c0,0,10.3-15.9,13.7-31.3,0,0,5.9,2.1,9.8,4.7,0,0-4.2-1.4-8.5-3,0,0,1.9,1.1,5.9,3.1,0,0-2.2,8.2-6.5,18.4,0,0,2.5-8.2,4-17.6,0,0-3,12.7-6.9,23.7-4.4-6.6-5.5,1.8-7.1,9.9-1.6,8.1.5,11.5-7.7,26,0,0,.3-13.4-2.6-24.4,0,0,6.9-6.3,12.1-17Z"/>
      <path class="cls-1" d="m127.8,179.1c-1.8-6.9,4.4-19.4,4.4-19.4-3,2.3-4.1,4.9-4.1,4.9,8.2-25,1-38.5,1-38.5,3.8-.2,8.6-.2,8.6-.2,7.9,14.7,7.6,27.7,7.6,27.7-3.1-15.3-6.9-21.4-6.9-21.4,3.5,18.5,1,33.9,1,33.9-1.2-11.4-4.9-.2-6.3,4.9-1.3,5.1,6.8,7.2,6.4,14-4.1-6.9-11.7-5.9-11.7-5.9Z"/>
      <path class="cls-1" d="m132.9,71.9c-4.1-2.2-6.3-3.2-6.3-3.2,3.3-5.4,6.3-13.2,6.3-13.2,2.7.9,3.8,1.1,3.8,1.1l-2.6-1.6c3.6-4.8,6.7-10.4,6.7-10.4-1.9,5.1-2.5,12.3-3.4,17.6-.9,5.3-3,12.7-3,12.7-7.9-3.7-14.5-6-14.5-6,8.5,1.5,13,3.1,13,3.1Z"/>
      <path class="cls-1" d="m102.5,29.6c-2-1.2-3.2-1.3-3.2-1.3,2.1-8,.8-13.1.8-13.1,4.5,1.2,7.4,5.4,7.4,5.4-4.1,9.8-5.4,16.7-7,21.4-1.6,4.7-2.2,6.7-3,8.7-.8,2-2.3,5.3-4.2,5.3s-.1-8.5-.1-8.5c2.9-.8,3.7-1.1,3.7-1.1-2.3-.7-3-.9-3-.9,2.7-6.6,4.6-15.6,4.6-15.6,2.5-.3,4-.3,4-.3Z"/>
      <path class="cls-1" d="m119.1,118.1l1.8-3.5-3.3,3.3s0-7.1-1.5-18.9l10.7,1.6s1.2-7.9,1.5-13.8l-9.6-2.8s1.5-3.1,3-10.4c0,0,.8.3,9.2,3.8,0,0-5.6-3.5-11.4-6.8,0,0,7.1,2.1,14.3,6.4,0,0-.5,3.5-2.8,7.1l-8.4-1.6,8.6,3.5s-1.2,14.5-3.5,24.4h-7.6l7.7,1.5s2.6,5.9,5.4,8.6c0,0-5.4.2-14.3-2.3Z"/>
      <path class="cls-1" d="m135.2,42.6l-.7-.7.9-1c.6-.6,1.3-1.3,1.8-1.9l.7.7c-.6.6-1.2,1.2-1.8,1.9l-.9.9Z"/>
      <path class="cls-1" d="m121.1,58.2c.7-.9,1.5-2,2.4-3.2l.8.6c-.9,1.2-1.7,2.2-2.4,3.1l-.8-.6Z"/>
      <path class="cls-1" d="m119.2,63.3l-.9-.4c.7-1.4,1.3-2.5,2-3.5l.8.6c-.6.9-1.3,2-1.9,3.4Z"/>
      <path class="cls-1" d="m124.3,54c.8-1,1.6-2.1,2.4-3.1l.8.6c-.8,1.1-1.7,2.1-2.4,3.1l-.8-.6Z"/>
      <path class="cls-1" d="m117.2,68.1l-.9-.3c.5-1.4,1-2.6,1.5-3.7l.9.4c-.5,1.1-.9,2.2-1.5,3.6Z"/>
      <path class="cls-1" d="m138.2,38.2c1-1.1,1.6-2,2-2.7l.9.4c-.4.9-1.1,1.8-2.1,3l-.7-.7Z"/>
      <path class="cls-1" d="m131.7,46.4l-.6-.8c.7-.9,1.6-1.8,2.6-2.8l.7.7c-1,1-1.8,1.9-2.6,2.8h0Z"/>
      <path class="cls-1" d="m114.3,104l-1,.2c-.3-1.3-.5-2.6-.7-3.9h1c.2,1.1.4,2.4.7,3.7Z"/>
      <path class="cls-1" d="m127.6,49.9c.8-1,1.7-2.1,2.5-3.1l.8.6c-.8,1-1.7,2-2.5,3.1l-.8-.6Z"/>
      <path class="cls-1" d="m112.9,90.1c0,1.2,0,2.3,0,3.5h-1c0-1.2,0-2.4,0-3.5v-.4s1,0,1,0v.4Z"/>
      <path class="cls-1" d="m113.4,98.9h-1c-.2-1.2-.3-2.5-.4-3.8h1c0,1.2.2,2.5.4,3.8Z"/>
      <path class="cls-1" d="m112.9,88.4h-1c0-1.4.1-2.7.2-4h1c-.1,1.4-.2,2.7-.2,4Z"/>
      <path class="cls-1" d="m115.5,73l-.9-.3c.4-1.3.9-2.6,1.3-3.7l.9.3c-.4,1.2-.8,2.4-1.3,3.7Z"/>
      <path class="cls-1" d="m114.1,78.1l-1-.2c.3-1.4.6-2.7,1-3.9l.9.3c-.4,1.2-.7,2.5-1,3.8Z"/>
      <path class="cls-1" d="m113.3,83.2h-1c.2-1.5.4-2.8.6-4.1l1,.2c-.2,1.2-.4,2.6-.6,3.9Z"/>
      <path class="cls-1" d="m120,199.1l-.9-.3c.4-1.4.9-2.6,1.4-3.8l.9.4c-.5,1.1-.9,2.3-1.3,3.7Z"/>
      <path class="cls-1" d="m130,188.6c1.8.4,2.8,1.1,3.3,2.6l-.9.3c-.4-1.1-1.1-1.7-2.6-1.9l.2-1Z"/>
      <path class="cls-1" d="m121.9,194.3l-.9-.5v-.2c.8-1.2,1.6-2.2,2.5-3l.7.7c-.9.8-1.6,1.7-2.2,2.8v.2Z"/>
      <path class="cls-1" d="m132.8,192.7l1-.2c0,.3.1.6.1.9,0,.4,0,.8,0,1.2,0,.6,0,1.2-.2,2l-1-.2c.1-.7.2-1.3.2-1.8,0-.3,0-.7,0-1,0-.3,0-.6-.1-.9Z"/>
      <path class="cls-1" d="m124.7,189.7c1.3-.8,2.6-1.3,4-1.3v1c-1.1,0-2.3.4-3.4,1.1l-.5-.8Z"/>
      <path class="cls-1" d="m55.5,65.8s-3.1-6.4-2.6-21.4c0,0-1.6,8.4-1.5,20.6,0,0-13.2,8.6-22.4,5.4,0,0,11.4-4.3,12.4-13.2,8.4,1.3,8.6-15.3,1.5-4.8,0,0,3.6-10.7,2.1-27.7,0,0,2.6,0,9.4.2,0,0-5.9-1.3-15.5-2,0,0,8.6-1.2,17.5.5.2,2.1,0,16-1,22.1-1,6.1-.8,12.6.2,20.3Z"/>
      <rect class="cls-1" x="62.6" y="104.1" width="1" height="4" transform="translate(-46.7 162.5) rotate(-86.5)"/>
      <rect class="cls-1" x="67.9" y="104.4" width="1" height="4" transform="translate(-42.2 168) rotate(-86.4)"/>
      <rect class="cls-1" x="73.2" y="104.8" width="1" height="4" transform="translate(-37.6 173.4) rotate(-86.3)"/>
      <rect class="cls-1" x="78.4" y="105.1" width="1" height="4" transform="translate(-33.2 178.8) rotate(-86.2)"/>
      <rect class="cls-1" x="57.3" y="103.8" width="1" height="4" transform="translate(-51.3 157.1) rotate(-86.5)"/>
      <rect class="cls-1" x="88.9" y="105.8" width="1" height="4" transform="translate(-24.3 189.6) rotate(-86)"/>
      <path class="cls-1" d="m103.2,109.3v-1c1.4.1,2.7.2,4,.3v1c-1.4-.1-2.7-.2-4-.3Z"/>
      <polygon class="cls-1" points="98 108.9 98 107.9 102 108.2 101.9 109.2 98 108.9"/>
      <polygon class="cls-1" points="92.7 108.5 92.8 107.6 96.7 107.8 96.6 108.8 92.7 108.5"/>
      <rect class="cls-1" x="83.7" y="105.5" width="1" height="4" transform="translate(-28.7 184.2) rotate(-86.1)"/>
      <rect class="cls-1" x="20.4" y="101.7" width="1" height="4" transform="translate(-83.7 118.9) rotate(-86.9)"/>
      <rect class="cls-1" x="15.2" y="101.4" width="1" height="4" transform="translate(-88.4 113.4) rotate(-86.9)"/>
      <rect class="cls-1" x="41.5" y="102.9" width="1" height="4" transform="translate(-65.1 140.7) rotate(-86.7)"/>
      <rect class="cls-1" x="46.8" y="103.2" width="1" height="4" transform="translate(-60.5 146.2) rotate(-86.6)"/>
      <rect class="cls-1" x="36.3" y="102.6" width="1" height="4" transform="translate(-69.7 135.2) rotate(-86.7)"/>
      <rect class="cls-1" x="52.1" y="103.5" width="1" height="4" transform="translate(-55.9 151.6) rotate(-86.6)"/>
      <rect class="cls-1" x="25.7" y="102" width="1" height="4" transform="translate(-79 124.3) rotate(-86.8)"/>
      <rect class="cls-1" x="31" y="102.3" width="1" height="4" transform="translate(-74.4 129.8) rotate(-86.8)"/>
      <path class="cls-1" d="m78.7,98.6c-1.3,0-2.6-.1-4-.2v-1c1.4,0,2.7.1,4,.2v1Z"/>
      <path class="cls-1" d="m41.8,97.2c-1.2,0-2.6-.2-3.9-.3v-1c1.4,0,2.8.2,4,.3v1Z"/>
      <path class="cls-1" d="m47,97.6c-1,0-1.8-.1-2.6-.2h-1.3c0-.1,0-1.1,0-1.1h1.3c.8.2,1.7.2,2.6.3v1Z"/>
      <path class="cls-1" d="m73.4,98.4c-1.3,0-2.6,0-4-.1v-1c1.3,0,2.7,0,4,.1v1Z"/>
      <path class="cls-1" d="m57.6,97.9c-1.4,0-2.7,0-4-.1v-1c1.3,0,2.6,0,4,.1v1Z"/>
      <path class="cls-1" d="m83.9,98.9c-1.3,0-2.6-.1-3.9-.2v-1c1.4,0,2.7.1,4,.2v1Z"/>
      <path class="cls-1" d="m52.3,97.8c-1.4,0-2.7-.1-4-.2v-1c1.3,0,2.6.1,4,.2v1Z"/>
      <polygon class="cls-1" points="26 96.3 22 96.1 22 95.2 26 95.3 26 96.3"/>
      <path class="cls-1" d="m90.6,98.3c1.3,0,2.7.2,4,.3v1c-1.4-.1-2.7-.2-4-.3v-1Z"/>
      <polygon class="cls-1" points="16.8 94.9 20.7 95.1 20.7 96.1 16.7 95.9 16.8 94.9"/>
      <polygon class="cls-1" points="68.1 98.3 64.2 98.1 64.2 97.1 68.2 97.3 68.1 98.3"/>
      <path class="cls-1" d="m31.2,96.6c-1.3,0-2.6-.1-4-.2v-1c1.4,0,2.7.1,4,.2v1Z"/>
      <path class="cls-1" d="m36.5,96.9c-1.3,0-2.6-.1-4-.2v-1c1.4,0,2.7.1,4,.2v1Z"/>
      <path class="cls-1" d="m104.9,100.9c-1.3-.2-2.6-.4-3.9-.5v-1c1.5.2,2.8.3,4.1.5l-.2,1Z"/>
      <path class="cls-1" d="m95.9,98.8c1.3.1,2.7.3,3.9.4v1c-1.4-.1-2.7-.3-4-.4v-1Z"/>
      <rect class="cls-1" x="60.4" y="95.6" width="1" height="4" transform="translate(-38.4 155.6) rotate(-88.4)"/>
      <path class="cls-1" d="m89.2,99.2c-1.3,0-2.6-.2-3.9-.3v-1c1.4,0,2.7.2,4,.3v1Z"/>
      <path class="cls-1" d="m41,90.1c-1.3,0-2.6,0-4-.1v-1c1.4,0,2.7.1,4,.1v1Z"/>
      <path class="cls-1" d="m72.7,90.7c-1.3,0-2.7,0-4-.1v-1c1.3,0,2.6,0,4,.1v1Z"/>
      <path class="cls-1" d="m46.3,90.3c-1.2,0-2.5,0-4-.1v-1c1.5,0,2.8,0,4,.1v1Z"/>
      <path class="cls-1" d="m98.9,92.7c-1.3-.2-2.6-.4-3.9-.5v-1c1.5.2,2.8.3,4.1.5v1Z"/>
      <rect class="cls-1" x="22.7" y="86.9" width="1" height="4" transform="translate(-66.6 108) rotate(-87.4)"/>
      <rect class="cls-1" x="33.3" y="87.3" width="1" height="4" transform="translate(-56.9 119.4) rotate(-87.6)"/>
      <path class="cls-1" d="m63.5,89.5c1.3,0,2.6,0,4,0v1c-1.4,0-2.7,0-4,0v-1Z"/>
      <path class="cls-1" d="m104.1,93.6c-1.2-.2-2.5-.5-3.9-.7l.2-1c1.4.2,2.7.5,3.9.7l-.2,1Z"/>
      <polygon class="cls-1" points="56.9 90.4 52.9 90.4 52.9 89.4 56.9 89.4 56.9 90.4"/>
      <rect class="cls-1" x="17.4" y="86.6" width="1" height="4" transform="translate(-71.4 102.3) rotate(-87.3)"/>
      <path class="cls-1" d="m77.9,90.9c-1.3,0-2.6-.1-4-.2v-1c1.3,0,2.7.1,4,.2v1Z"/>
      <path class="cls-1" d="m47.6,90.3v-1s1,0,1,0c.9,0,1.9,0,3,0v1c-1.1,0-2.2,0-3,0h-.9Z"/>
      <path class="cls-1" d="m83.2,91.2c-1.3,0-2.6-.2-3.9-.2v-1c1.4,0,2.7.1,4,.2v1Z"/>
      <path class="cls-1" d="m62.1,90.5c-1.4,0-2.7,0-4,0v-1c1.3,0,2.6,0,4,0v1Z"/>
      <path class="cls-1" d="m93.7,92.1c-1.3-.1-2.6-.3-3.9-.4v-1c1.4.1,2.7.2,4,.4v1Z"/>
      <rect class="cls-1" x="28" y="87.1" width="1" height="4" transform="translate(-61.8 113.7) rotate(-87.5)"/>
      <path class="cls-1" d="m88.5,91.6c-1.3-.1-2.6-.2-3.9-.3v-1c1.4,0,2.7.2,4,.3v1Z"/>
      <path class="cls-1" d="m89.6,83.2c1.3,0,2.7.1,4,.2v1c-1.3,0-2.7-.1-4-.2v-1Z"/>
      <path class="cls-1" d="m67.1,83.9c-1.4,0-2.7,0-4,0v-1c1.3,0,2.6,0,4,0v1Z"/>
      <path class="cls-1" d="m30.2,82.4c-1.5,0-2.8-.2-4-.3v-1c1.2,0,2.6.2,4,.3v1Z"/>
      <path class="cls-1" d="m25,81.1v1c-1.4-.1-2.2-.2-2.8-.4-.3,0-.8-.1-1.3-.2v-1c.6,0,1.1.1,1.5.2.5.1,1.3.2,2.5.3Z"/>
      <path class="cls-1" d="m94.9,83.5c1.4,0,2.7.2,4,.3v1c-1.4-.1-2.7-.2-4-.3v-1Z"/>
      <polygon class="cls-1" points="72.4 83 72.4 84 68.5 83.9 68.5 82.9 72.4 83"/>
      <path class="cls-1" d="m88.3,83.2v1c-1.3,0-2.7,0-4,0v-1c1.3,0,2.7,0,4,0Z"/>
      <path class="cls-1" d="m52.7,82.4c1.4,0,2.7.1,4,.2v1c-1.3,0-2.6-.1-4-.2v-1Z"/>
      <polygon class="cls-1" points="51.3 82.4 51.3 83.4 47.3 83.2 47.4 82.2 51.3 82.4"/>
      <path class="cls-1" d="m61.9,83.8c-1.1,0-2.2,0-3.1-.1h-.9s0-1,0-1h.9c.9,0,2,.1,3.1.2v1Z"/>
      <path class="cls-1" d="m100.2,83.9c1.4.1,2.8.3,3.9.5l-.2,1c-1.2-.2-2.5-.4-3.9-.5v-1Z"/>
      <path class="cls-1" d="m83,83.1v1c-1.3,0-2.7,0-4,0v-1c1.3,0,2.6,0,4,0Z"/>
      <rect class="cls-1" x="75.2" y="81.5" width="1" height="4" transform="translate(-8.4 158.5) rotate(-89.5)"/>
      <rect class="cls-1" x="43.6" y="80.6" width="1" height="4" transform="translate(-40.2 123.3) rotate(-87.7)"/>
      <path class="cls-1" d="m35.5,81.7v1c-1.4,0-2.8-.1-4-.2v-1c1.3,0,2.6.1,4,.2Z"/>
      <rect class="cls-1" x="38.3" y="80.4" width="1" height="4" transform="translate(-45.1 117.7) rotate(-87.6)"/>
      <path class="cls-1" d="m15.8,80.3c1.5,0,2.9,0,4,.1v1c-1.1,0-2.5,0-4-.1v-1Z"/>
      <path class="cls-1" d="m14.5,81.3c-1.4,0-2.8,0-3.9,0v-1c1.1,0,2.5,0,3.9,0v1Z"/>
      <path class="cls-1" d="m24.6,75.3c-.7-.1-1.5-.1-2.5-.1v-1c1,0,2,0,2.7.1.4,0,.8.1,1.3.1v1c-.6,0-1,0-1.4-.1Z"/>
      <path class="cls-1" d="m58.8,75.9v-1c1.4.1,2.7.3,4,.4v1c-1.5-.1-2.8-.2-4-.4Z"/>
      <path class="cls-1" d="m12,72.8c1.1.6,2.2,1,3.6,1.2l-.2,1c-1.4-.2-2.7-.7-3.9-1.3l.5-.9Z"/>
      <path class="cls-1" d="m94.5,76.4c-1.2.1-2.5.3-4,.3v-1c1.4,0,2.7-.2,3.9-.3v1Z"/>
      <path class="cls-1" d="m106.9,68.4l.4-.4.7.7-.4.4c-.7.8-1.5,1.7-2.3,2.5l-.7-.7c.8-.8,1.5-1.6,2.3-2.4Z"/>
      <path class="cls-1" d="m89.2,76.8c-1.3,0-2.6.1-4,.1v-1c1.3,0,2.7,0,3.9-.1v1Z"/>
      <path class="cls-1" d="m16.7,75.2v-1c1.4.1,2.7,0,4,0v1c-.6,0-1.3,0-2.1,0s-1.3,0-1.9,0Z"/>
      <path class="cls-1" d="m111.1,64.3l.6.8c-1.1.9-2.1,1.9-2.8,2.7l-.7-.7c.8-.8,1.8-1.9,2.9-2.8Z"/>
      <path class="cls-1" d="m11,72.2l-.6.8c-1-.8-2-1.8-2.8-3l.8-.6c.8,1.1,1.6,2,2.6,2.7Z"/>
      <path class="cls-1" d="m64.2,75.4c1.3.1,2.6.2,3.9.3v1c-1.4,0-2.7-.2-4-.3v-1Z"/>
      <rect class="cls-1" x="32.6" y="74.3" width="4" height="1" transform="translate(-3.1 1.5) rotate(-2.4)"/>
      <path class="cls-1" d="m41.8,75.1c-1.4,0-2.7,0-3.9.1v-1c1.2,0,2.6,0,3.9-.1v1Z"/>
      <path class="cls-1" d="m104.4,72.5c-1.1,1-2.2,1.8-3.3,2.3l-.4-.9c1-.5,2.1-1.2,3.1-2.2l.7.7Z"/>
      <path class="cls-1" d="m31.2,74.5v1c-1.1,0-2.1,0-3,0s-.6,0-.9,0v-1c1.2,0,2.5,0,3.9,0Z"/>
      <path class="cls-1" d="m99.4,74.4l.3.9c-.3,0-.5.2-.8.3-.8.2-1.9.4-3.1.6v-1c1-.2,2.1-.4,2.9-.6.3,0,.5-.1.8-.2Z"/>
      <path class="cls-1" d="m73.4,75.9v1c-1.4,0-2.7-.1-4-.2v-1c1.4,0,2.7.1,4,.2Z"/>
      <path class="cls-1" d="m57.1,75.6c-1.1-.1-2.3-.3-3.4-.4v-1c1.3,0,2.4.2,3.6.4h.5c0,0-.1,1-.1,1h-.5Z"/>
      <path class="cls-1" d="m81.1,76c1,0,1.9,0,2.8,0v1c-.9,0-1.9,0-2.8,0h-1.1s0-1,0-1h1.1Z"/>
      <path class="cls-1" d="m52.4,74.2v1c-1.4,0-2.7-.1-4-.2v-1c1.3,0,2.7,0,4,.2Z"/>
      <path class="cls-1" d="m78.6,76v1c-1.3,0-2.6,0-4,0v-1c1.3,0,2.7,0,4,0Z"/>
      <path class="cls-1" d="m47.1,74v1c-.4,0-.9,0-1.3,0-.9,0-1.8,0-2.7,0v-1c.8,0,1.7,0,2.5,0,.5,0,.9,0,1.4,0Z"/>
      <path class="cls-1" d="m83.3,221.1c4.9-5.4,9.2-6.4,9.2-6.4-13.3,13.2-7.4,23.4-7.4,23.4-.7-3.6-.2-5.6-.2-5.6,3.8,11.2,8.6,14.6,8.6,14.6-4.9.3-11.3,2.2-11.3,2.2,2.3-2,5.9-4,5.9-4-6.9,1.3-9,3.2-9,3.2-17.8-3.4-36.1-5.6-52.2-11.4,18.6,4.8,40.7,6.6,46,7,.8,0,1.2,0,1.2,0l-24.1-4.4c6.9-13.3,5.8-30,5.8-30,7.1-2.3,13.7-.8,13.7-.8-8.4-2.3-12.8-2-12.8-2-5.4-4.6-19.4-10.5-19.4-10.5,14.3,4.1,37.1,9.1,37.1,9.1,13.7,2.5,30.5,4.4,30.5,4.4-16.6,1.3-21.4,11.2-21.4,11.2Z"/>
      <path class="cls-1" d="m92,190.2c13.9,2.7,10.4-1.3,6.5-3.5,7.2-2.7,11.2-9.2,9.7-14.7,4.1-6.9,3.2-13.3,3.2-13.3,4.8,11.1,12,20.8,12,20.8-5.3-5.6-9-11.1-9-11.1,3.2,8.2,8.3,13.9,8.3,13.9-8.2,3.6-11.3,14.7-11.3,14.7-16-.7-46.8-6.5-61.1-10.7,29,6.3,41.7,3.8,41.7,3.8Z"/>
      <path class="cls-1" d="m106.4,54.3c-1.3,2.7-2.9,5.4-5.1,7.5-2.3,2-5.1,3.4-8.1,3.6,2.9-.5,5.6-2,7.7-4.1,2-2.1,3.5-4.7,4.6-7.4.6-1.4,1-2.8,1.5-4.2l1.2-4.3c.9-2.9,1.9-5.7,2.9-8.5l3.1-8.4.7-2.1c.1-.4.2-.7.3-1,0-.2.1-.3.1-.5h0c0-.1,0-.2,0-.3,0-.2.2-.4.3-.5.5-.4.9-.4,1.3-.5.4,0,.8,0,1.2,0,.8,0,1.5,0,2.3.1,3,.3,5.9.7,8.9,1.1,3,.4,5.9.8,8.9.9-6,.3-11.9-.6-17.9-.9-.7,0-1.5,0-2.2,0-.4,0-.7,0-1.1,0-.3,0-.7.1-.8.2,0,.1-.1.6-.2.8-.1.4-.2.7-.3,1.1l-.7,2.1-3,8.4c-1,2.8-2.1,5.6-3,8.4-.9,2.8-1.7,5.8-2.9,8.5Z"/>
      <path class="cls-1" d="m88.2,14.3c-1.4,0-2.7.4-4.2.5-.7,0-1.5,0-2.2-.2l-2-.4c-1.4-.3-2.7-.5-4.1-.5-.7,0-1.3,0-1.8.3-.5.2-.7.6-.7,1.1,0,1.5-.3,2.8-.5,4.3-.4,2.8-.9,5.5-1.4,8.3-1.1,5.5-2.1,11-3.3,16.5l-.8,4.1c-.1.7-.3,1.4-.4,2-.1.7-.2,1.4-.4,2.1-.8,2.7-1.7,5.4-2.8,8,.8-2.7,1.6-5.4,2.1-8.1.1-.7.3-1.4.3-2,0-.7.2-1.4.3-2.1l.7-4.2c.9-5.5,2-11,3-16.5.5-2.7,1.1-5.5,1.5-8.2.2-1.4.5-2.8.6-4.1,0-.4,0-.9.4-1.3.3-.4.7-.7,1.1-.8.8-.3,1.6-.3,2.3-.3,1.5,0,2.9.4,4.2.7l2,.5c.7.2,1.3.3,2,.3,1.4,0,2.8-.2,4.2-.2,1.4,0,2.8.2,4.2.5-1.4-.2-2.8-.3-4.2-.2Z"/>
      <path class="cls-1" d="m35.4,31.1c0,.8,0,1.7,0,2.5-.1,3.4-.4,6.7-.5,10l-.6,10c0,1.7-.1,3.3-.1,5,0,1.7,0,3.3.4,5-1.2-3.2-1.2-6.6-1.4-10,0-3.4.1-6.7.3-10.1.1-3.3.4-6.7.8-10,0-.8.2-1.7.2-2.5,0-.8,0-1.7.2-2.5.3-1.7.7-3.3,1.2-4.9-.2,1.7-.4,3.3-.5,5,0,.8,0,1.6,0,2.5Z"/>
      <path class="cls-1" d="m8.5,40.6l-.2,5.3c0,1.7,0,3.5.1,5.3,0,1.8.2,3.5.2,5.3,0,1.8,0,3.5.2,5.3.2,1.7.6,3.5,1.2,5.1.3.8.8,1.6,1.3,2.3.6.7,1.3,1.2,2.1,1.6-.8-.3-1.6-.8-2.3-1.4-.6-.7-1.1-1.4-1.6-2.2-.8-1.6-1.3-3.4-1.6-5.2-.3-1.8-.4-3.6-.5-5.4l-.3-5.3c-.1-1.8-.2-3.6-.2-5.4l.2-5.3c.2-3.5.4-7.1.6-10.7v-.4s.4,0,.4,0c3.3-.1,6.7-.2,10-.2-3.2.4-6.4.7-9.6,1,0,3.4,0,6.8-.2,10.3Z"/>
      <path class="cls-1" d="m95.5,149.9c-.5,6.8-2,9.7-4.1-2.1-2.1-11.9-4.3,17.6-10.4,25.4-6.1,7.7-5.4,11,12,14.5,0,0-11.9,2.5-41.2-3.1,6.3-.3,28.8-14.2,31.5-27.7,0,0-2.3,3.5-6.8,5.3,0,0,7.4-5.4,8.6-15.3,1.2-9.9.7-18.6-18.4-22.1,0,0,15.6.7,21.4,1.3,5.8.7,5.8,3,8.7,6.1,3,3.1,8.4,14,12.7,23.6-8.4-15-13.5-12.5-14-5.8Z"/>
      <path class="cls-1" d="m111,151.9c-4-6.8-6.5-13.3-9.1-17.9s-4.8-10.1-16-11.3c5.4-1.6,9.1-12.7,9.1-12.7l15.5,1.2c.7,5.4,1.3,8.8,1.3,8.8-1.8-4.2-2.3-6.9-2.3-6.9,0,6.2,1,10.3,1,10.3-2.5-5.2-2.4-8-2.4-8-.4,9.3,1.4,13.8,1.4,13.8,1.9-4.5,4.9-6.4,4.9-6.4-7.1,6.8-3.4,29.1-3.4,29.1Z"/>
      <path class="cls-1" d="m85.9,61.7c-1.1-1.6-1.5-3.5-1.7-5.3-.3-3.7.4-7.4,1.1-11,.7-3.6,1.6-7.1,2.5-10.6.9-3.6,2.2-7,3.7-10.3-.5,1.8-1,3.5-1.5,5.2-.5,1.7-.9,3.5-1.3,5.3l-2.2,10.7c-.7,3.5-1.4,7.1-1.4,10.6,0,1.8.4,3.5,1.2,5,.9,1.5,2.4,2.6,4.2,3-1.8-.2-3.6-1.1-4.7-2.7Z"/>
      <path class="cls-1" d="m24.3,162.2c.6-4.6.8-9.3,1.4-14v7c-.1,2.3-.2,4.7-.4,7-.2,2.3-.5,4.7-1.3,7-.8,2.1-1.1,4.4-.7,6.6,0,.6.2,1.1.3,1.7l.2.8c0,.2.1.4.3.5.2.2.7.4,1.2.4.5,0,1.1,0,1.7,0,2.4,0,4.7.4,7,.9,2.3.5,4.6,1.1,6.8,1.9,2.2.8,4.4,1.7,6.5,2.7-4.4-1.5-8.9-2.9-13.5-3.6-2.3-.3-4.6-.7-6.9-.7-.6,0-1.2,0-1.8,0-.6,0-1.4-.2-2-.8-.3-.3-.4-.7-.6-1l-.2-.9c-.2-.6-.3-1.2-.4-1.8-.4-2.4,0-4.9.8-7.2.8-2.1,1.1-4.4,1.5-6.7Z"/>
      <path class="cls-1" d="m131.1,138.1c.1,1.2.2,2.5.2,3.8,0,1.3,0,2.6-.2,3.9-.1,1.3-.3,2.6-.5,3.8-.2,1.3-.5,2.5-.8,3.7-.6,2.3-1.2,4.5-1.9,6.3-.6,1.8-1.2,3.3-1.6,4.3-.4,1-.7,1.6-.7,1.6,0,0,.1-.6.3-1.7.2-1.1.5-2.7.9-4.5.4-1.9.8-4,1.3-6.4.2-1.2.4-2.4.6-3.6.2-1.2.3-2.5.4-3.7.1-1.2.2-2.5.2-3.7,0-1.2,0-2.4,0-3.6-.1-2.3-.4-4.5-.8-6.4-.4-1.8-.8-3.4-1.2-4.4-.4-1.1-.6-1.7-.6-1.7,0,0,.4.5.9,1.5.5,1,1.3,2.4,1.9,4.3.6,1.8,1.1,4.1,1.4,6.5Z"/>
      <path class="cls-1" d="m128.2,132.7c.1.6.2,1.2.3,1.8,0,.6.1,1.2.1,1.8,0,.6,0,1.2,0,1.8,0,1.2-.2,2.2-.4,3.1-.2.9-.5,1.6-.6,2.1-.2.5-.3.8-.3.8,0,0,0-.3,0-.8,0-.5,0-1.3-.1-2.2,0-.9-.1-1.9-.2-3,0-.5-.1-1.1-.2-1.7,0-.6-.1-1.1-.2-1.7,0-.6-.1-1.2-.2-1.7,0-.6-.2-1.1-.3-1.7-.2-1.1-.4-2.1-.6-3-.2-.9-.3-1.6-.4-2.1-.1-.5-.2-.8-.2-.8,0,0,.2.2.5.7.3.5.7,1.1,1.1,1.9.4.8.8,1.8,1.2,2.9.2.6.3,1.1.4,1.7Z"/>
      <path class="cls-1" d="m125.3,134.7c0,.6,0,1.3,0,1.9,0,.6,0,1.2-.1,1.8-.1,1.2-.3,2.3-.6,3.2-.2.9-.5,1.7-.7,2.2-.2.5-.4.8-.4.8,0,0,0-.3,0-.9,0-.5,0-1.3,0-2.2,0-.9,0-2,0-3.1,0-.6,0-1.1,0-1.7,0-.6,0-1.2,0-1.8,0-.6,0-1.2-.1-1.8,0-.6,0-1.2-.1-1.7-.1-1.1-.2-2.2-.3-3.1,0-.9-.1-1.7-.2-2.2,0-.5,0-.9,0-.9,0,0,.2.3.4.8.2.5.6,1.2,1,2.1.4.9.7,1.9.9,3.1.1.6.2,1.2.3,1.8,0,.6.1,1.2.2,1.9Z"/>
      <path class="cls-1" d="m152.9,151.4c.9-1.9,1.9-4,3-6.3.5-1.2,1.1-2.4,1.7-3.6.6-1.2,1.1-2.5,1.7-3.7.6-1.2,1.1-2.5,1.7-3.7.6-1.2,1.1-2.4,1.6-3.6,1.1-2.3,2-4.5,2.9-6.4.9-1.9,1.6-3.4,2.1-4.5.5-1.1.8-1.7.8-1.7,0,0-.2.7-.4,1.8-.3,1.2-.7,2.8-1.4,4.8-.6,2-1.4,4.3-2.3,6.7-.5,1.2-1,2.4-1.5,3.7-.5,1.2-1.1,2.5-1.7,3.8-.6,1.2-1.2,2.5-1.8,3.7-.6,1.2-1.2,2.4-1.9,3.5-1.2,2.3-2.5,4.4-3.6,6.1-1.1,1.8-2.1,3.2-2.8,4.2-.7,1-1.1,1.5-1.1,1.5,0,0,.3-.6.8-1.7.5-1.1,1.2-2.6,2.1-4.5Z"/>
      <path class="cls-1" d="m27.6,232.7c.9.3,1.8.6,2.7.9.9.3,1.8.6,2.7.9.9.3,1.8.6,2.6.9,1.7.6,3.3,1.1,4.6,1.5,1.4.4,2.5.8,3.3,1,.8.2,1.3.4,1.3.4,0,0-.5,0-1.3,0-.8,0-2.1,0-3.5-.3-1.4-.2-3.1-.5-4.9-1-.9-.2-1.8-.5-2.7-.7-.9-.3-1.8-.6-2.7-.9-.9-.3-1.8-.6-2.7-1-.9-.3-1.8-.7-2.6-1-1.7-.6-3.2-1.3-4.6-1.9-1.3-.6-2.4-1.1-3.2-1.5-.8-.4-1.2-.6-1.2-.6,0,0,.5,0,1.3.2.8.2,2,.4,3.4.8,1.4.3,3,.8,4.7,1.3.9.3,1.8.5,2.6.8Z"/>
      <path class="cls-1" d="m32.4,231.2c.8.2,1.7.5,2.5.7.8.3,1.7.5,2.5.8.8.3,1.6.5,2.4.8,1.6.5,3,1,4.2,1.5,1.2.5,2.2.9,3,1.2.7.3,1.1.5,1.1.5,0,0-.4,0-1.2-.1-.8-.1-1.9-.2-3.1-.5-1.3-.2-2.8-.5-4.4-.9-.8-.2-1.6-.4-2.5-.6-.8-.2-1.7-.5-2.5-.7-.8-.3-1.7-.5-2.5-.8-.8-.2-1.6-.5-2.4-.8-1.5-.5-3-1.1-4.2-1.6-1.2-.5-2.2-1-2.9-1.3-.7-.3-1.1-.5-1.1-.5,0,0,.4,0,1.2.2.8.2,1.8.3,3.1.6,1.3.3,2.8.6,4.4,1,.8.2,1.6.4,2.4.6Z"/>
      <path class="cls-1" d="m36.2,228.7c.6.2,1.3.4,1.9.6.6.2,1.3.4,1.9.6.6.2,1.2.4,1.8.7,1.2.4,2.3.9,3.2,1.3.9.4,1.7.8,2.2,1.1.5.3.8.5.8.5,0,0-.3,0-.9,0-.6,0-1.4-.2-2.4-.4-1-.2-2.2-.4-3.4-.7-.6-.2-1.2-.3-1.9-.5-.6-.2-1.3-.4-1.9-.6-.6-.2-1.3-.4-1.9-.6-.6-.2-1.2-.4-1.8-.7-1.2-.4-2.3-.9-3.2-1.3-.9-.4-1.7-.8-2.2-1.1-.5-.3-.8-.5-.8-.5,0,0,.3,0,.9,0,.6,0,1.4.2,2.5.4,1,.2,2.2.4,3.4.7.6.2,1.3.3,1.9.5Z"/>
      <path class="cls-1" d="m40,225.5c.5.1.9.3,1.4.4.5.1.9.3,1.4.4.5.2.9.3,1.3.5.9.3,1.7.7,2.3,1,.7.3,1.2.7,1.6.9.4.2.6.4.6.4,0,0-.3,0-.7,0-.4,0-1.1,0-1.8-.1-.7,0-1.6-.2-2.5-.4-.5-.1-.9-.2-1.4-.3-.5-.1-.9-.3-1.4-.4-.5-.1-.9-.3-1.4-.4-.5-.1-.9-.3-1.3-.5-.9-.3-1.7-.7-2.3-1-.7-.3-1.2-.7-1.6-.9-.4-.2-.6-.4-.6-.4,0,0,.3,0,.7,0,.4,0,1.1,0,1.8.1.7,0,1.6.2,2.5.4.5.1.9.2,1.4.3Z"/>
      <path class="cls-1" d="m38.9,221.9c.6,0,1.4,0,2.2.2.4,0,.8.1,1.2.2.4,0,.8.2,1.2.3.4.1.8.2,1.2.3.4.1.8.2,1.2.4.8.2,1.5.5,2.1.8.6.3,1.1.5,1.4.7.3.2.5.3.5.3,0,0-.2,0-.6,0-.4,0-.9,0-1.6,0-.7,0-1.4,0-2.2-.2-.4,0-.8-.1-1.2-.2-.4,0-.8-.2-1.2-.3-.4-.1-.8-.2-1.2-.3-.4,0-.8-.2-1.2-.4-.8-.2-1.5-.5-2-.8-.6-.3-1.1-.5-1.4-.7-.3-.2-.5-.3-.5-.3,0,0,.2,0,.6,0,.4,0,.9,0,1.6,0Z"/>
      <path class="cls-1" d="m43.9,218.4c.3,0,.7.2,1,.2.3.1.7.2,1,.3.3.1.6.2.9.3.6.2,1.2.5,1.6.8.5.2.8.5,1.1.7.3.2.4.3.4.3,0,0-.2,0-.5,0-.3,0-.8,0-1.3,0-.5,0-1.1,0-1.8-.2-.3,0-.6-.1-1-.2-.3,0-.7-.2-1-.2-.3-.1-.7-.2-1-.3-.3,0-.6-.2-.9-.3-.6-.2-1.2-.5-1.6-.8-.5-.2-.8-.5-1.1-.7-.3-.2-.4-.3-.4-.3,0,0,.2,0,.5,0,.3,0,.8,0,1.3,0,.5,0,1.1,0,1.8.2.3,0,.7,0,1,.2Z"/>
      <path class="cls-1" d="m50.1,217.6s-.2,0-.4,0c-.3,0-.6,0-1.1,0-.4,0-.9,0-1.4-.2-.3,0-.5-.1-.8-.2-.3,0-.5-.2-.8-.2-.3-.1-.5-.2-.8-.3-.3,0-.5-.2-.7-.3-.5-.2-.9-.5-1.2-.7-.4-.2-.6-.5-.8-.7-.2-.2-.3-.3-.3-.3,0,0,.2,0,.4,0,.3,0,.6,0,1.1,0,.4,0,.9,0,1.4.2.3,0,.5,0,.8.2.3,0,.5.2.8.2.3.1.5.2.8.3.2.1.5.2.7.3.5.2.9.5,1.2.7.4.2.6.5.8.7.2.2.3.3.3.3Z"/>
      <path class="cls-1" d="m49.2,213.4s-.1,0-.3,0c-.2,0-.5,0-.7,0-.3,0-.6,0-.9-.1-.2,0-.3,0-.5-.1l-.5-.2-.5-.2c-.2,0-.3-.2-.4-.3-.3-.2-.5-.4-.7-.6-.2-.2-.4-.4-.5-.6-.1-.1-.2-.3-.2-.3,0,0,.1,0,.3-.1.2,0,.5-.1.8-.1.3,0,.6,0,1,0,.2,0,.4,0,.5.1l.5.2.5.3c.2.1.3.2.5.3.3.2.5.5.7.7.2.2.3.5.4.6,0,.2.1.3.1.3Z"/>
      <path class="cls-1" d="m48,209.5c-.2,0-.5,0-.7,0-.1,0-.3,0-.4,0h-.4c0,0-.4-.2-.4-.2-.1,0-.2-.1-.3-.2-.2-.1-.4-.3-.6-.5-.2-.2-.3-.4-.4-.5,0-.1-.1-.2-.1-.2,0,0,0,0,.2-.1.1,0,.3-.2.6-.3.2,0,.5-.1.8-.1.1,0,.3,0,.4,0h.4c0,0,.4.2.4.2.1,0,.2.1.4.2.2.2.4.3.6.5.2.2.3.4.3.5,0,.1.1.2.1.2,0,0,0,0-.2.1-.1,0-.4.1-.6.2Z"/>
      <path class="cls-1" d="m77.6,110.9c-3.2-.2-6.9-.4-10.9-.7-2-.1-4.1-.3-6.1-.4-2.1-.2-4.2-.3-6.3-.5-2.1-.2-4.2-.3-6.3-.5-2.1-.2-4.1-.3-6.1-.5-4-.3-7.7-.7-10.9-.9-3.2-.3-5.8-.6-7.7-.8-1.9-.2-2.9-.3-2.9-.3,0,0,1.1,0,2.9,0,1.9,0,4.5,0,7.7,0,3.2,0,6.9.2,10.9.3,2,.1,4.1.2,6.2.3,2.1.1,4.2.3,6.4.4,2.1.2,4.3.4,6.3.5,2.1.2,4.1.4,6.1.6,4,.4,7.7.9,10.9,1.3,3.2.4,5.8.9,7.7,1.1,1.8.3,2.9.5,2.9.5,0,0-1.1,0-2.9-.1-1.9,0-4.5-.2-7.7-.4Z"/>
      <path class="cls-1" d="m22.8,117.4c1.8,0,4.3,0,7.3,0,3,0,6.5,0,10.3.2,1.9,0,3.8.1,5.8.2,2,0,4,.2,6,.3,2,.1,4,.2,6,.3,2,.1,3.9.2,5.8.4,3.7.3,7.2.6,10.2.9,3,.3,5.5.6,7.2.8,1.7.2,2.7.4,2.7.4,0,0-1,0-2.8,0-1.8,0-4.3,0-7.3,0-3,0-6.5-.2-10.2-.3-1.9,0-3.8-.2-5.8-.2-2,0-4-.2-6-.3-2-.1-4-.2-6-.3-2-.1-3.9-.2-5.8-.4-3.7-.3-7.2-.5-10.2-.8-3-.3-5.5-.6-7.2-.7-1.7-.2-2.7-.3-2.7-.3,0,0,1,0,2.8,0Z"/>
      <path class="cls-1" d="m84.3,116.8c-1.1,0-2.4-.1-3.7-.2-.7,0-1.4-.1-2.1-.2-.7,0-1.4-.1-2.1-.2-.7,0-1.4-.2-2.1-.2-.7,0-1.4-.2-2.1-.3-1.3-.2-2.6-.4-3.7-.6-1.1-.2-2-.4-2.6-.5-.6-.1-1-.2-1-.2,0,0,.4,0,1-.1.6,0,1.6-.2,2.7-.2,1.1,0,2.4,0,3.7,0,.7,0,1.4,0,2.1.1.7,0,1.4.1,2.2.2.7,0,1.4.2,2.2.3.7.1,1.4.2,2.1.3,1.3.3,2.6.5,3.7.8,1.1.3,1.9.6,2.5.8.6.2,1,.4,1,.4,0,0-.4,0-1,0-.6,0-1.6,0-2.7,0Z"/>
      <path class="cls-1" d="m76.2,165.3c-7.9,13-24.9,18-25.4,17.8-13.3-5.8-25.5-5.1-25.5-5.1,14.5-2.3,22.1-7.7,22.1-7.7-4.4,4.3-7.6,5.4-7.6,5.4,9.6-1.3,12.5-4.1,12.5-4.1l12.2.3-8.4,6.4c14.3-5.8,20.1-13,20.1-13Z"/>
      <path class="cls-1" d="m37.1,116.3s-1.9-2.7-6.3-7.9c0,0,12.9,0,23.3,2.2,0,0,.9,5.1,4.8,6.6,0,0-11.6-1.9-21.8-.9Z"/>
    </g>
  </g>
</svg>