<?xml version="1.0" encoding="UTF-8"?>
<svg id="Layer_1" data-name="Layer 1" xmlns="http://www.w3.org/2000/svg" viewBox="0 0 433 433">
  <defs>
    <style>
      .cls-1 {
        fill: #fff;
      }

      .cls-2 {
        fill: none;
        stroke: #fff;
        stroke-miterlimit: 10;
        stroke-width: 12px;
      }
    </style>
  </defs>
  <path class="cls-1" d="m216,128c48.5,0,88,39.5,88,88s-39.5,88-88,88-88-39.5-88-88,39.5-88,88-88m0-12c-55.2,0-100,44.8-100,100s44.8,100,100,100,100-44.8,100-100-44.8-100-100-100h0Z"/>
  <path class="cls-2" d="m427,242v-51c0-5-4-9-9-9h-55.9c-3.7-16-10-31-18.4-44.6l39.4-39.4c3.5-3.5,3.5-9.2,0-12.7l-36-36c-3.5-3.5-9.2-3.5-12.7,0l-39.3,39.3c-13.4-8.3-28.2-14.6-44-18.4V15c0-5-4-9-9-9h-51c-5,0-9,4-9,9v54.9c-16,3.7-31.1,10-44.7,18.4l-39.1-39.1c-3.5-3.5-9.2-3.5-12.7,0l-36,36c-3.5,3.5-3.5,9.2,0,12.7l39,39c-8.5,13.7-14.9,28.8-18.6,45H15c-5,0-9,4-9,9v51c0,5,4,9,9,9h55.1c3.8,15.8,10.1,30.6,18.4,44l-39.1,39.1c-3.5,3.5-3.5,9.2,0,12.7l36,36c3.5,3.5,9.2,3.5,12.7,0l39.2-39.2c13.6,8.4,28.6,14.7,44.6,18.4v55.9c0,5,4,9,9,9h51c5,0,9-4,9-9v-56.1c15.8-3.8,30.6-10,44-18.4l39.4,39.4c3.5,3.5,9.2,3.5,12.7,0l36-36c3.5-3.5,3.5-9.2,0-12.7l-39.4-39.4c8.2-13.3,14.4-28,18.2-43.7h56.1c5,0,9-4,9-9Z"/>
</svg>